NotoSerifTamil-CondensedBlack.ufo
<glyph name="exclam" format="2">
  <advance width="369.7"/>
  <unicode hex="0021"/>
  <outline>
    <contour>
      <point x="157.0" y="238.9" type="line"/>
      <point x="213.0" y="238.9" type="line"/>
      <point x="280.90000000000003" y="714.0" type="line"/>
      <point x="89.10000000000001" y="714.0" type="line"/>
    </contour>
    <contour>
      <point x="186.5" y="-8.3" type="curve" smooth="yes"/>
      <point x="231.9" y="-8.3"/>
      <point x="271.3" y="12.299999999999999"/>
      <point x="271.3" y="75.8" type="curve" smooth="yes"/>
      <point x="271.3" y="139.60000000000002"/>
      <point x="231.9" y="159.9"/>
      <point x="186.5" y="159.9" type="curve" smooth="yes"/>
      <point x="138.8" y="159.9"/>
      <point x="101.69999999999999" y="139.60000000000002"/>
      <point x="101.69999999999999" y="75.8" type="curve" smooth="yes"/>
      <point x="101.69999999999999" y="12.299999999999999"/>
      <point x="138.8" y="-8.3"/>
    </contour>
  </outline>
</glyph>
<glyph name="quotedbl" format="2">
  <advance width="514.8000000000001"/>
  <unicode hex="0022"/>
  <outline>
    <contour>
      <point x="342.9" y="423.3" type="line"/>
      <point x="414.09999999999997" y="423.3" type="line"/>
      <point x="448.9" y="714.0" type="line"/>
      <point x="277.59999999999997" y="714.0" type="line"/>
    </contour>
    <contour>
      <point x="115.3" y="423.3" type="line"/>
      <point x="186.5" y="423.3" type="line"/>
      <point x="236.20000000000002" y="714.0" type="line"/>
      <point x="65.6" y="714.0" type="line"/>
    </contour>
  </outline>
</glyph>
<glyph name="numbersign" format="2">
  <advance width="493.90000000000003"/>
  <unicode hex="0023"/>
  <outline>
    <contour>
      <point x="62.8" y="0.0" type="line"/>
      <point x="141.8" y="0.0" type="line"/>
      <point x="179.79999999999998" y="198.0" type="line"/>
      <point x="253.79999999999998" y="198.0" type="line"/>
      <point x="217.8" y="0.0" type="line"/>
      <point x="296.8" y="0.0" type="line"/>
      <point x="332.8" y="198.0" type="line"/>
      <point x="443.8" y="198.0" type="line"/>
      <point x="443.8" y="274.0" type="line"/>
      <point x="348.8" y="274.0" type="line"/>
      <point x="380.8" y="444.0" type="line"/>
      <point x="475.8" y="444.0" type="line"/>
      <point x="475.8" y="522.0" type="line"/>
      <point x="394.8" y="522.0" type="line"/>
      <point x="431.8" y="714.0" type="line"/>
      <point x="352.8" y="714.0" type="line"/>
      <point x="315.8" y="522.0" type="line"/>
      <point x="241.8" y="522.0" type="line"/>
      <point x="276.8" y="714.0" type="line"/>
      <point x="196.8" y="714.0" type="line"/>
      <point x="162.8" y="522.0" type="line"/>
      <point x="50.8" y="522.0" type="line"/>
      <point x="50.8" y="444.0" type="line"/>
      <point x="147.8" y="444.0" type="line"/>
      <point x="114.8" y="274.0" type="line"/>
      <point x="18.799999999999997" y="274.0" type="line"/>
      <point x="18.799999999999997" y="198.0" type="line"/>
      <point x="100.8" y="198.0" type="line"/>
    </contour>
    <contour>
      <point x="193.8" y="274.0" type="line"/>
      <point x="227.8" y="444.0" type="line"/>
      <point x="302.8" y="444.0" type="line"/>
      <point x="269.8" y="274.0" type="line"/>
    </contour>
  </outline>
</glyph>
<glyph name="percent" format="2">
  <advance width="806.6"/>
  <unicode hex="0025"/>
  <outline>
    <contour>
      <point x="216.0" y="0.0" type="line"/>
      <point x="292.5" y="0.0" type="line"/>
      <point x="588.3" y="714.0" type="line"/>
      <point x="512.1" y="714.0" type="line"/>
    </contour>
    <contour>
      <point x="192.1" y="280.0" type="curve" smooth="yes"/>
      <point x="307.09999999999997" y="280.0"/>
      <point x="362.4" y="369.0"/>
      <point x="362.4" y="503.0" type="curve"/>
      <point x="362.4" y="637.0"/>
      <point x="307.09999999999997" y="724.0"/>
      <point x="193.1" y="724.0" type="curve" smooth="yes"/>
      <point x="72.19999999999999" y="724.0"/>
      <point x="22.5" y="637.0"/>
      <point x="22.5" y="503.0" type="curve" smooth="yes"/>
      <point x="22.5" y="369.0"/>
      <point x="72.19999999999999" y="280.0"/>
    </contour>
    <contour>
      <point x="192.8" y="333.5" type="curve" smooth="yes"/>
      <point x="152.7" y="333.5"/>
      <point x="137.8" y="395.2"/>
      <point x="137.8" y="503.0" type="curve"/>
      <point x="137.8" y="608.8"/>
      <point x="152.7" y="669.5"/>
      <point x="193.1" y="669.5" type="curve" smooth="yes"/>
      <point x="233.2" y="669.5"/>
      <point x="246.1" y="608.8"/>
      <point x="246.1" y="503.0" type="curve" smooth="yes"/>
      <point x="246.1" y="395.2"/>
      <point x="233.2" y="333.5"/>
    </contour>
    <contour>
      <point x="614.8" y="-10.0" type="curve" smooth="yes"/>
      <point x="729.1" y="-10.0"/>
      <point x="784.4" y="79.0"/>
      <point x="784.4" y="213.0" type="curve" smooth="yes"/>
      <point x="784.4" y="347.0"/>
      <point x="729.1" y="434.0"/>
      <point x="615.8" y="434.0" type="curve" smooth="yes"/>
      <point x="494.90000000000003" y="434.0"/>
      <point x="445.20000000000005" y="347.0"/>
      <point x="445.20000000000005" y="213.0" type="curve" smooth="yes"/>
      <point x="445.20000000000005" y="79.0"/>
      <point x="494.90000000000003" y="-10.0"/>
    </contour>
    <contour>
      <point x="614.8" y="43.5" type="curve" smooth="yes"/>
      <point x="575.4" y="43.5"/>
      <point x="560.5" y="105.2"/>
      <point x="560.5" y="213.0" type="curve" smooth="yes"/>
      <point x="560.5" y="318.8"/>
      <point x="575.4" y="379.5"/>
      <point x="615.8000000000001" y="379.5" type="curve" smooth="yes"/>
      <point x="655.2" y="379.5"/>
      <point x="668.8000000000001" y="318.8"/>
      <point x="668.8000000000001" y="213.0" type="curve" smooth="yes"/>
      <point x="668.8000000000001" y="105.2"/>
      <point x="655.2" y="43.5"/>
    </contour>
  </outline>
</glyph>
<glyph name="quotesingle" format="2">
  <advance width="302.8"/>
  <unicode hex="0027"/>
  <outline>
    <contour>
      <point x="115.3" y="423.3" type="line"/>
      <point x="186.5" y="423.3" type="line"/>
      <point x="236.20000000000002" y="714.0" type="line"/>
      <point x="65.6" y="714.0" type="line"/>
    </contour>
  </outline>
</glyph>
<glyph name="parenleft" format="2">
  <advance width="388.90000000000003"/>
  <unicode hex="0028"/>
  <outline>
    <contour>
      <point x="361.09999999999997" y="-143.5" type="curve"/>
      <point x="361.09999999999997" y="-72.10000000000001" type="line"/>
      <point x="259.4" y="8.9"/>
      <point x="229.9" y="159.3"/>
      <point x="229.9" y="318.3" type="curve" smooth="yes"/>
      <point x="229.9" y="476.0"/>
      <point x="259.4" y="624.4"/>
      <point x="361.09999999999997" y="707.1" type="curve"/>
      <point x="361.09999999999997" y="776.8000000000001" type="line"/>
      <point x="137.79999999999998" y="681.4000000000001"/>
      <point x="50.0" y="522.7"/>
      <point x="50.0" y="318.3" type="curve" smooth="yes"/>
      <point x="50.0" y="112.60000000000001"/>
      <point x="137.79999999999998" y="-47.4"/>
    </contour>
  </outline>
</glyph>
<glyph name="parenright" format="2">
  <advance width="388.90000000000003"/>
  <unicode hex="0029"/>
  <outline>
    <contour>
      <point x="27.8" y="-143.5" type="line"/>
      <point x="251.10000000000002" y="-47.4"/>
      <point x="338.9" y="112.60000000000001"/>
      <point x="338.9" y="318.3" type="curve" smooth="yes"/>
      <point x="338.9" y="522.7"/>
      <point x="251.10000000000002" y="681.4000000000001"/>
      <point x="27.8" y="776.8000000000001" type="curve"/>
      <point x="27.8" y="707.1" type="line"/>
      <point x="128.5" y="624.4"/>
      <point x="159.0" y="476.0"/>
      <point x="159.0" y="318.3" type="curve" smooth="yes"/>
      <point x="159.0" y="159.3"/>
      <point x="128.5" y="8.9"/>
      <point x="27.8" y="-72.10000000000001" type="curve"/>
    </contour>
  </outline>
</glyph>
<glyph name="asterisk" format="2">
  <advance width="444.2"/>
  <unicode hex="002A"/>
  <outline>
    <contour>
      <point x="168.60000000000002" y="361.8" type="line"/>
      <point x="281.90000000000003" y="361.8" type="line"/>
      <point x="246.1" y="526.8" type="line"/>
      <point x="375.3" y="418.3" type="line"/>
      <point x="422.0" y="524.9000000000001" type="line"/>
      <point x="292.5" y="561.4" type="line"/>
      <point x="422.0" y="596.9" type="line"/>
      <point x="375.3" y="704.5" type="line"/>
      <point x="246.1" y="596.3" type="line"/>
      <point x="283.20000000000005" y="760.0" type="line"/>
      <point x="168.60000000000002" y="760.0" type="line"/>
      <point x="202.4" y="594.0" type="line"/>
      <point x="73.2" y="706.5" type="line"/>
      <point x="27.5" y="597.9" type="line"/>
      <point x="157.0" y="561.4" type="line"/>
      <point x="27.5" y="523.9000000000001" type="line"/>
      <point x="73.2" y="417.3" type="line"/>
      <point x="201.4" y="528.8" type="line"/>
    </contour>
  </outline>
</glyph>
<glyph name="plus" format="2">
  <advance width="465.2"/>
  <unicode hex="002B"/>
  <outline>
    <contour>
      <point x="193.5" y="143.0" type="line"/>
      <point x="271.4" y="143.0" type="line"/>
      <point x="271.4" y="320.09999999999997" type="line"/>
      <point x="421.90000000000003" y="320.09999999999997" type="line"/>
      <point x="421.90000000000003" y="394.90000000000003" type="line"/>
      <point x="271.4" y="394.90000000000003" type="line"/>
      <point x="271.4" y="572.0" type="line"/>
      <point x="193.5" y="572.0" type="line"/>
      <point x="193.5" y="394.90000000000003" type="line"/>
      <point x="43.300000000000004" y="394.90000000000003" type="line"/>
      <point x="43.300000000000004" y="320.09999999999997" type="line"/>
      <point x="193.5" y="320.09999999999997" type="line"/>
    </contour>
  </outline>
</glyph>
<glyph name="comma" format="2">
  <advance width="288.9"/>
  <unicode hex="002C"/>
  <outline>
    <contour>
      <point x="49.7" y="-154.0" type="line"/>
      <point x="171.6" y="-119.69999999999999"/>
      <point x="217.3" y="-44.4"/>
      <point x="217.3" y="39.2" type="curve" smooth="yes"/>
      <point x="217.3" y="112.7"/>
      <point x="190.8" y="159.9"/>
      <point x="132.20000000000002" y="159.9" type="curve" smooth="yes"/>
      <point x="92.39999999999999" y="159.9"/>
      <point x="58.300000000000004" y="134.60000000000002"/>
      <point x="58.300000000000004" y="88.1" type="curve" smooth="yes"/>
      <point x="58.300000000000004" y="1.0999999999999999"/>
      <point x="122.89999999999999" y="11.0"/>
      <point x="122.89999999999999" y="-25.0" type="curve" smooth="yes"/>
      <point x="122.89999999999999" y="-61.0"/>
      <point x="96.4" y="-78.2"/>
      <point x="49.7" y="-98.5" type="curve"/>
    </contour>
  </outline>
</glyph>
<glyph name="hyphen" format="2">
  <advance width="274.3"/>
  <unicode hex="002D"/>
  <outline>
    <contour>
      <point x="22.2" y="213.89999999999998" type="line"/>
      <point x="252.1" y="213.89999999999998" type="line"/>
      <point x="252.1" y="331.1" type="line"/>
      <point x="22.2" y="331.1" type="line"/>
    </contour>
  </outline>
</glyph>
<glyph name="period" format="2">
  <advance width="288.9"/>
  <unicode hex="002E"/>
  <outline>
    <contour>
      <point x="144.10000000000002" y="-8.3" type="curve" smooth="yes"/>
      <point x="189.5" y="-8.3"/>
      <point x="229.6" y="12.299999999999999"/>
      <point x="229.6" y="75.8" type="curve" smooth="yes"/>
      <point x="229.6" y="139.60000000000002"/>
      <point x="189.5" y="159.9"/>
      <point x="144.10000000000002" y="159.9" type="curve" smooth="yes"/>
      <point x="96.4" y="159.9"/>
      <point x="59.3" y="139.60000000000002"/>
      <point x="59.3" y="75.8" type="curve" smooth="yes"/>
      <point x="59.3" y="12.299999999999999"/>
      <point x="96.4" y="-8.3"/>
    </contour>
  </outline>
</glyph>
<glyph name="slash" format="2">
  <advance width="254.4"/>
  <unicode hex="002F"/>
  <outline>
    <contour>
      <point x="0.0" y="-121.0" type="line"/>
      <point x="72.9" y="-121.0" type="line"/>
      <point x="254.4" y="760.0" type="line"/>
      <point x="184.5" y="760.0" type="line"/>
    </contour>
  </outline>
</glyph>
<glyph name="zero" format="2">
  <advance width="493.90000000000003"/>
  <unicode hex="0030"/>
  <outline>
    <contour>
      <point x="247.1" y="-10.0" type="curve" smooth="yes"/>
      <point x="412.4" y="-10.0"/>
      <point x="470.7" y="134.9"/>
      <point x="470.7" y="358.0" type="curve" smooth="yes"/>
      <point x="470.7" y="582.8"/>
      <point x="412.40000000000003" y="724.0"/>
      <point x="248.1" y="724.0" type="curve" smooth="yes"/>
      <point x="74.2" y="724.0"/>
      <point x="22.5" y="581.4"/>
      <point x="22.5" y="359.0" type="curve" smooth="yes"/>
      <point x="22.5" y="134.2"/>
      <point x="74.19999999999999" y="-10.0"/>
    </contour>
    <contour>
      <point x="247.1" y="58.800000000000004" type="curve" smooth="yes"/>
      <point x="196.10000000000002" y="58.800000000000004"/>
      <point x="192.8" y="169.20000000000002"/>
      <point x="192.8" y="358.0" type="curve" smooth="yes"/>
      <point x="192.8" y="546.8000000000001"/>
      <point x="196.10000000000002" y="655.1999999999999"/>
      <point x="248.1" y="655.1999999999999" type="curve" smooth="yes"/>
      <point x="297.1" y="655.1999999999999"/>
      <point x="300.1" y="546.8000000000001"/>
      <point x="300.1" y="358.0" type="curve" smooth="yes"/>
      <point x="300.1" y="169.20000000000002"/>
      <point x="297.1" y="58.800000000000004"/>
    </contour>
  </outline>
</glyph>
<glyph name="one" format="2">
  <advance width="493.90000000000003"/>
  <unicode hex="0031"/>
  <outline>
    <contour>
      <point x="67.89999999999999" y="0.0" type="line"/>
      <point x="463.1" y="0.0" type="line"/>
      <point x="463.1" y="57.5" type="line"/>
      <point x="403.5" y="57.5" type="line" smooth="yes"/>
      <point x="369.40000000000003" y="57.5"/>
      <point x="354.8" y="84.2"/>
      <point x="354.8" y="119.6" type="curve" smooth="yes"/>
      <point x="354.8" y="718.0" type="line"/>
      <point x="223.9" y="718.0" type="line"/>
      <point x="162.29999999999998" y="668.8000000000001" type="line" smooth="yes"/>
      <point x="102.60000000000001" y="621.2"/>
      <point x="56.3" y="603.9"/>
      <point x="21.200000000000003" y="593.9" type="curve"/>
      <point x="21.200000000000003" y="543.1"/>
      <point x="47.00000000000001" y="511.9"/>
      <point x="77.5" y="511.9" type="curve" smooth="yes"/>
      <point x="113.3" y="511.9"/>
      <point x="148.5" y="546.2"/>
      <point x="191.8" y="605.4000000000001" type="curve"/>
      <point x="191.8" y="119.6" type="line" smooth="yes"/>
      <point x="191.8" y="73.30000000000001"/>
      <point x="171.2" y="57.5"/>
      <point x="143.4" y="57.5" type="curve" smooth="yes"/>
      <point x="67.89999999999999" y="57.5" type="line"/>
    </contour>
  </outline>
</glyph>
<glyph name="two" format="2">
  <advance width="493.90000000000003"/>
  <unicode hex="0032"/>
  <outline>
    <contour>
      <point x="23.500000000000004" y="0.0" type="line"/>
      <point x="466.40000000000003" y="0.0" type="line"/>
      <point x="470.7" y="225.1" type="line"/>
      <point x="407.1" y="225.1" type="line"/>
      <point x="397.5" y="188.6" type="line" smooth="yes"/>
      <point x="385.2" y="141.0"/>
      <point x="348.8" y="122.2"/>
      <point x="325.29999999999995" y="122.2" type="curve" smooth="yes"/>
      <point x="135.8" y="122.2" type="line"/>
      <point x="224.4" y="208.0" type="line" smooth="yes"/>
      <point x="385.5" y="351.70000000000005"/>
      <point x="449.2" y="439.9"/>
      <point x="449.2" y="549.6999999999999" type="curve" smooth="yes"/>
      <point x="449.2" y="653.6999999999999"/>
      <point x="376.29999999999995" y="724.0"/>
      <point x="229.2" y="724.0" type="curve" smooth="yes"/>
      <point x="89.1" y="724.0"/>
      <point x="23.5" y="649.5"/>
      <point x="23.5" y="580.5" type="curve" smooth="yes"/>
      <point x="23.5" y="503.09999999999997"/>
      <point x="87.80000000000001" y="483.5"/>
      <point x="157.70000000000002" y="483.5" type="curve"/>
      <point x="157.70000000000002" y="611.6"/>
      <point x="184.5" y="658.5"/>
      <point x="229.2" y="658.5" type="curve" smooth="yes"/>
      <point x="257.4" y="658.5"/>
      <point x="282.90000000000003" y="631.6"/>
      <point x="282.90000000000003" y="549.3000000000001" type="curve" smooth="yes"/>
      <point x="282.90000000000003" y="447.40000000000003"/>
      <point x="251.9" y="370.7"/>
      <point x="138.1" y="239.4" type="curve" smooth="yes"/>
      <point x="23.500000000000004" y="106.6" type="line"/>
    </contour>
  </outline>
</glyph>
<glyph name="three" format="2">
  <advance width="493.90000000000003"/>
  <unicode hex="0033"/>
  <outline>
    <contour>
      <point x="214.29999999999998" y="-10.0" type="curve" smooth="yes"/>
      <point x="351.8" y="-10.0"/>
      <point x="469.7" y="43.0"/>
      <point x="469.7" y="204.9" type="curve" smooth="yes"/>
      <point x="469.7" y="312.09999999999997"/>
      <point x="392.20000000000005" y="362.4"/>
      <point x="317.0" y="380.29999999999995" type="curve"/>
      <point x="390.2" y="412.2"/>
      <point x="447.5" y="468.0"/>
      <point x="447.5" y="558.0" type="curve" smooth="yes"/>
      <point x="447.5" y="664.0"/>
      <point x="365.7" y="724.0"/>
      <point x="229.2" y="724.0" type="curve" smooth="yes"/>
      <point x="90.1" y="724.0"/>
      <point x="25.5" y="656.4"/>
      <point x="25.5" y="588.7" type="curve" smooth="yes"/>
      <point x="25.5" y="524.9"/>
      <point x="75.5" y="501.29999999999995"/>
      <point x="151.70000000000002" y="501.29999999999995" type="curve"/>
      <point x="151.70000000000002" y="580.0"/>
      <point x="170.89999999999998" y="658.5"/>
      <point x="221.9" y="658.5" type="curve" smooth="yes"/>
      <point x="255.39999999999998" y="658.5"/>
      <point x="279.90000000000003" y="614.8000000000001"/>
      <point x="279.90000000000003" y="545.7" type="curve" smooth="yes"/>
      <point x="279.90000000000003" y="460.6"/>
      <point x="262.0" y="402.6"/>
      <point x="186.79999999999998" y="402.6" type="curve"/>
      <point x="115.6" y="402.6" type="line"/>
      <point x="115.6" y="336.8" type="line"/>
      <point x="181.2" y="336.8" type="line" smooth="yes"/>
      <point x="261.0" y="336.8"/>
      <point x="301.1" y="281.09999999999997"/>
      <point x="301.1" y="205.9" type="curve" smooth="yes"/>
      <point x="301.1" y="94.9"/>
      <point x="257.7" y="66.39999999999999"/>
      <point x="209.0" y="66.39999999999999" type="curve" smooth="yes"/>
      <point x="150.4" y="66.39999999999999"/>
      <point x="103.7" y="114.8"/>
      <point x="103.7" y="205.9" type="curve"/>
      <point x="57.3" y="205.9"/>
      <point x="13.9" y="178.3"/>
      <point x="13.9" y="122.8" type="curve" smooth="yes"/>
      <point x="13.9" y="46.599999999999994"/>
      <point x="68.2" y="-10.0"/>
    </contour>
  </outline>
</glyph>
<glyph name="four" format="2">
  <advance width="493.90000000000003"/>
  <unicode hex="0034"/>
  <outline>
    <contour>
      <point x="135.8" y="0.0" type="line"/>
      <point x="479.0" y="0.0" type="line"/>
      <point x="479.0" y="57.5" type="line"/>
      <point x="467.40000000000003" y="57.5" type="line" smooth="yes"/>
      <point x="428.0" y="57.5"/>
      <point x="395.2" y="66.5"/>
      <point x="395.2" y="129.5" type="curve" smooth="yes"/>
      <point x="395.2" y="182.5" type="line"/>
      <point x="473.7" y="182.5" type="line"/>
      <point x="473.7" y="252.0" type="line"/>
      <point x="395.2" y="252.0" type="line"/>
      <point x="395.2" y="714.0" type="line"/>
      <point x="239.60000000000002" y="714.0" type="line"/>
      <point x="9.3" y="250.5" type="line"/>
      <point x="9.3" y="182.5" type="line"/>
      <point x="233.2" y="182.5" type="line"/>
      <point x="233.2" y="129.5" type="line" smooth="yes"/>
      <point x="233.2" y="66.5"/>
      <point x="200.39999999999998" y="57.5"/>
      <point x="161.0" y="57.5" type="curve" smooth="yes"/>
      <point x="135.8" y="57.5" type="line"/>
    </contour>
    <contour>
      <point x="82.5" y="252.0" type="line"/>
      <point x="178.4" y="453.0" type="line" smooth="yes"/>
      <point x="195.79999999999998" y="491.70000000000005"/>
      <point x="224.0" y="557.1999999999999"/>
      <point x="239.8" y="602.4" type="curve"/>
      <point x="234.79999999999998" y="540.4"/>
      <point x="233.5" y="488.5"/>
      <point x="233.5" y="430.5" type="curve" smooth="yes"/>
      <point x="233.5" y="252.0" type="line"/>
    </contour>
  </outline>
</glyph>
<glyph name="five" format="2">
  <advance width="493.90000000000003"/>
  <unicode hex="0035"/>
  <outline>
    <contour>
      <point x="217.3" y="-10.0" type="curve" smooth="yes"/>
      <point x="303.1" y="-10.0"/>
      <point x="460.09999999999997" y="32.2"/>
      <point x="460.09999999999997" y="220.3" type="curve" smooth="yes"/>
      <point x="460.09999999999997" y="364.6"/>
      <point x="369.0" y="436.6"/>
      <point x="215.29999999999998" y="436.6" type="curve" smooth="yes"/>
      <point x="190.79999999999998" y="436.6"/>
      <point x="142.10000000000002" y="429.9"/>
      <point x="122.89999999999999" y="420.90000000000003" type="curve"/>
      <point x="137.6" y="592.8000000000001" type="line"/>
      <point x="327.59999999999997" y="592.8000000000001" type="line" smooth="yes"/>
      <point x="349.79999999999995" y="592.8000000000001"/>
      <point x="355.6" y="578.8"/>
      <point x="363.0" y="554.0" type="curve" smooth="yes"/>
      <point x="373.0" y="519.8000000000001" type="line"/>
      <point x="433.59999999999997" y="519.8000000000001" type="line"/>
      <point x="429.3" y="714.3" type="line"/>
      <point x="82.6" y="714.3" type="line"/>
      <point x="51.300000000000004" y="372.2" type="line"/>
      <point x="92.4" y="349.7" type="line"/>
      <point x="122.9" y="357.4"/>
      <point x="149.70000000000002" y="366.8"/>
      <point x="182.5" y="366.8" type="curve" smooth="yes"/>
      <point x="254.7" y="366.8"/>
      <point x="292.8" y="318.7"/>
      <point x="292.8" y="220.3" type="curve" smooth="yes"/>
      <point x="292.8" y="98.2"/>
      <point x="245.10000000000002" y="63.1"/>
      <point x="197.1" y="63.1" type="curve" smooth="yes"/>
      <point x="124.9" y="63.1"/>
      <point x="107.3" y="135.9"/>
      <point x="107.3" y="193.6" type="curve"/>
      <point x="61.6" y="193.6"/>
      <point x="25.5" y="169.6"/>
      <point x="25.5" y="120.39999999999999" type="curve" smooth="yes"/>
      <point x="25.5" y="51.0"/>
      <point x="82.8" y="-10.0"/>
    </contour>
  </outline>
</glyph>
<glyph name="six" format="2">
  <advance width="493.90000000000003"/>
  <unicode hex="0036"/>
  <outline>
    <contour>
      <point x="258.7" y="-10.0" type="curve" smooth="yes"/>
      <point x="403.8" y="-10.0"/>
      <point x="473.7" y="88.0"/>
      <point x="473.7" y="231.3" type="curve" smooth="yes"/>
      <point x="473.7" y="362.6"/>
      <point x="403.8" y="439.6"/>
      <point x="296.79999999999995" y="439.6" type="curve" smooth="yes"/>
      <point x="235.20000000000002" y="439.6"/>
      <point x="207.89999999999998" y="420.59999999999997"/>
      <point x="184.5" y="405.2" type="curve"/>
      <point x="192.79999999999998" y="564.6"/>
      <point x="220.29999999999998" y="660.5"/>
      <point x="275.59999999999997" y="660.5" type="curve" smooth="yes"/>
      <point x="315.0" y="660.5"/>
      <point x="335.9" y="599.0"/>
      <point x="335.9" y="526.7" type="curve"/>
      <point x="425.0" y="526.7"/>
      <point x="455.8" y="564.5"/>
      <point x="455.8" y="611.4" type="curve" smooth="yes"/>
      <point x="455.8" y="670.7"/>
      <point x="406.8" y="724.0"/>
      <point x="280.90000000000003" y="724.0" type="curve" smooth="yes"/>
      <point x="113.6" y="724.0"/>
      <point x="28.8" y="580.4"/>
      <point x="28.8" y="331.1" type="curve" smooth="yes"/>
      <point x="28.8" y="97.0"/>
      <point x="118.6" y="-10.0"/>
    </contour>
    <contour>
      <point x="261.7" y="59.8" type="curve" smooth="yes"/>
      <point x="220.3" y="59.8"/>
      <point x="186.2" y="150.2"/>
      <point x="185.5" y="337.59999999999997" type="curve"/>
      <point x="202.20000000000002" y="353.0"/>
      <point x="225.2" y="370.79999999999995"/>
      <point x="253.4" y="370.79999999999995" type="curve" smooth="yes"/>
      <point x="290.5" y="370.79999999999995"/>
      <point x="317.0" y="327.4"/>
      <point x="317.0" y="221.3" type="curve" smooth="yes"/>
      <point x="317.0" y="109.2"/>
      <point x="293.5" y="59.8"/>
    </contour>
  </outline>
</glyph>
<glyph name="seven" format="2">
  <advance width="493.90000000000003"/>
  <unicode hex="0037"/>
  <outline>
    <contour>
      <point x="124.9" y="0.0" type="line"/>
      <point x="223.6" y="0.0" type="line"/>
      <point x="460.79999999999995" y="657.3" type="line"/>
      <point x="460.79999999999995" y="714.3" type="line"/>
      <point x="41.099999999999994" y="714.3" type="line"/>
      <point x="36.099999999999994" y="492.1" type="line"/>
      <point x="100.7" y="492.1" type="line"/>
      <point x="108.0" y="541.4" type="line" smooth="yes"/>
      <point x="113.0" y="575.8"/>
      <point x="127.2" y="593.1"/>
      <point x="159.0" y="593.1" type="curve" smooth="yes"/>
      <point x="370.0" y="593.1" type="line"/>
    </contour>
  </outline>
</glyph>
<glyph name="eight" format="2">
  <advance width="493.90000000000003"/>
  <unicode hex="0038"/>
  <outline>
    <contour>
      <point x="241.5" y="-10.0" type="curve" smooth="yes"/>
      <point x="393.2" y="-10.0"/>
      <point x="478.0" y="69.9"/>
      <point x="478.0" y="185.9" type="curve" smooth="yes"/>
      <point x="478.0" y="284.0"/>
      <point x="440.9" y="335.0"/>
      <point x="338.90000000000003" y="391.2" type="curve"/>
      <point x="412.4" y="427.2"/>
      <point x="455.8" y="472.59999999999997"/>
      <point x="455.8" y="560.3000000000001" type="curve" smooth="yes"/>
      <point x="455.8" y="650.4"/>
      <point x="388.90000000000003" y="724.0"/>
      <point x="253.4" y="724.0" type="curve" smooth="yes"/>
      <point x="96.7" y="724.0"/>
      <point x="36.1" y="641.6999999999999"/>
      <point x="36.1" y="541.4" type="curve" smooth="yes"/>
      <point x="36.1" y="451.40000000000003"/>
      <point x="80.8" y="402.40000000000003"/>
      <point x="150.70000000000002" y="360.4" type="curve"/>
      <point x="74.19999999999999" y="329.7"/>
      <point x="15.9" y="278.3"/>
      <point x="15.9" y="174.0" type="curve" smooth="yes"/>
      <point x="15.9" y="75.60000000000001"/>
      <point x="81.80000000000001" y="-10.0"/>
    </contour>
    <contour>
      <point x="245.8" y="53.5" type="curve" smooth="yes"/>
      <point x="199.1" y="53.5"/>
      <point x="160.0" y="94.60000000000001"/>
      <point x="160.0" y="183.6" type="curve" smooth="yes"/>
      <point x="160.0" y="247.7"/>
      <point x="177.89999999999998" y="291.5"/>
      <point x="207.7" y="322.2" type="curve"/>
      <point x="275.9" y="279.40000000000003"/>
      <point x="317.29999999999995" y="230.4"/>
      <point x="317.29999999999995" y="166.0" type="curve" smooth="yes"/>
      <point x="317.29999999999995" y="93.89999999999999"/>
      <point x="288.2" y="53.5"/>
    </contour>
    <contour>
      <point x="273.6" y="425.1" type="curve"/>
      <point x="224.6" y="452.9"/>
      <point x="191.79999999999998" y="492.2"/>
      <point x="191.79999999999998" y="561.3000000000001" type="curve" smooth="yes"/>
      <point x="191.79999999999998" y="623.4"/>
      <point x="211.70000000000002" y="660.8000000000001"/>
      <point x="250.4" y="660.8000000000001" type="curve" smooth="yes"/>
      <point x="290.5" y="660.8000000000001"/>
      <point x="315.0" y="615.7"/>
      <point x="315.0" y="556.0" type="curve" smooth="yes"/>
      <point x="315.0" y="486.0"/>
      <point x="295.8" y="447.9"/>
    </contour>
  </outline>
</glyph>
<glyph name="nine" format="2">
  <advance width="493.90000000000003"/>
  <unicode hex="0039"/>
  <outline>
    <contour>
      <point x="200.4" y="-9.7" type="curve"/>
      <point x="388.90000000000003" y="-9.7"/>
      <point x="465.1" y="159.6"/>
      <point x="465.1" y="388.0" type="curve"/>
      <point x="465.1" y="630.0"/>
      <point x="366.7" y="724.0"/>
      <point x="232.20000000000002" y="724.0" type="curve" smooth="yes"/>
      <point x="99.7" y="724.0"/>
      <point x="20.200000000000003" y="628.3"/>
      <point x="20.200000000000003" y="485.0" type="curve" smooth="yes"/>
      <point x="20.200000000000003" y="350.7"/>
      <point x="92.1" y="276.4"/>
      <point x="192.1" y="276.4" type="curve" smooth="yes"/>
      <point x="253.4" y="276.4"/>
      <point x="286.2" y="299.6"/>
      <point x="315.0" y="337.40000000000003" type="curve"/>
      <point x="308.7" y="154.5"/>
      <point x="272.6" y="57.199999999999996"/>
      <point x="207.70000000000002" y="57.199999999999996" type="curve" smooth="yes"/>
      <point x="145.4" y="57.199999999999996"/>
      <point x="123.9" y="113.0"/>
      <point x="106.0" y="180.4" type="curve"/>
      <point x="59.599999999999994" y="172.39999999999998"/>
      <point x="43.4" y="137.9"/>
      <point x="43.4" y="107.3" type="curve" smooth="yes"/>
      <point x="43.4" y="44.199999999999996"/>
      <point x="88.1" y="-9.7"/>
    </contour>
    <contour>
      <point x="244.8" y="352.09999999999997" type="curve" smooth="yes"/>
      <point x="200.1" y="352.1"/>
      <point x="175.89999999999998" y="404.8"/>
      <point x="175.89999999999998" y="488.0" type="curve" smooth="yes"/>
      <point x="175.89999999999998" y="598.1"/>
      <point x="200.10000000000002" y="652.9"/>
      <point x="241.79999999999998" y="652.9" type="curve" smooth="yes"/>
      <point x="287.5" y="652.9"/>
      <point x="313.7" y="586.1"/>
      <point x="314.7" y="403.90000000000003" type="curve"/>
      <point x="294.8" y="370.8"/>
      <point x="270.3" y="352.1"/>
    </contour>
  </outline>
</glyph>
<glyph name="colon" format="2">
  <advance width="280.6"/>
  <unicode hex="003A"/>
  <outline>
    <contour>
      <point x="139.79999999999998" y="377.0" type="curve" smooth="yes"/>
      <point x="184.5" y="377.0"/>
      <point x="224.60000000000002" y="397.59999999999997"/>
      <point x="224.60000000000002" y="461.09999999999997" type="curve" smooth="yes"/>
      <point x="224.60000000000002" y="524.9"/>
      <point x="184.5" y="545.2"/>
      <point x="139.79999999999998" y="545.2" type="curve" smooth="yes"/>
      <point x="92.10000000000001" y="545.2"/>
      <point x="55.0" y="524.9"/>
      <point x="55.0" y="461.09999999999997" type="curve" smooth="yes"/>
      <point x="55.0" y="397.59999999999997"/>
      <point x="92.10000000000001" y="377.0"/>
    </contour>
    <contour>
      <point x="139.79999999999998" y="-8.3" type="curve" smooth="yes"/>
      <point x="184.5" y="-8.3"/>
      <point x="224.60000000000002" y="12.299999999999999"/>
      <point x="224.60000000000002" y="75.8" type="curve" smooth="yes"/>
      <point x="224.60000000000002" y="139.60000000000002"/>
      <point x="184.5" y="159.9"/>
      <point x="139.79999999999998" y="159.9" type="curve" smooth="yes"/>
      <point x="92.10000000000001" y="159.9"/>
      <point x="55.0" y="139.60000000000002"/>
      <point x="55.0" y="75.8" type="curve" smooth="yes"/>
      <point x="55.0" y="12.299999999999999"/>
      <point x="92.10000000000001" y="-8.3"/>
    </contour>
  </outline>
</glyph>
<glyph name="semicolon" format="2">
  <advance width="280.6"/>
  <unicode hex="003B"/>
  <outline>
    <contour>
      <point x="51.0" y="-154.0" type="line"/>
      <point x="173.6" y="-119.69999999999999"/>
      <point x="219.3" y="-44.4"/>
      <point x="219.3" y="39.2" type="curve" smooth="yes"/>
      <point x="219.3" y="112.7"/>
      <point x="192.8" y="159.9"/>
      <point x="133.5" y="159.9" type="curve" smooth="yes"/>
      <point x="94.39999999999999" y="159.9"/>
      <point x="60.300000000000004" y="134.60000000000002"/>
      <point x="60.300000000000004" y="88.1" type="curve" smooth="yes"/>
      <point x="60.300000000000004" y="1.0999999999999999"/>
      <point x="124.9" y="11.0"/>
      <point x="124.9" y="-25.0" type="curve" smooth="yes"/>
      <point x="124.9" y="-63.0"/>
      <point x="98.39999999999999" y="-78.2"/>
      <point x="51.0" y="-98.5" type="curve"/>
    </contour>
    <contour>
      <point x="139.79999999999998" y="377.0" type="curve" smooth="yes"/>
      <point x="185.2" y="377.0"/>
      <point x="224.60000000000002" y="397.59999999999997"/>
      <point x="224.60000000000002" y="461.09999999999997" type="curve" smooth="yes"/>
      <point x="224.60000000000002" y="524.9"/>
      <point x="185.2" y="545.2"/>
      <point x="139.79999999999998" y="545.2" type="curve" smooth="yes"/>
      <point x="92.10000000000001" y="545.2"/>
      <point x="55.0" y="524.9"/>
      <point x="55.0" y="461.09999999999997" type="curve" smooth="yes"/>
      <point x="55.0" y="397.59999999999997"/>
      <point x="92.10000000000001" y="377.0"/>
    </contour>
  </outline>
</glyph>
<glyph name="less" format="2">
  <advance width="465.2"/>
  <unicode hex="003C"/>
  <outline>
    <contour>
      <point x="421.90000000000003" y="102.10000000000001" type="line"/>
      <point x="421.90000000000003" y="186.3" type="line"/>
      <point x="146.29999999999998" y="357.0" type="line"/>
      <point x="421.90000000000003" y="529.7" type="line"/>
      <point x="421.90000000000003" y="613.9" type="line"/>
      <point x="43.300000000000004" y="379.3" type="line"/>
      <point x="43.300000000000004" y="335.7" type="line"/>
    </contour>
  </outline>
</glyph>
<glyph name="equal" format="2">
  <advance width="465.2"/>
  <unicode hex="003D"/>
  <outline>
    <contour>
      <point x="40.300000000000004" y="409.79999999999995" type="line"/>
      <point x="425.20000000000005" y="409.79999999999995" type="line"/>
      <point x="425.20000000000005" y="484.3" type="line"/>
      <point x="40.300000000000004" y="484.3" type="line"/>
    </contour>
    <contour>
      <point x="40.300000000000004" y="229.70000000000002" type="line"/>
      <point x="425.20000000000005" y="229.70000000000002" type="line"/>
      <point x="425.20000000000005" y="304.20000000000005" type="line"/>
      <point x="40.300000000000004" y="304.20000000000005" type="line"/>
    </contour>
  </outline>
</glyph>
<glyph name="greater" format="2">
  <advance width="465.2"/>
  <unicode hex="003E"/>
  <outline>
    <contour>
      <point x="43.300000000000004" y="102.10000000000001" type="line"/>
      <point x="421.90000000000003" y="335.7" type="line"/>
      <point x="421.90000000000003" y="379.3" type="line"/>
      <point x="43.300000000000004" y="613.9" type="line"/>
      <point x="43.300000000000004" y="529.7" type="line"/>
      <point x="318.2" y="357.0" type="line"/>
      <point x="43.300000000000004" y="186.3" type="line"/>
    </contour>
  </outline>
</glyph>
<glyph name="question" format="2">
  <advance width="519.1"/>
  <unicode hex="003F"/>
  <outline>
    <contour>
      <point x="204.4" y="233.1" type="line"/>
      <point x="258.4" y="233.1" type="line"/>
      <point x="289.2" y="323.0" type="line"/>
      <point x="412.1" y="379.6"/>
      <point x="468.09999999999997" y="433.70000000000005"/>
      <point x="468.09999999999997" y="539.4" type="curve" smooth="yes"/>
      <point x="468.09999999999997" y="655.7"/>
      <point x="377.29999999999995" y="724.0"/>
      <point x="234.20000000000002" y="724.0" type="curve" smooth="yes"/>
      <point x="92.39999999999999" y="724.0"/>
      <point x="29.5" y="662.8000000000001"/>
      <point x="29.5" y="602.1" type="curve" smooth="yes"/>
      <point x="29.5" y="540.3"/>
      <point x="82.5" y="522.3000000000001"/>
      <point x="176.9" y="522.3000000000001" type="curve"/>
      <point x="176.9" y="610.5"/>
      <point x="197.8" y="659.5"/>
      <point x="235.2" y="659.5" type="curve" smooth="yes"/>
      <point x="269.29999999999995" y="659.5"/>
      <point x="289.5" y="614.4000000000001"/>
      <point x="289.5" y="552.3000000000001" type="curve" smooth="yes"/>
      <point x="289.5" y="472.2"/>
      <point x="273.3" y="395.0"/>
      <point x="173.6" y="349.3" type="curve"/>
    </contour>
    <contour>
      <point x="228.9" y="-8.3" type="curve" smooth="yes"/>
      <point x="274.29999999999995" y="-8.3"/>
      <point x="313.7" y="12.299999999999999"/>
      <point x="313.7" y="75.8" type="curve" smooth="yes"/>
      <point x="313.7" y="139.60000000000002"/>
      <point x="274.29999999999995" y="159.9"/>
      <point x="228.9" y="159.9" type="curve" smooth="yes"/>
      <point x="181.20000000000002" y="159.9"/>
      <point x="144.1" y="139.60000000000002"/>
      <point x="144.1" y="75.8" type="curve" smooth="yes"/>
      <point x="144.1" y="12.299999999999999"/>
      <point x="181.20000000000002" y="-8.3"/>
    </contour>
  </outline>
</glyph>
<glyph name="bracketleft" format="2">
  <advance width="401.5"/>
  <unicode hex="005B"/>
  <outline>
    <contour>
      <point x="88.1" y="-128.0" type="line"/>
      <point x="368.7" y="-128.0" type="line"/>
      <point x="368.7" y="-70.5" type="line"/>
      <point x="331.3" y="-70.5" type="line" smooth="yes"/>
      <point x="291.20000000000005" y="-70.5"/>
      <point x="258.4" y="-61.5"/>
      <point x="258.4" y="1.5" type="curve" smooth="yes"/>
      <point x="258.4" y="630.5" type="line" smooth="yes"/>
      <point x="258.4" y="693.5"/>
      <point x="291.20000000000005" y="702.5"/>
      <point x="331.3" y="702.5" type="curve" smooth="yes"/>
      <point x="368.7" y="702.5" type="line"/>
      <point x="368.7" y="760.0" type="line"/>
      <point x="88.1" y="760.0" type="line"/>
    </contour>
  </outline>
</glyph>
<glyph name="backslash" format="2">
  <advance width="254.4"/>
  <unicode hex="005C"/>
  <outline>
    <contour>
      <point x="182.2" y="-121.0" type="line"/>
      <point x="254.4" y="-121.0" type="line"/>
      <point x="71.9" y="760.0" type="line"/>
      <point x="0.0" y="760.0" type="line"/>
    </contour>
  </outline>
</glyph>
<glyph name="bracketright" format="2">
  <advance width="401.5"/>
  <unicode hex="005D"/>
  <outline>
    <contour>
      <point x="32.800000000000004" y="-128.0" type="line"/>
      <point x="313.4" y="-128.0" type="line"/>
      <point x="313.4" y="760.0" type="line"/>
      <point x="32.800000000000004" y="760.0" type="line"/>
      <point x="32.800000000000004" y="702.5" type="line"/>
      <point x="70.89999999999999" y="702.5" type="line" smooth="yes"/>
      <point x="111.0" y="702.5"/>
      <point x="143.1" y="693.5"/>
      <point x="143.1" y="630.5" type="curve" smooth="yes"/>
      <point x="143.1" y="1.5" type="line" smooth="yes"/>
      <point x="143.1" y="-61.5"/>
      <point x="111.0" y="-70.5"/>
      <point x="70.89999999999999" y="-70.5" type="curve" smooth="yes"/>
      <point x="32.800000000000004" y="-70.5" type="line"/>
    </contour>
  </outline>
</glyph>
<glyph name="asciicircum" format="2">
  <advance width="465.2"/>
  <unicode hex="005E"/>
  <outline>
    <contour>
      <point x="23.1" y="260.4" type="line"/>
      <point x="98.60000000000001" y="260.4" type="line"/>
      <point x="231.1" y="597.6" type="line"/>
      <point x="364.6" y="260.4" type="line"/>
      <point x="440.79999999999995" y="260.4" type="line"/>
      <point x="253.3" y="714.0" type="line"/>
      <point x="209.89999999999998" y="714.0" type="line"/>
    </contour>
  </outline>
</glyph>
<glyph name="underscore" format="2">
  <advance width="405.1"/>
  <unicode hex="005F"/>
  <outline>
    <contour>
      <point x="-5.0" y="-142.0" type="line"/>
      <point x="409.4" y="-142.0" type="line"/>
      <point x="409.4" y="-83.0" type="line"/>
      <point x="-5.0" y="-83.0" type="line"/>
    </contour>
  </outline>
</glyph>
<glyph name="braceleft" format="2">
  <advance width="398.8"/>
  <unicode hex="007B"/>
  <outline>
    <contour>
      <point x="282.9" y="-123.7" type="curve" smooth="yes"/>
      <point x="385.90000000000003" y="-123.7" type="line"/>
      <point x="385.90000000000003" y="-66.2" type="line"/>
      <point x="345.5" y="-66.2" type="line" smooth="yes"/>
      <point x="296.8" y="-66.2"/>
      <point x="289.5" y="-32.5"/>
      <point x="289.5" y="27.900000000000002" type="curve" smooth="yes"/>
      <point x="289.5" y="198.60000000000002" type="line" smooth="yes"/>
      <point x="289.5" y="256.7"/>
      <point x="260.7" y="292.8"/>
      <point x="193.79999999999998" y="314.7" type="curve"/>
      <point x="193.79999999999998" y="325.6" type="line"/>
      <point x="263.7" y="345.5"/>
      <point x="289.5" y="381.6"/>
      <point x="289.5" y="439.7" type="curve" smooth="yes"/>
      <point x="289.5" y="609.7" type="line" smooth="yes"/>
      <point x="289.5" y="669.8000000000001"/>
      <point x="296.8" y="703.5"/>
      <point x="345.5" y="703.5" type="curve" smooth="yes"/>
      <point x="385.90000000000003" y="703.5" type="line"/>
      <point x="385.90000000000003" y="760.0" type="line"/>
      <point x="282.9" y="760.0" type="line" smooth="yes"/>
      <point x="171.9" y="760.0"/>
      <point x="114.6" y="706.7"/>
      <point x="114.6" y="612.7" type="curve" smooth="yes"/>
      <point x="114.6" y="441.7" type="line" smooth="yes"/>
      <point x="114.6" y="369.6"/>
      <point x="69.9" y="355.5"/>
      <point x="12.899999999999999" y="353.5" type="curve"/>
      <point x="12.899999999999999" y="284.8" type="line"/>
      <point x="69.9" y="281.8"/>
      <point x="114.6" y="269.7"/>
      <point x="114.6" y="195.60000000000002" type="curve" smooth="yes"/>
      <point x="114.6" y="25.9" type="line" smooth="yes"/>
      <point x="114.6" y="-66.4"/>
      <point x="171.9" y="-123.7"/>
    </contour>
  </outline>
</glyph>
<glyph name="bar" format="2">
  <advance width="493.90000000000003"/>
  <unicode hex="007C"/>
  <outline>
    <contour>
      <point x="211.0" y="-240.0" type="line"/>
      <point x="282.9" y="-240.0" type="line"/>
      <point x="282.9" y="760.0" type="line"/>
      <point x="211.0" y="760.0" type="line"/>
    </contour>
  </outline>
</glyph>
<glyph name="braceright" format="2">
  <advance width="398.8"/>
  <unicode hex="007D"/>
  <outline>
    <contour>
      <point x="12.899999999999999" y="-123.7" type="line"/>
      <point x="115.6" y="-123.7" type="line" smooth="yes"/>
      <point x="227.6" y="-123.7"/>
      <point x="284.20000000000005" y="-66.4"/>
      <point x="284.20000000000005" y="25.9" type="curve" smooth="yes"/>
      <point x="284.20000000000005" y="195.60000000000002" type="line" smooth="yes"/>
      <point x="284.20000000000005" y="269.7"/>
      <point x="329.6" y="281.8"/>
      <point x="385.90000000000003" y="284.8" type="curve"/>
      <point x="385.90000000000003" y="353.5" type="line"/>
      <point x="329.6" y="355.5"/>
      <point x="284.20000000000005" y="369.6"/>
      <point x="284.20000000000005" y="441.7" type="curve" smooth="yes"/>
      <point x="284.20000000000005" y="612.7" type="line" smooth="yes"/>
      <point x="284.20000000000005" y="706.7"/>
      <point x="227.6" y="760.0"/>
      <point x="115.6" y="760.0" type="curve" smooth="yes"/>
      <point x="12.899999999999999" y="760.0" type="line"/>
      <point x="12.899999999999999" y="703.5" type="line"/>
      <point x="54.0" y="703.5" type="line" smooth="yes"/>
      <point x="102.0" y="703.5"/>
      <point x="109.3" y="669.8000000000001"/>
      <point x="109.3" y="609.7" type="curve" smooth="yes"/>
      <point x="109.3" y="439.7" type="line" smooth="yes"/>
      <point x="109.3" y="381.6"/>
      <point x="135.79999999999998" y="345.5"/>
      <point x="205.70000000000002" y="325.6" type="curve"/>
      <point x="205.70000000000002" y="314.7" type="line"/>
      <point x="138.1" y="292.8"/>
      <point x="109.3" y="256.7"/>
      <point x="109.3" y="198.60000000000002" type="curve" smooth="yes"/>
      <point x="109.3" y="27.900000000000002" type="line" smooth="yes"/>
      <point x="109.3" y="-32.5"/>
      <point x="102.0" y="-66.2"/>
      <point x="54.0" y="-66.2" type="curve" smooth="yes"/>
      <point x="12.899999999999999" y="-66.2" type="line"/>
    </contour>
  </outline>
</glyph>
<glyph name="asciitilde" format="2">
  <advance width="465.2"/>
  <unicode hex="007E"/>
  <outline>
    <contour>
      <point x="19.000000000000004" y="259.09999999999997" type="curve"/>
      <point x="95.0" y="259.09999999999997" type="line"/>
      <point x="95.0" y="343.7"/>
      <point x="112.5" y="375.1"/>
      <point x="143.4" y="375.1" type="curve" smooth="yes"/>
      <point x="163.2" y="375.1"/>
      <point x="174.5" y="362.6"/>
      <point x="210.4" y="324.40000000000003" type="curve" smooth="yes"/>
      <point x="261.2" y="271.2"/>
      <point x="287.2" y="259.09999999999997"/>
      <point x="324.79999999999995" y="259.09999999999997" type="curve" smooth="yes"/>
      <point x="418.7" y="259.09999999999997"/>
      <point x="445.7" y="339.79999999999995"/>
      <point x="446.6" y="453.9" type="curve"/>
      <point x="370.0" y="453.9" type="line"/>
      <point x="370.0" y="368.20000000000005"/>
      <point x="354.59999999999997" y="337.9"/>
      <point x="324.70000000000005" y="337.9" type="curve" smooth="yes"/>
      <point x="304.1" y="337.9"/>
      <point x="292.4" y="352.90000000000003"/>
      <point x="259.3" y="385.9" type="curve" smooth="yes"/>
      <point x="206.1" y="438.8"/>
      <point x="181.8" y="453.9"/>
      <point x="142.7" y="453.9" type="curve" smooth="yes"/>
      <point x="49.7" y="453.9"/>
      <point x="19.0" y="369.90000000000003"/>
    </contour>
  </outline>
</glyph>
<glyph name="twosuperior" format="2">
  <advance width="353.09999999999997"/>
  <unicode hex="00B2"/>
  <outline>
    <contour>
      <point x="20.2" y="387.0" type="line"/>
      <point x="327.6" y="387.0" type="line"/>
      <point x="331.90000000000003" y="541.0" type="line"/>
      <point x="297.8" y="541.0" type="line"/>
      <point x="292.5" y="511.8" type="line"/>
      <point x="289.5" y="493.40000000000003"/>
      <point x="278.90000000000003" y="481.3"/>
      <point x="256.7" y="481.3" type="curve"/>
      <point x="96.7" y="481.3" type="line"/>
      <point x="146.79999999999998" y="514.6999999999999" type="line"/>
      <point x="289.8" y="601.1"/>
      <point x="326.6" y="637.6999999999999"/>
      <point x="326.6" y="705.7" type="curve" smooth="yes"/>
      <point x="326.6" y="773.1"/>
      <point x="286.2" y="825.0"/>
      <point x="174.9" y="825.0" type="curve" smooth="yes"/>
      <point x="70.2" y="825.0"/>
      <point x="22.500000000000004" y="783.7"/>
      <point x="22.500000000000004" y="734.4" type="curve" smooth="yes"/>
      <point x="22.500000000000004" y="697.5"/>
      <point x="45.7" y="681.5"/>
      <point x="115.60000000000001" y="681.5" type="curve"/>
      <point x="115.60000000000001" y="730.3"/>
      <point x="119.9" y="771.2"/>
      <point x="161.3" y="771.2" type="curve" smooth="yes"/>
      <point x="187.8" y="771.2"/>
      <point x="202.70000000000002" y="747.8000000000001"/>
      <point x="202.70000000000002" y="711.3000000000001" type="curve" smooth="yes"/>
      <point x="202.70000000000002" y="653.9"/>
      <point x="170.5" y="617.5999999999999"/>
      <point x="105.4" y="556.1999999999999" type="curve" smooth="yes"/>
      <point x="20.2" y="475.2" type="line"/>
    </contour>
  </outline>
</glyph>
<glyph name="threesuperior" format="2">
  <advance width="353.09999999999997"/>
  <unicode hex="00B3"/>
  <outline>
    <contour>
      <point x="155.7" y="380.0" type="curve" smooth="yes"/>
      <point x="277.59999999999997" y="380.0"/>
      <point x="334.9" y="431.59999999999997"/>
      <point x="334.9" y="510.29999999999995" type="curve" smooth="yes"/>
      <point x="334.9" y="576.6999999999999"/>
      <point x="283.20000000000005" y="603.0"/>
      <point x="230.20000000000002" y="612.0" type="curve"/>
      <point x="230.20000000000002" y="616.3000000000001" type="line"/>
      <point x="277.6" y="630.0"/>
      <point x="320.0" y="663.0"/>
      <point x="320.0" y="721.7" type="curve" smooth="yes"/>
      <point x="320.0" y="783.7"/>
      <point x="278.6" y="824.0"/>
      <point x="172.9" y="824.0" type="curve" smooth="yes"/>
      <point x="68.9" y="824.0"/>
      <point x="26.5" y="785.3000000000001"/>
      <point x="26.5" y="736.7" type="curve" smooth="yes"/>
      <point x="26.5" y="702.4"/>
      <point x="56.3" y="689.4"/>
      <point x="113.3" y="689.4" type="curve"/>
      <point x="113.3" y="736.8000000000001"/>
      <point x="116.6" y="773.5"/>
      <point x="154.70000000000002" y="773.5" type="curve" smooth="yes"/>
      <point x="180.2" y="773.5"/>
      <point x="195.1" y="751.5"/>
      <point x="195.1" y="714.6999999999999" type="curve" smooth="yes"/>
      <point x="195.1" y="665.0"/>
      <point x="175.9" y="635.6"/>
      <point x="131.5" y="635.6" type="curve" smooth="yes"/>
      <point x="98.7" y="635.6" type="line"/>
      <point x="98.7" y="581.1" type="line"/>
      <point x="131.5" y="581.1" type="line" smooth="yes"/>
      <point x="187.5" y="581.1"/>
      <point x="205.7" y="553.4"/>
      <point x="205.7" y="513.3" type="curve" smooth="yes"/>
      <point x="205.7" y="456.20000000000005"/>
      <point x="178.2" y="437.8"/>
      <point x="144.1" y="437.8" type="curve" smooth="yes"/>
      <point x="105.0" y="437.8"/>
      <point x="85.8" y="469.6"/>
      <point x="85.8" y="521.1999999999999" type="curve"/>
      <point x="37.4" y="521.1999999999999"/>
      <point x="12.6" y="502.90000000000003"/>
      <point x="12.6" y="469.6" type="curve" smooth="yes"/>
      <point x="12.6" y="420.6"/>
      <point x="55.3" y="380.0"/>
    </contour>
  </outline>
</glyph>
<glyph name="multiply" format="2">
  <advance width="465.2"/>
  <unicode hex="00D7"/>
  <outline>
    <contour>
      <point x="107.5" y="164.2" type="line"/>
      <point x="231.39999999999998" y="303.40000000000003" type="line"/>
      <point x="354.20000000000005" y="166.29999999999998" type="line"/>
      <point x="408.8" y="216.0" type="line"/>
      <point x="281.1" y="359.4" type="line"/>
      <point x="408.8" y="502.1" type="line"/>
      <point x="353.20000000000005" y="551.4" type="line"/>
      <point x="231.39999999999998" y="415.3" type="line"/>
      <point x="108.2" y="553.1999999999999" type="line"/>
      <point x="52.3" y="504.2" type="line"/>
      <point x="181.1" y="359.7" type="line"/>
      <point x="52.3" y="214.20000000000002" type="line"/>
    </contour>
  </outline>
</glyph>
<glyph name="divide" format="2">
  <advance width="465.2"/>
  <unicode hex="00F7"/>
  <outline>
    <contour>
      <point x="43.300000000000004" y="320.09999999999997" type="line"/>
      <point x="421.90000000000003" y="320.09999999999997" type="line"/>
      <point x="421.90000000000003" y="394.90000000000003" type="line"/>
      <point x="43.300000000000004" y="394.90000000000003" type="line"/>
    </contour>
    <contour>
      <point x="233.1" y="105.10000000000001" type="curve" smooth="yes"/>
      <point x="262.6" y="105.10000000000001"/>
      <point x="286.5" y="121.4"/>
      <point x="286.5" y="168.0" type="curve" smooth="yes"/>
      <point x="286.5" y="215.60000000000002"/>
      <point x="262.6" y="230.9"/>
      <point x="233.1" y="230.9" type="curve" smooth="yes"/>
      <point x="200.9" y="230.9"/>
      <point x="178.7" y="215.60000000000002"/>
      <point x="178.7" y="168.0" type="curve" smooth="yes"/>
      <point x="178.7" y="121.4"/>
      <point x="200.9" y="105.10000000000001"/>
    </contour>
    <contour>
      <point x="233.1" y="484.09999999999997" type="curve" smooth="yes"/>
      <point x="262.6" y="484.09999999999997"/>
      <point x="286.5" y="500.4"/>
      <point x="286.5" y="547.0" type="curve" smooth="yes"/>
      <point x="286.5" y="594.5999999999999"/>
      <point x="262.6" y="609.9"/>
      <point x="233.1" y="609.9" type="curve" smooth="yes"/>
      <point x="200.9" y="609.9"/>
      <point x="178.7" y="594.5999999999999"/>
      <point x="178.7" y="547.0" type="curve" smooth="yes"/>
      <point x="178.7" y="500.4"/>
      <point x="200.9" y="484.09999999999997"/>
    </contour>
  </outline>
</glyph>
<glyph name="udatta-deva" format="2">
  <unicode hex="0951"/>
  <anchor x="0.0" y="578.4" name="_vedic"/>
  <outline>
    <contour>
      <point x="-37.6" y="960.2" type="line"/>
      <point x="37.6" y="960.2" type="line"/>
      <point x="37.6" y="1167.5" type="line"/>
      <point x="-37.6" y="1167.5" type="line"/>
    </contour>
  </outline>
</glyph>
<glyph name="anudatta-deva" format="2">
  <unicode hex="0952"/>
  <anchor x="0.0" y="0.0" name="_bottom"/>
  <outline>
    <contour>
      <point x="-198.5" y="-577.6" type="line"/>
      <point x="198.5" y="-577.6" type="line"/>
      <point x="198.5" y="-480.00000000000006" type="line"/>
      <point x="-198.5" y="-480.00000000000006" type="line"/>
    </contour>
  </outline>
</glyph>
<glyph name="danda-deva" format="2">
  <advance width="321.59999999999997"/>
  <unicode hex="0964"/>
  <outline>
    <contour>
      <point x="66.19999999999999" y="0.0" type="line"/>
      <point x="256.1" y="0.0" type="line"/>
      <point x="256.1" y="578.4" type="line"/>
      <point x="66.19999999999999" y="578.4" type="line"/>
    </contour>
  </outline>
</glyph>
<glyph name="dbldanda-deva" format="2">
  <advance width="601.6"/>
  <unicode hex="0965"/>
  <outline>
    <contour>
      <point x="346.2" y="0.0" type="line"/>
      <point x="536.1" y="0.0" type="line"/>
      <point x="536.1" y="578.4" type="line"/>
      <point x="346.2" y="578.4" type="line"/>
    </contour>
    <contour>
      <point x="66.19999999999999" y="0.0" type="line"/>
      <point x="256.1" y="0.0" type="line"/>
      <point x="256.1" y="578.4" type="line"/>
      <point x="66.19999999999999" y="578.4" type="line"/>
    </contour>
  </outline>
</glyph>
<glyph name="anusvara-tamil" format="2">
  <unicode hex="0B82"/>
  <note>
uni0B82
</note>
  <anchor x="0.0" y="578.4" name="_top"/>
  <outline>
    <contour>
      <point x="0.0" y="625.2" type="curve" smooth="yes"/>
      <point x="80.8" y="625.2"/>
      <point x="146.29999999999998" y="688.6999999999999"/>
      <point x="146.29999999999998" y="772.5" type="curve" smooth="yes"/>
      <point x="146.29999999999998" y="855.9"/>
      <point x="80.8" y="918.4"/>
      <point x="0.0" y="918.4" type="curve" smooth="yes"/>
      <point x="-80.8" y="918.4"/>
      <point x="-146.29999999999998" y="855.9"/>
      <point x="-146.29999999999998" y="772.5" type="curve" smooth="yes"/>
      <point x="-146.29999999999998" y="688.6999999999999"/>
      <point x="-80.8" y="625.2"/>
    </contour>
    <contour>
      <point x="0.0" y="711.4" type="curve" smooth="yes"/>
      <point x="-31.2" y="711.4"/>
      <point x="-59.099999999999994" y="738.3000000000001"/>
      <point x="-59.099999999999994" y="771.8000000000001" type="curve" smooth="yes"/>
      <point x="-59.099999999999994" y="805.0"/>
      <point x="-31.2" y="831.9"/>
      <point x="0.0" y="831.9" type="curve" smooth="yes"/>
      <point x="31.2" y="831.9"/>
      <point x="59.099999999999994" y="805.0"/>
      <point x="59.099999999999994" y="771.8000000000001" type="curve" smooth="yes"/>
      <point x="59.099999999999994" y="738.3000000000001"/>
      <point x="31.2" y="711.4"/>
    </contour>
  </outline>
</glyph>
<glyph name="visarga-tamil" format="2">
  <advance width="806.5"/>
  <unicode hex="0B83"/>
  <note>
uni0B83
</note>
  <outline>
    <contour>
      <point x="599.3000000000001" y="-5.0" type="curve" smooth="yes"/>
      <point x="699.9" y="-5.0"/>
      <point x="766.0" y="62.7"/>
      <point x="766.0" y="186.6" type="curve" smooth="yes"/>
      <point x="766.0" y="311.2"/>
      <point x="698.9" y="377.9"/>
      <point x="603.1999999999999" y="377.9" type="curve" smooth="yes"/>
      <point x="499.2" y="377.9"/>
      <point x="439.3" y="299.6"/>
      <point x="439.3" y="181.7" type="curve" smooth="yes"/>
      <point x="439.3" y="70.7"/>
      <point x="494.6" y="-5.0"/>
    </contour>
    <contour>
      <point x="200.2" y="-5.0" type="curve" smooth="yes"/>
      <point x="300.40000000000003" y="-5.0"/>
      <point x="366.20000000000005" y="62.7"/>
      <point x="366.20000000000005" y="186.6" type="curve" smooth="yes"/>
      <point x="366.20000000000005" y="311.2"/>
      <point x="299.1" y="377.9"/>
      <point x="204.4" y="377.9" type="curve" smooth="yes"/>
      <point x="99.7" y="377.9"/>
      <point x="40.5" y="299.6"/>
      <point x="40.5" y="181.7" type="curve" smooth="yes"/>
      <point x="40.5" y="70.7"/>
      <point x="94.8" y="-5.0"/>
    </contour>
    <contour>
      <point x="405.2" y="439.3" type="curve" smooth="yes"/>
      <point x="505.1" y="439.3"/>
      <point x="571.2" y="507.0"/>
      <point x="571.2" y="630.9" type="curve" smooth="yes"/>
      <point x="571.2" y="756.2"/>
      <point x="504.1" y="822.2"/>
      <point x="408.4" y="822.2" type="curve" smooth="yes"/>
      <point x="304.40000000000003" y="822.2"/>
      <point x="245.2" y="744.2"/>
      <point x="245.2" y="626.0" type="curve" smooth="yes"/>
      <point x="245.2" y="515.7"/>
      <point x="299.79999999999995" y="439.3"/>
    </contour>
    <contour>
      <point x="173.3" y="74.4" type="curve" smooth="yes"/>
      <point x="128.29999999999998" y="74.4"/>
      <point x="110.7" y="119.3"/>
      <point x="110.7" y="186.6" type="curve" smooth="yes"/>
      <point x="110.7" y="255.1"/>
      <point x="129.89999999999998" y="298.5"/>
      <point x="174.7" y="298.5" type="curve" smooth="yes"/>
      <point x="214.1" y="298.5"/>
      <point x="233.5" y="262.9"/>
      <point x="233.5" y="186.6" type="curve" smooth="yes"/>
      <point x="233.5" y="111.1"/>
      <point x="211.6" y="74.4"/>
    </contour>
    <contour>
      <point x="377.29999999999995" y="519.4" type="curve" smooth="yes"/>
      <point x="333.3" y="519.4"/>
      <point x="315.4" y="563.9"/>
      <point x="315.4" y="630.9" type="curve" smooth="yes"/>
      <point x="315.4" y="699.4"/>
      <point x="334.6" y="743.5"/>
      <point x="378.7" y="743.5" type="curve" smooth="yes"/>
      <point x="418.1" y="743.5"/>
      <point x="438.2" y="707.2"/>
      <point x="438.2" y="630.9" type="curve" smooth="yes"/>
      <point x="438.2" y="555.4"/>
      <point x="415.6" y="519.4"/>
    </contour>
    <contour>
      <point x="572.1" y="74.4" type="curve" smooth="yes"/>
      <point x="527.4000000000001" y="74.4"/>
      <point x="510.20000000000005" y="119.3"/>
      <point x="510.20000000000005" y="186.6" type="curve" smooth="yes"/>
      <point x="510.20000000000005" y="255.1"/>
      <point x="528.7" y="298.5"/>
      <point x="573.5" y="298.5" type="curve" smooth="yes"/>
      <point x="612.9" y="298.5"/>
      <point x="632.3000000000001" y="262.9"/>
      <point x="632.3000000000001" y="186.6" type="curve" smooth="yes"/>
      <point x="632.3000000000001" y="111.1"/>
      <point x="610.4" y="74.4"/>
    </contour>
  </outline>
</glyph>
<glyph name="a-tamil" format="2">
  <advance width="1263.3999999999999"/>
  <unicode hex="0B85"/>
  <note>
uni0B85
</note>
  <anchor x="606.0999999999999" y="0.0" name="bottom"/>
  <anchor x="407.1" y="-166.5" name="nukta"/>
  <anchor x="606.5" y="578.4" name="top"/>
  <anchor x="606.5" y="578.4" name="vedic"/>
  <outline>
    <contour>
      <point x="1012.6" y="-234.5" type="line"/>
      <point x="1201.6" y="-234.5" type="line"/>
      <point x="1201.6" y="578.4" type="line"/>
      <point x="1012.6" y="578.4" type="line"/>
      <point x="1012.6" y="154.3" type="line"/>
      <point x="111.60000000000001" y="154.3" type="line" smooth="yes"/>
      <point x="59.5" y="154.3"/>
      <point x="22.0" y="121.4"/>
      <point x="22.0" y="71.0" type="curve" smooth="yes"/>
      <point x="22.0" y="-69.1"/>
      <point x="198.4" y="-166.5"/>
      <point x="407.1" y="-166.5" type="curve" smooth="yes"/>
      <point x="701.1999999999999" y="-166.5"/>
      <point x="920.7" y="-27.700000000000003"/>
      <point x="920.7" y="230.4" type="curve" smooth="yes"/>
      <point x="920.7" y="450.6"/>
      <point x="777.4" y="583.4"/>
      <point x="568.0" y="583.4" type="curve" smooth="yes"/>
      <point x="399.40000000000003" y="583.4"/>
      <point x="325.2" y="481.4"/>
      <point x="325.2" y="376.1" type="curve" smooth="yes"/>
      <point x="325.2" y="276.9"/>
      <point x="395.7" y="209.8"/>
      <point x="486.6" y="209.8" type="curve" smooth="yes"/>
      <point x="574.6999999999999" y="209.8"/>
      <point x="649.5" y="263.3"/>
      <point x="649.5" y="366.0" type="curve" smooth="yes"/>
      <point x="649.5" y="451.7"/>
      <point x="597.4000000000001" y="509.1"/>
      <point x="537.3000000000001" y="544.2" type="curve"/>
      <point x="460.5" y="529.7" type="line"/>
      <point x="520.4" y="495.3"/>
      <point x="548.6" y="444.4"/>
      <point x="548.6" y="384.1" type="curve" smooth="yes"/>
      <point x="548.6" y="340.4"/>
      <point x="524.1999999999999" y="297.2"/>
      <point x="474.7" y="297.2" type="curve" smooth="yes"/>
      <point x="436.4" y="297.2"/>
      <point x="404.3" y="323.8"/>
      <point x="404.3" y="386.4" type="curve" smooth="yes"/>
      <point x="404.3" y="446.0"/>
      <point x="445.6" y="511.2"/>
      <point x="546.3000000000001" y="511.2" type="curve" smooth="yes"/>
      <point x="670.1999999999999" y="511.2"/>
      <point x="745.7" y="426.0"/>
      <point x="745.7" y="249.6" type="curve" smooth="yes"/>
      <point x="745.7" y="-3.5"/>
      <point x="580.1" y="-95.0"/>
      <point x="377.79999999999995" y="-95.0" type="curve" smooth="yes"/>
      <point x="231.5" y="-95.0"/>
      <point x="106.5" y="-18.8"/>
      <point x="106.5" y="55.2" type="curve" smooth="yes"/>
      <point x="106.5" y="74.2"/>
      <point x="117.5" y="82.9"/>
      <point x="138.9" y="82.9" type="curve" smooth="yes"/>
      <point x="1012.6" y="82.9" type="line"/>
    </contour>
  </outline>
</glyph>
<glyph name="aa-tamil" format="2">
  <advance width="1515.5"/>
  <unicode hex="0B86"/>
  <note>
uni0B86
</note>
  <anchor x="753.8" y="0.0" name="bottom"/>
  <anchor x="407.1" y="-166.5" name="nukta"/>
  <anchor x="753.8000000000001" y="578.4" name="top"/>
  <anchor x="754.2" y="578.4" name="vedic"/>
  <outline>
    <contour>
      <point x="1005.3" y="-432.5" type="curve" smooth="yes"/>
      <point x="1263.6999999999998" y="-432.5"/>
      <point x="1498.9" y="-315.8"/>
      <point x="1498.9" y="-64.7" type="curve" smooth="yes"/>
      <point x="1498.9" y="54.199999999999996"/>
      <point x="1436.1" y="118.8"/>
      <point x="1344.6000000000001" y="118.8" type="curve" smooth="yes"/>
      <point x="1239.3" y="118.8"/>
      <point x="1177.5" y="45.4"/>
      <point x="1164.6" y="-97.2" type="curve"/>
      <point x="1199.9" y="-104.19999999999999" type="line"/>
      <point x="1197.9" y="-44.400000000000006"/>
      <point x="1224.0" y="-13.700000000000001"/>
      <point x="1261.2" y="-13.700000000000001" type="curve" smooth="yes"/>
      <point x="1295.8" y="-13.700000000000001"/>
      <point x="1316.0" y="-40.8"/>
      <point x="1316.0" y="-87.0" type="curve" smooth="yes"/>
      <point x="1316.0" y="-266.70000000000005"/>
      <point x="1186.6" y="-361.9"/>
      <point x="995.0999999999999" y="-361.9" type="curve" smooth="yes"/>
      <point x="902.4" y="-361.9"/>
      <point x="817.4" y="-335.59999999999997"/>
      <point x="817.4" y="-276.70000000000005" type="curve" smooth="yes"/>
      <point x="817.4" y="-233.5"/>
      <point x="844.7" y="-211.70000000000002"/>
      <point x="904.7" y="-198.8" type="curve"/>
      <point x="890.4" y="-133.4" type="line"/>
      <point x="788.1999999999999" y="-155.9"/>
      <point x="741.9" y="-199.7"/>
      <point x="741.9" y="-274.3" type="curve" smooth="yes"/>
      <point x="741.9" y="-374.7"/>
      <point x="847.9000000000001" y="-432.5"/>
    </contour>
    <component base="a-tamil"/>
  </outline>
</glyph>
<glyph name="i-tamil" format="2">
  <advance width="975.6999999999999"/>
  <unicode hex="0B87"/>
  <note>
uni0B87
</note>
  <anchor x="462.2" y="0.0" name="bottom"/>
  <anchor x="461.59999999999997" y="-296.1" name="nukta"/>
  <anchor x="476.40000000000003" y="854.7" name="top"/>
  <anchor x="468.2" y="578.4" name="vedic"/>
  <outline>
    <contour>
      <point x="216.4" y="-333.2" type="curve" smooth="yes"/>
      <point x="540.8000000000001" y="-333.2"/>
      <point x="782.7" y="-57.099999999999994"/>
      <point x="782.7" y="222.0" type="curve" smooth="yes"/>
      <point x="782.7" y="431.3"/>
      <point x="672.6" y="583.4"/>
      <point x="468.9" y="583.4" type="curve" smooth="yes"/>
      <point x="301.8" y="583.4"/>
      <point x="228.2" y="481.4"/>
      <point x="228.2" y="376.1" type="curve" smooth="yes"/>
      <point x="228.2" y="276.9"/>
      <point x="298.3" y="209.8"/>
      <point x="388.5" y="209.8" type="curve" smooth="yes"/>
      <point x="476.3" y="209.8"/>
      <point x="550.7" y="261.9"/>
      <point x="550.7" y="364.6" type="curve" smooth="yes"/>
      <point x="550.7" y="450.3"/>
      <point x="498.3" y="509.1"/>
      <point x="438.2" y="544.2" type="curve"/>
      <point x="361.40000000000003" y="529.7" type="line"/>
      <point x="421.3" y="495.3"/>
      <point x="449.5" y="443.0"/>
      <point x="449.5" y="382.7" type="curve" smooth="yes"/>
      <point x="449.5" y="339.0"/>
      <point x="426.8" y="297.20000000000005"/>
      <point x="376.29999999999995" y="297.20000000000005" type="curve" smooth="yes"/>
      <point x="338.3" y="297.20000000000005"/>
      <point x="307.6" y="323.8"/>
      <point x="307.6" y="386.4" type="curve" smooth="yes"/>
      <point x="307.6" y="446.0"/>
      <point x="348.0" y="511.2"/>
      <point x="446.8" y="511.2" type="curve" smooth="yes"/>
      <point x="575.1999999999999" y="511.2"/>
      <point x="612.3000000000001" y="406.8"/>
      <point x="612.3000000000001" y="237.9" type="curve" smooth="yes"/>
      <point x="612.3000000000001" y="18.1"/>
      <point x="522.1999999999999" y="-256.6"/>
      <point x="216.7" y="-256.6" type="curve" smooth="yes"/>
      <point x="144.3" y="-256.6"/>
      <point x="107.89999999999999" y="-224.1"/>
      <point x="107.89999999999999" y="-162.4" type="curve" smooth="yes"/>
      <point x="107.89999999999999" y="-47.4"/>
      <point x="284.9" y="40.2"/>
      <point x="457.0" y="40.2" type="curve" smooth="yes"/>
      <point x="643.4" y="40.2"/>
      <point x="840.1" y="-36.3"/>
      <point x="840.1" y="-169.1" type="curve" smooth="yes"/>
      <point x="840.1" y="-225.4"/>
      <point x="801.1" y="-256.6"/>
      <point x="732.3" y="-256.6" type="curve" smooth="yes"/>
      <point x="461.9" y="-256.6"/>
      <point x="121.0" y="44.800000000000004"/>
      <point x="121.0" y="351.0" type="curve" smooth="yes"/>
      <point x="121.0" y="584.9000000000001"/>
      <point x="262.90000000000003" y="708.9"/>
      <point x="476.7" y="708.9" type="curve" smooth="yes"/>
      <point x="694.1" y="708.9"/>
      <point x="863.0999999999999" y="593.1"/>
      <point x="863.0999999999999" y="332.40000000000003" type="curve" smooth="yes"/>
      <point x="863.0999999999999" y="103.4" type="line"/>
      <point x="938.6" y="103.4" type="line"/>
      <point x="938.6" y="341.70000000000005" type="line" smooth="yes"/>
      <point x="938.6" y="703.0"/>
      <point x="748.0" y="854.7"/>
      <point x="476.40000000000003" y="854.7" type="curve" smooth="yes"/>
      <point x="207.0" y="854.7"/>
      <point x="35.2" y="663.1999999999999"/>
      <point x="35.2" y="396.5" type="curve" smooth="yes"/>
      <point x="35.2" y="2.3000000000000007"/>
      <point x="459.3" y="-333.2"/>
      <point x="737.0" y="-333.2" type="curve" smooth="yes"/>
      <point x="859.8" y="-333.2"/>
      <point x="927.2" y="-272.6"/>
      <point x="927.2" y="-183.6" type="curve" smooth="yes"/>
      <point x="927.2" y="16.000000000000004"/>
      <point x="694.0" y="104.3"/>
      <point x="456.0" y="104.3" type="curve" smooth="yes"/>
      <point x="240.99999999999997" y="104.3"/>
      <point x="25.5" y="-6.0"/>
      <point x="25.5" y="-166.9" type="curve" smooth="yes"/>
      <point x="25.5" y="-275.90000000000003"/>
      <point x="97.60000000000001" y="-333.2"/>
    </contour>
  </outline>
</glyph>
<glyph name="ii-tamil" format="2">
  <advance width="798.6"/>
  <unicode hex="0B88"/>
  <note>
uni0B88
</note>
  <anchor x="403.59999999999997" y="0.0" name="bottom"/>
  <anchor x="404.59999999999997" y="0.0" name="nukta"/>
  <anchor x="406.2" y="578.4" name="top"/>
  <anchor x="406.59999999999997" y="578.4" name="vedic"/>
  <outline>
    <contour>
      <point x="61.800000000000004" y="0.0" type="line"/>
      <point x="137.39999999999998" y="0.0" type="line"/>
      <point x="137.39999999999998" y="509.0" type="line"/>
      <point x="359.1" y="509.0" type="line"/>
      <point x="359.1" y="0.0" type="line"/>
      <point x="550.5" y="0.0" type="line"/>
      <point x="550.5" y="509.0" type="line"/>
      <point x="748.2" y="509.0" type="line"/>
      <point x="748.2" y="578.4" type="line"/>
      <point x="61.800000000000004" y="578.4" type="line"/>
    </contour>
    <contour>
      <point x="248.20000000000002" y="201.1" type="curve" smooth="yes"/>
      <point x="289.6" y="201.1"/>
      <point x="324.0" y="234.79999999999998"/>
      <point x="324.0" y="274.5" type="curve" smooth="yes"/>
      <point x="324.0" y="315.2"/>
      <point x="289.90000000000003" y="348.6"/>
      <point x="248.9" y="348.6" type="curve" smooth="yes"/>
      <point x="207.20000000000002" y="348.6"/>
      <point x="173.1" y="315.2"/>
      <point x="173.1" y="274.5" type="curve" smooth="yes"/>
      <point x="173.1" y="234.79999999999998"/>
      <point x="207.20000000000002" y="201.1"/>
    </contour>
    <contour>
      <point x="660.1999999999999" y="201.1" type="curve" smooth="yes"/>
      <point x="701.2" y="201.1"/>
      <point x="736.3" y="234.79999999999998"/>
      <point x="736.3" y="274.5" type="curve" smooth="yes"/>
      <point x="736.3" y="315.2"/>
      <point x="701.9" y="348.6"/>
      <point x="661.1999999999999" y="348.6" type="curve" smooth="yes"/>
      <point x="618.8" y="348.6"/>
      <point x="584.4" y="315.2"/>
      <point x="584.4" y="274.5" type="curve" smooth="yes"/>
      <point x="584.4" y="234.79999999999998"/>
      <point x="618.8" y="201.1"/>
    </contour>
  </outline>
</glyph>
<glyph name="u-tamil" format="2">
  <advance width="873.6"/>
  <unicode hex="0B89"/>
  <note>
uni0B89
</note>
  <anchor x="428.1" y="0.0" name="bottom"/>
  <anchor x="428.1" y="0.0" name="nukta"/>
  <anchor x="431.4" y="578.4" name="top"/>
  <anchor x="431.1" y="578.4" name="vedic"/>
  <outline>
    <contour>
      <point x="131.0" y="0.0" type="curve" smooth="yes"/>
      <point x="865.1" y="0.0" type="line"/>
      <point x="865.1" y="69.4" type="line"/>
      <point x="126.4" y="69.4" type="line" smooth="yes"/>
      <point x="109.0" y="69.4"/>
      <point x="96.39999999999999" y="80.9"/>
      <point x="96.39999999999999" y="100.6" type="curve" smooth="yes"/>
      <point x="96.39999999999999" y="119.6"/>
      <point x="109.0" y="130.7"/>
      <point x="126.4" y="130.7" type="curve" smooth="yes"/>
      <point x="359.4" y="130.7" type="line" smooth="yes"/>
      <point x="529.3" y="130.7"/>
      <point x="649.6999999999999" y="188.7"/>
      <point x="649.6999999999999" y="338.1" type="curve" smooth="yes"/>
      <point x="649.6999999999999" y="485.3"/>
      <point x="536.8000000000001" y="583.4"/>
      <point x="336.3" y="583.4" type="curve" smooth="yes"/>
      <point x="181.0" y="583.4"/>
      <point x="90.5" y="495.9"/>
      <point x="90.5" y="390.7" type="curve" smooth="yes"/>
      <point x="90.5" y="292.5"/>
      <point x="156.20000000000002" y="241.6"/>
      <point x="240.4" y="241.6" type="curve" smooth="yes"/>
      <point x="322.6" y="241.6"/>
      <point x="391.2" y="290.0"/>
      <point x="391.2" y="373.7" type="curve" smooth="yes"/>
      <point x="391.2" y="456.5"/>
      <point x="338.3" y="510.20000000000005"/>
      <point x="270.6" y="541.6" type="curve"/>
      <point x="196.0" y="535.6" type="line"/>
      <point x="263.9" y="497.1"/>
      <point x="290.9" y="457.09999999999997"/>
      <point x="290.9" y="397.7" type="curve" smooth="yes"/>
      <point x="290.9" y="351.5"/>
      <point x="265.6" y="323.0"/>
      <point x="225.9" y="323.0" type="curve" smooth="yes"/>
      <point x="192.1" y="323.0"/>
      <point x="168.29999999999998" y="351.2"/>
      <point x="168.29999999999998" y="396.79999999999995" type="curve" smooth="yes"/>
      <point x="168.29999999999998" y="462.79999999999995"/>
      <point x="227.6" y="514.3"/>
      <point x="303.09999999999997" y="514.3" type="curve" smooth="yes"/>
      <point x="411.8" y="514.3"/>
      <point x="475.7" y="457.9"/>
      <point x="475.7" y="348.3" type="curve" smooth="yes"/>
      <point x="475.7" y="248.9"/>
      <point x="421.90000000000003" y="195.8"/>
      <point x="333.59999999999997" y="195.8" type="curve" smooth="yes"/>
      <point x="131.0" y="195.8" type="line" smooth="yes"/>
      <point x="66.8" y="195.8"/>
      <point x="27.6" y="160.6"/>
      <point x="27.6" y="99.6" type="curve" smooth="yes"/>
      <point x="27.6" y="37.6"/>
      <point x="67.5" y="0.0"/>
    </contour>
  </outline>
</glyph>
<glyph name="uu-tamil" format="2">
  <advance width="1715.5"/>
  <unicode hex="0B8A"/>
  <note>
uni0B8A
</note>
  <anchor x="857.0" y="0.0" name="bottom"/>
  <anchor x="857.0" y="0.0" name="nukta"/>
  <anchor x="859.6999999999999" y="578.4" name="top"/>
  <anchor x="860.0" y="578.4" name="vedic"/>
  <outline>
    <contour>
      <point x="131.0" y="0.0" type="curve" smooth="yes"/>
      <point x="1653.8" y="0.0" type="line"/>
      <point x="1653.8" y="69.4" type="line"/>
      <point x="126.39999999999999" y="69.4" type="line" smooth="yes"/>
      <point x="109.0" y="69.4"/>
      <point x="96.39999999999999" y="80.9"/>
      <point x="96.39999999999999" y="100.6" type="curve" smooth="yes"/>
      <point x="96.39999999999999" y="119.6"/>
      <point x="109.0" y="130.7"/>
      <point x="126.39999999999999" y="130.7" type="curve" smooth="yes"/>
      <point x="359.4" y="130.7" type="line" smooth="yes"/>
      <point x="529.3" y="130.7"/>
      <point x="649.6999999999999" y="188.7"/>
      <point x="649.6999999999999" y="338.1" type="curve" smooth="yes"/>
      <point x="649.6999999999999" y="485.3"/>
      <point x="536.8000000000001" y="583.4"/>
      <point x="336.3" y="583.4" type="curve" smooth="yes"/>
      <point x="181.0" y="583.4"/>
      <point x="90.5" y="495.9"/>
      <point x="90.5" y="390.7" type="curve" smooth="yes"/>
      <point x="90.5" y="292.5"/>
      <point x="156.20000000000002" y="241.6"/>
      <point x="240.4" y="241.6" type="curve" smooth="yes"/>
      <point x="322.6" y="241.6"/>
      <point x="391.2" y="290.0"/>
      <point x="391.2" y="373.7" type="curve" smooth="yes"/>
      <point x="391.2" y="456.5"/>
      <point x="338.3" y="510.20000000000005"/>
      <point x="270.6" y="541.6" type="curve"/>
      <point x="196.0" y="535.6" type="line"/>
      <point x="263.9" y="497.1"/>
      <point x="290.9" y="457.09999999999997"/>
      <point x="290.9" y="397.7" type="curve" smooth="yes"/>
      <point x="290.9" y="351.5"/>
      <point x="265.6" y="323.0"/>
      <point x="225.9" y="323.0" type="curve" smooth="yes"/>
      <point x="192.1" y="323.0"/>
      <point x="168.29999999999998" y="351.2"/>
      <point x="168.29999999999998" y="396.79999999999995" type="curve" smooth="yes"/>
      <point x="168.29999999999998" y="462.79999999999995"/>
      <point x="227.6" y="514.3"/>
      <point x="303.09999999999997" y="514.3" type="curve" smooth="yes"/>
      <point x="411.8" y="514.3"/>
      <point x="475.7" y="457.9"/>
      <point x="475.7" y="348.3" type="curve" smooth="yes"/>
      <point x="475.7" y="248.9"/>
      <point x="421.90000000000003" y="195.8"/>
      <point x="333.59999999999997" y="195.8" type="curve" smooth="yes"/>
      <point x="131.0" y="195.8" type="line" smooth="yes"/>
      <point x="66.8" y="195.8"/>
      <point x="27.6" y="160.6"/>
      <point x="27.6" y="99.6" type="curve" smooth="yes"/>
      <point x="27.6" y="37.6"/>
      <point x="67.5" y="0.0"/>
    </contour>
    <contour>
      <point x="901.5" y="123.7" type="curve" smooth="yes"/>
      <point x="990.0" y="123.7"/>
      <point x="1065.3" y="169.6"/>
      <point x="1065.3" y="269.5" type="curve" smooth="yes"/>
      <point x="1065.3" y="362.3"/>
      <point x="1002.5" y="410.0"/>
      <point x="928.9" y="410.0" type="curve" smooth="yes"/>
      <point x="827.1" y="410.0"/>
      <point x="777.6" y="318.6"/>
      <point x="779.3" y="226.5" type="curve"/>
      <point x="819.1" y="204.9" type="line"/>
      <point x="818.7" y="276.2"/>
      <point x="849.0" y="334.9"/>
      <point x="893.6999999999999" y="334.9" type="curve" smooth="yes"/>
      <point x="929.7" y="334.9"/>
      <point x="951.5999999999999" y="308.90000000000003"/>
      <point x="951.5999999999999" y="268.3" type="curve" smooth="yes"/>
      <point x="951.5999999999999" y="223.5"/>
      <point x="925.3000000000001" y="194.4"/>
      <point x="885.0" y="194.4" type="curve" smooth="yes"/>
      <point x="835.0" y="194.4"/>
      <point x="773.0" y="238.4"/>
      <point x="773.0" y="342.9" type="curve" smooth="yes"/>
      <point x="773.0" y="447.2"/>
      <point x="836.8000000000001" y="515.0"/>
      <point x="943.0999999999999" y="515.0" type="curve" smooth="yes"/>
      <point x="1062.8" y="515.0"/>
      <point x="1128.0" y="433.0"/>
      <point x="1128.0" y="332.9" type="curve"/>
      <point x="1197.0" y="332.9" type="line"/>
      <point x="1187.7" y="506.8"/>
      <point x="1067.8" y="583.4"/>
      <point x="945.0999999999999" y="583.4" type="curve" smooth="yes"/>
      <point x="802.4" y="583.4"/>
      <point x="702.0" y="483.0"/>
      <point x="702.0" y="341.6" type="curve" smooth="yes"/>
      <point x="702.0" y="204.5"/>
      <point x="795.4" y="123.7"/>
    </contour>
    <contour>
      <point x="1128.0" y="125.0" type="line"/>
      <point x="1285.6000000000001" y="125.0" type="line"/>
      <point x="1285.6000000000001" y="515.9" type="line"/>
      <point x="1405.6999999999998" y="515.9" type="line"/>
      <point x="1405.6999999999998" y="125.0" type="line"/>
      <point x="1564.0" y="125.0" type="line"/>
      <point x="1564.0" y="515.9" type="line"/>
      <point x="1653.2" y="515.9" type="line"/>
      <point x="1653.2" y="578.4" type="line"/>
      <point x="1165.2" y="578.4" type="line"/>
      <point x="1169.4" y="392.9" type="line"/>
      <point x="1128.0" y="392.9" type="line"/>
    </contour>
  </outline>
</glyph>
<glyph name="e-tamil" format="2">
  <advance width="894.6"/>
  <unicode hex="0B8E"/>
  <note>
uni0B8E
</note>
  <anchor x="466.09999999999997" y="0.0" name="bottom"/>
  <anchor x="466.09999999999997" y="0.0" name="nukta"/>
  <anchor x="469.3" y="578.4" name="top"/>
  <anchor x="469.09999999999997" y="578.4" name="vedic"/>
  <outline>
    <contour>
      <point x="264.1" y="-5.0" type="curve" smooth="yes"/>
      <point x="383.3" y="-5.0"/>
      <point x="460.6" y="62.300000000000004"/>
      <point x="460.6" y="177.70000000000002" type="curve" smooth="yes"/>
      <point x="460.6" y="270.6"/>
      <point x="404.09999999999997" y="345.6"/>
      <point x="303.79999999999995" y="345.6" type="curve" smooth="yes"/>
      <point x="184.0" y="345.6"/>
      <point x="123.0" y="238.9"/>
      <point x="121.1" y="118.8" type="curve"/>
      <point x="166.7" y="90.60000000000001" type="line"/>
      <point x="171.0" y="176.0"/>
      <point x="195.5" y="233.5"/>
      <point x="242.2" y="233.5" type="curve" smooth="yes"/>
      <point x="271.09999999999997" y="233.5"/>
      <point x="294.59999999999997" y="206.5"/>
      <point x="294.59999999999997" y="161.8" type="curve" smooth="yes"/>
      <point x="294.59999999999997" y="109.6"/>
      <point x="272.09999999999997" y="80.3"/>
      <point x="228.7" y="80.3" type="curve" smooth="yes"/>
      <point x="175.10000000000002" y="80.3"/>
      <point x="119.1" y="149.1"/>
      <point x="119.1" y="260.09999999999997" type="curve" smooth="yes"/>
      <point x="119.1" y="425.0"/>
      <point x="214.3" y="509.0"/>
      <point x="415.6" y="509.0" type="curve" smooth="yes"/>
      <point x="580.3" y="509.0" type="line"/>
      <point x="580.3" y="0.0" type="line"/>
      <point x="772.6" y="0.0" type="line"/>
      <point x="772.6" y="509.0" type="line"/>
      <point x="880.5" y="509.0" type="line"/>
      <point x="880.5" y="578.4" type="line"/>
      <point x="399.6" y="578.4" type="line" smooth="yes"/>
      <point x="169.3" y="578.4"/>
      <point x="44.1" y="462.2"/>
      <point x="44.1" y="261.09999999999997" type="curve" smooth="yes"/>
      <point x="44.1" y="111.1"/>
      <point x="129.8" y="-5.0"/>
    </contour>
  </outline>
</glyph>
<glyph name="ee-tamil" format="2">
  <advance width="894.6"/>
  <unicode hex="0B8F"/>
  <note>
uni0B8F
</note>
  <anchor x="466.09999999999997" y="0.0" name="bottom"/>
  <anchor x="466.09999999999997" y="-206.2" name="nukta"/>
  <anchor x="469.5" y="578.4" name="top"/>
  <anchor x="469.09999999999997" y="578.4" name="vedic"/>
  <outline>
    <contour>
      <point x="456.6" y="-253.3" type="line"/>
      <point x="772.6" y="46.3" type="line"/>
      <point x="772.6" y="509.0" type="line"/>
      <point x="880.5" y="509.0" type="line"/>
      <point x="880.5" y="578.4" type="line"/>
      <point x="399.6" y="578.4" type="line" smooth="yes"/>
      <point x="169.3" y="578.4"/>
      <point x="44.1" y="462.2"/>
      <point x="44.1" y="261.09999999999997" type="curve" smooth="yes"/>
      <point x="44.1" y="111.1"/>
      <point x="129.8" y="-5.0"/>
      <point x="264.1" y="-5.0" type="curve" smooth="yes"/>
      <point x="383.3" y="-5.0"/>
      <point x="460.6" y="62.3"/>
      <point x="460.6" y="177.70000000000002" type="curve" smooth="yes"/>
      <point x="460.6" y="270.6"/>
      <point x="404.09999999999997" y="345.6"/>
      <point x="303.79999999999995" y="345.6" type="curve" smooth="yes"/>
      <point x="184.0" y="345.6"/>
      <point x="123.0" y="238.9"/>
      <point x="121.1" y="118.8" type="curve"/>
      <point x="166.7" y="90.6" type="line"/>
      <point x="171.0" y="176.0"/>
      <point x="196.9" y="233.5"/>
      <point x="243.6" y="233.5" type="curve" smooth="yes"/>
      <point x="272.5" y="233.5"/>
      <point x="294.59999999999997" y="206.5"/>
      <point x="294.59999999999997" y="161.8" type="curve" smooth="yes"/>
      <point x="294.59999999999997" y="109.6"/>
      <point x="272.8" y="80.3"/>
      <point x="229.4" y="80.3" type="curve" smooth="yes"/>
      <point x="177.9" y="80.3"/>
      <point x="119.8" y="149.1"/>
      <point x="119.8" y="260.09999999999997" type="curve" smooth="yes"/>
      <point x="119.8" y="425.0"/>
      <point x="214.3" y="509.0"/>
      <point x="415.6" y="509.0" type="curve" smooth="yes"/>
      <point x="580.3" y="509.0" type="line"/>
      <point x="580.3" y="-32.3" type="line"/>
      <point x="404.5" y="-199.4" type="line"/>
    </contour>
  </outline>
</glyph>
<glyph name="ai-tamil" format="2">
  <advance width="935.4"/>
  <unicode hex="0B90"/>
  <note>
uni0B90
</note>
  <anchor x="469.4" y="0.0" name="bottom"/>
  <anchor x="465.2" y="-332.2" name="nukta"/>
  <anchor x="477.0" y="578.4" name="top"/>
  <anchor x="474.3" y="578.4" name="vedic"/>
  <outline>
    <contour>
      <point x="269.3" y="-332.2" type="curve" smooth="yes"/>
      <point x="383.4" y="-332.2"/>
      <point x="453.3" y="-283.8"/>
      <point x="481.59999999999997" y="-198.4" type="curve"/>
      <point x="506.30000000000007" y="-285.8"/>
      <point x="583.3000000000001" y="-332.2"/>
      <point x="675.1999999999999" y="-332.2" type="curve" smooth="yes"/>
      <point x="794.6" y="-332.2"/>
      <point x="891.3" y="-269.29999999999995"/>
      <point x="891.3" y="-120.2" type="curve" smooth="yes"/>
      <point x="891.3" y="-47.699999999999996"/>
      <point x="864.8000000000001" y="12.0"/>
      <point x="827.6" y="68.0" type="curve"/>
      <point x="763.2" y="29.400000000000002" type="line"/>
      <point x="795.8000000000001" y="-21.6"/>
      <point x="813.9" y="-64.6"/>
      <point x="813.9" y="-114.3" type="curve" smooth="yes"/>
      <point x="813.9" y="-215.70000000000002"/>
      <point x="755.4" y="-257.1"/>
      <point x="680.7" y="-257.1" type="curve" smooth="yes"/>
      <point x="604.4" y="-257.1"/>
      <point x="549.5" y="-208.9"/>
      <point x="549.5" y="-104.7" type="curve" smooth="yes"/>
      <point x="549.5" y="-21.5" type="line"/>
      <point x="408.59999999999997" y="-21.5" type="line"/>
      <point x="408.59999999999997" y="-117.9" type="line" smooth="yes"/>
      <point x="408.59999999999997" y="-201.4"/>
      <point x="376.8" y="-255.8"/>
      <point x="308.2" y="-255.8" type="curve" smooth="yes"/>
      <point x="238.89999999999998" y="-255.8"/>
      <point x="214.4" y="-204.1"/>
      <point x="214.4" y="-125.3" type="curve" smooth="yes"/>
      <point x="214.4" y="-2.0"/>
      <point x="251.10000000000002" y="46.1"/>
      <point x="497.0" y="74.2" type="curve" smooth="yes"/>
      <point x="751.9" y="103.69999999999999"/>
      <point x="891.3000000000001" y="161.9"/>
      <point x="891.3000000000001" y="357.2" type="curve" smooth="yes"/>
      <point x="891.3000000000001" y="499.6"/>
      <point x="807.4" y="584.1"/>
      <point x="670.4000000000001" y="584.1" type="curve" smooth="yes"/>
      <point x="587.9" y="584.1"/>
      <point x="506.6" y="550.6"/>
      <point x="480.5" y="467.1" type="curve"/>
      <point x="449.09999999999997" y="546.6"/>
      <point x="381.4" y="584.1"/>
      <point x="281.2" y="584.1" type="curve" smooth="yes"/>
      <point x="141.9" y="584.1"/>
      <point x="49.8" y="486.1"/>
      <point x="49.8" y="345.1" type="curve" smooth="yes"/>
      <point x="49.8" y="230.8"/>
      <point x="119.0" y="151.8"/>
      <point x="216.4" y="151.8" type="curve" smooth="yes"/>
      <point x="294.5" y="151.8"/>
      <point x="356.4" y="196.8"/>
      <point x="356.4" y="285.7" type="curve" smooth="yes"/>
      <point x="356.4" y="363.0"/>
      <point x="309.2" y="409.7"/>
      <point x="243.1" y="409.7" type="curve" smooth="yes"/>
      <point x="168.79999999999998" y="409.7"/>
      <point x="113.6" y="357.5"/>
      <point x="107.3" y="228.1" type="curve"/>
      <point x="145.1" y="213.5" type="line"/>
      <point x="150.9" y="310.0"/>
      <point x="177.6" y="334.3"/>
      <point x="204.29999999999998" y="334.3" type="curve" smooth="yes"/>
      <point x="228.0" y="334.3"/>
      <point x="242.7" y="314.1"/>
      <point x="242.7" y="282.4" type="curve" smooth="yes"/>
      <point x="242.7" y="247.1"/>
      <point x="224.9" y="226.9"/>
      <point x="195.79999999999998" y="226.9" type="curve" smooth="yes"/>
      <point x="154.9" y="226.9"/>
      <point x="123.3" y="271.3"/>
      <point x="123.3" y="345.1" type="curve" smooth="yes"/>
      <point x="123.3" y="446.9"/>
      <point x="191.1" y="509.3"/>
      <point x="278.2" y="509.3" type="curve" smooth="yes"/>
      <point x="361.90000000000003" y="509.3"/>
      <point x="408.59999999999997" y="469.40000000000003"/>
      <point x="408.59999999999997" y="382.3" type="curve" smooth="yes"/>
      <point x="408.59999999999997" y="206.5" type="line"/>
      <point x="549.5" y="206.5" type="line"/>
      <point x="549.5" y="394.3" type="line" smooth="yes"/>
      <point x="549.5" y="468.5"/>
      <point x="581.1" y="507.0"/>
      <point x="635.4" y="507.0" type="curve" smooth="yes"/>
      <point x="689.4000000000001" y="507.0"/>
      <point x="720.6999999999999" y="461.9"/>
      <point x="720.6999999999999" y="368.7" type="curve" smooth="yes"/>
      <point x="720.6999999999999" y="211.8"/>
      <point x="677.5" y="153.6"/>
      <point x="398.09999999999997" y="120.69999999999999" type="curve" smooth="yes"/>
      <point x="229.29999999999998" y="101.30000000000001"/>
      <point x="44.1" y="54.3"/>
      <point x="44.1" y="-125.1" type="curve" smooth="yes"/>
      <point x="44.1" y="-259.9"/>
      <point x="128.0" y="-332.2"/>
    </contour>
  </outline>
</glyph>
<glyph name="o-tamil" format="2">
  <advance width="1008.0"/>
  <unicode hex="0B92"/>
  <note>
uni0B92
</note>
  <anchor x="499.5" y="0.0" name="bottom"/>
  <anchor x="497.5" y="-335.0" name="nukta"/>
  <anchor x="492.5" y="578.4" name="top"/>
  <anchor x="492.5" y="578.4" name="vedic"/>
  <outline>
    <contour>
      <point x="361.7" y="-345.09999999999997" type="curve" smooth="yes"/>
      <point x="579.4" y="-345.09999999999997"/>
      <point x="619.4" y="-138.9"/>
      <point x="770.0" y="-138.9" type="curve" smooth="yes"/>
      <point x="832.2" y="-138.9" type="line"/>
      <point x="832.2" y="-69.3" type="line"/>
      <point x="745.5999999999999" y="-69.3" type="line" smooth="yes"/>
      <point x="585.1" y="-69.3"/>
      <point x="511.2" y="55.300000000000004"/>
      <point x="599.3" y="228.20000000000002" type="curve"/>
      <point x="605.3" y="224.9" type="line"/>
      <point x="580.2" y="103.8"/>
      <point x="619.1" y="-2.7"/>
      <point x="766.6" y="-2.7" type="curve" smooth="yes"/>
      <point x="878.8" y="-2.7"/>
      <point x="963.9000000000001" y="67.3"/>
      <point x="963.9000000000001" y="205.1" type="curve" smooth="yes"/>
      <point x="963.9000000000001" y="454.40000000000003"/>
      <point x="742.6999999999999" y="584.7"/>
      <point x="469.40000000000003" y="584.7" type="curve" smooth="yes"/>
      <point x="207.89999999999998" y="584.7"/>
      <point x="44.1" y="428.3"/>
      <point x="44.1" y="249.3" type="curve" smooth="yes"/>
      <point x="44.1" y="104.3"/>
      <point x="128.3" y="-4.1"/>
      <point x="265.0" y="-4.1" type="curve" smooth="yes"/>
      <point x="385.70000000000005" y="-4.1"/>
      <point x="460.0" y="68.0"/>
      <point x="460.0" y="178.9" type="curve" smooth="yes"/>
      <point x="460.0" y="273.90000000000003"/>
      <point x="402.59999999999997" y="346.5"/>
      <point x="303.5" y="346.5" type="curve" smooth="yes"/>
      <point x="185.2" y="346.5"/>
      <point x="124.5" y="238.9"/>
      <point x="119.89999999999999" y="119.7" type="curve"/>
      <point x="165.5" y="91.8" type="line"/>
      <point x="169.8" y="176.3"/>
      <point x="195.8" y="234.1"/>
      <point x="242.5" y="234.1" type="curve" smooth="yes"/>
      <point x="272.29999999999995" y="234.1"/>
      <point x="295.2" y="206.20000000000002"/>
      <point x="295.2" y="161.8" type="curve" smooth="yes"/>
      <point x="295.2" y="109.6"/>
      <point x="273.59999999999997" y="80.9"/>
      <point x="230.5" y="80.9" type="curve" smooth="yes"/>
      <point x="176.0" y="80.9"/>
      <point x="118.8" y="146.3"/>
      <point x="118.8" y="247.7" type="curve" smooth="yes"/>
      <point x="118.8" y="403.0"/>
      <point x="274.29999999999995" y="512.2"/>
      <point x="454.7" y="512.2" type="curve" smooth="yes"/>
      <point x="641.5" y="512.2"/>
      <point x="787.1" y="414.9"/>
      <point x="787.1" y="224.4" type="curve" smooth="yes"/>
      <point x="787.1" y="125.3"/>
      <point x="753.5" y="89.6"/>
      <point x="710.9" y="89.6" type="curve" smooth="yes"/>
      <point x="658.5" y="89.6"/>
      <point x="635.3" y="167.5"/>
      <point x="677.6" y="277.7" type="curve"/>
      <point x="592.0" y="323.1" type="line"/>
      <point x="445.59999999999997" y="117.80000000000001"/>
      <point x="482.70000000000005" y="-34.0"/>
      <point x="621.5" y="-94.39999999999999" type="curve"/>
      <point x="621.5" y="-99.39999999999999" type="line"/>
      <point x="479.20000000000005" y="-127.9"/>
      <point x="437.0" y="-266.09999999999997"/>
      <point x="324.0" y="-266.09999999999997" type="curve" smooth="yes"/>
      <point x="272.6" y="-266.09999999999997"/>
      <point x="237.9" y="-237.39999999999998"/>
      <point x="237.9" y="-188.1" type="curve" smooth="yes"/>
      <point x="237.9" y="-153.60000000000002"/>
      <point x="255.79999999999998" y="-128.1"/>
      <point x="289.1" y="-100.2" type="curve"/>
      <point x="247.0" y="-52.6" type="line"/>
      <point x="200.0" y="-93.10000000000001"/>
      <point x="169.9" y="-134.10000000000002"/>
      <point x="169.9" y="-186.8" type="curve" smooth="yes"/>
      <point x="169.9" y="-278.9"/>
      <point x="237.9" y="-345.09999999999997"/>
    </contour>
  </outline>
</glyph>
<glyph name="oo-tamil" format="2">
  <advance width="1008.0"/>
  <unicode hex="0B93"/>
  <note>
uni0B93
</note>
  <anchor x="504.0" y="0.0" name="bottom"/>
  <anchor x="502.0" y="-330.09999999999997" name="nukta"/>
  <anchor x="497.0" y="578.4" name="top"/>
  <anchor x="497.0" y="578.4" name="vedic"/>
  <outline>
    <contour>
      <point x="337.0" y="-366.0" type="curve" smooth="yes"/>
      <point x="588.2" y="-366.0"/>
      <point x="623.9000000000001" y="-141.0"/>
      <point x="774.5" y="-140.10000000000002" type="curve" smooth="yes"/>
      <point x="832.2" y="-139.8" type="line"/>
      <point x="832.2" y="-70.19999999999999" type="line"/>
      <point x="745.6" y="-70.19999999999999" type="line" smooth="yes"/>
      <point x="585.0999999999999" y="-70.19999999999999"/>
      <point x="511.20000000000005" y="54.400000000000006"/>
      <point x="599.3" y="227.3" type="curve"/>
      <point x="605.3" y="224.0" type="line"/>
      <point x="580.2" y="102.9"/>
      <point x="619.1" y="-3.6"/>
      <point x="766.6" y="-3.6" type="curve" smooth="yes"/>
      <point x="878.8" y="-3.6"/>
      <point x="963.9000000000001" y="66.4"/>
      <point x="963.9000000000001" y="204.20000000000002" type="curve" smooth="yes"/>
      <point x="963.9000000000001" y="453.5"/>
      <point x="742.6999999999999" y="584.1"/>
      <point x="469.40000000000003" y="584.1" type="curve" smooth="yes"/>
      <point x="207.89999999999998" y="584.1"/>
      <point x="44.1" y="427.40000000000003"/>
      <point x="44.1" y="248.70000000000002" type="curve" smooth="yes"/>
      <point x="44.1" y="103.7"/>
      <point x="128.3" y="-5.0"/>
      <point x="265.0" y="-5.0" type="curve" smooth="yes"/>
      <point x="385.70000000000005" y="-5.0"/>
      <point x="460.0" y="67.4"/>
      <point x="460.0" y="178.0" type="curve" smooth="yes"/>
      <point x="460.0" y="273.0"/>
      <point x="402.59999999999997" y="345.6"/>
      <point x="303.5" y="345.6" type="curve" smooth="yes"/>
      <point x="185.2" y="345.6"/>
      <point x="124.5" y="238.3"/>
      <point x="119.89999999999999" y="119.1" type="curve"/>
      <point x="165.5" y="90.9" type="line"/>
      <point x="169.8" y="175.4"/>
      <point x="195.8" y="233.5"/>
      <point x="242.5" y="233.5" type="curve" smooth="yes"/>
      <point x="272.29999999999995" y="233.5"/>
      <point x="295.2" y="205.60000000000002"/>
      <point x="295.2" y="160.9" type="curve" smooth="yes"/>
      <point x="295.2" y="109.0"/>
      <point x="273.59999999999997" y="80.3"/>
      <point x="230.5" y="80.3" type="curve" smooth="yes"/>
      <point x="176.0" y="80.3"/>
      <point x="118.8" y="145.70000000000002"/>
      <point x="118.8" y="246.8" type="curve" smooth="yes"/>
      <point x="118.8" y="402.1"/>
      <point x="274.29999999999995" y="511.6"/>
      <point x="454.7" y="511.6" type="curve" smooth="yes"/>
      <point x="641.5" y="511.6"/>
      <point x="787.1" y="414.3"/>
      <point x="787.1" y="223.5" type="curve" smooth="yes"/>
      <point x="787.1" y="124.7"/>
      <point x="753.5" y="89.0"/>
      <point x="710.9" y="89.0" type="curve" smooth="yes"/>
      <point x="658.5" y="89.0"/>
      <point x="635.3" y="166.9"/>
      <point x="677.6" y="276.8" type="curve"/>
      <point x="592.0" y="322.5" type="line"/>
      <point x="445.6" y="117.2"/>
      <point x="482.40000000000003" y="-35.2"/>
      <point x="622.7" y="-95.6" type="curve"/>
      <point x="622.7" y="-100.6" type="line"/>
      <point x="492.4" y="-126.7"/>
      <point x="425.40000000000003" y="-288.4"/>
      <point x="299.40000000000003" y="-288.4" type="curve" smooth="yes"/>
      <point x="234.89999999999998" y="-288.4"/>
      <point x="196.6" y="-255.59999999999997"/>
      <point x="196.6" y="-205.8" type="curve" smooth="yes"/>
      <point x="196.6" y="-165.0"/>
      <point x="225.3" y="-135.79999999999998"/>
      <point x="260.6" y="-135.79999999999998" type="curve" smooth="yes"/>
      <point x="300.40000000000003" y="-135.79999999999998"/>
      <point x="328.5" y="-160.2"/>
      <point x="339.9" y="-210.4" type="curve"/>
      <point x="374.0" y="-196.5"/>
      <point x="402.3" y="-171.8"/>
      <point x="402.3" y="-130.6" type="curve" smooth="yes"/>
      <point x="402.3" y="-79.9"/>
      <point x="349.7" y="-48.8"/>
      <point x="288.09999999999997" y="-48.8" type="curve" smooth="yes"/>
      <point x="189.7" y="-48.8"/>
      <point x="131.0" y="-121.80000000000001"/>
      <point x="131.0" y="-200.5" type="curve" smooth="yes"/>
      <point x="131.0" y="-305.70000000000005"/>
      <point x="216.70000000000002" y="-366.0"/>
    </contour>
  </outline>
</glyph>
<glyph name="au-tamil" format="2">
  <advance width="2215.9"/>
  <unicode hex="0B94"/>
  <note>
uni0B94
</note>
  <anchor x="1155.5" y="0.0" name="bottom"/>
  <anchor x="1260.2" y="0.0" name="nukta"/>
  <anchor x="1149.2" y="578.4" name="top"/>
  <anchor x="1149.2" y="578.4" name="vedic"/>
  <outline>
    <contour>
      <point x="1246.6" y="-5.0" type="curve" smooth="yes"/>
      <point x="1365.1" y="-5.0"/>
      <point x="1443.3999999999999" y="62.3"/>
      <point x="1443.3999999999999" y="177.70000000000002" type="curve" smooth="yes"/>
      <point x="1443.3999999999999" y="270.6"/>
      <point x="1386.6" y="345.6"/>
      <point x="1286.3" y="345.6" type="curve" smooth="yes"/>
      <point x="1166.8" y="345.6"/>
      <point x="1105.8" y="238.9"/>
      <point x="1103.8999999999999" y="118.8" type="curve"/>
      <point x="1149.5" y="90.6" type="line"/>
      <point x="1153.8" y="176.0"/>
      <point x="1178.0" y="233.5"/>
      <point x="1224.7" y="233.5" type="curve" smooth="yes"/>
      <point x="1253.2" y="233.5"/>
      <point x="1277.1000000000001" y="206.5"/>
      <point x="1277.1000000000001" y="161.8" type="curve" smooth="yes"/>
      <point x="1277.1000000000001" y="109.6"/>
      <point x="1254.2" y="80.3"/>
      <point x="1211.2" y="80.3" type="curve" smooth="yes"/>
      <point x="1157.2" y="80.3"/>
      <point x="1101.6000000000001" y="149.1"/>
      <point x="1101.6000000000001" y="260.09999999999997" type="curve" smooth="yes"/>
      <point x="1101.6000000000001" y="414.4"/>
      <point x="1202.1000000000001" y="502.2"/>
      <point x="1329.8" y="502.2" type="curve" smooth="yes"/>
      <point x="1473.6" y="502.2"/>
      <point x="1560.0" y="414.2"/>
      <point x="1560.0" y="283.7" type="curve"/>
      <point x="1633.6" y="300.3" type="line"/>
      <point x="1621.1" y="501.5"/>
      <point x="1474.8000000000002" y="583.1"/>
      <point x="1331.4" y="583.1" type="curve" smooth="yes"/>
      <point x="1143.5" y="583.1"/>
      <point x="1026.6000000000001" y="449.4"/>
      <point x="1026.6000000000001" y="261.09999999999997" type="curve" smooth="yes"/>
      <point x="1026.6000000000001" y="111.1"/>
      <point x="1112.6000000000001" y="-5.0"/>
    </contour>
    <contour>
      <point x="1560.0" y="0.0" type="line"/>
      <point x="1751.4" y="0.0" type="line"/>
      <point x="1751.4" y="509.0" type="line"/>
      <point x="1901.7" y="509.0" type="line"/>
      <point x="1901.7" y="0.0" type="line"/>
      <point x="2093.1" y="0.0" type="line"/>
      <point x="2093.1" y="509.0" type="line"/>
      <point x="2201.7999999999997" y="509.0" type="line"/>
      <point x="2201.7999999999997" y="578.4" type="line"/>
      <point x="1607.9" y="578.4" type="line"/>
      <point x="1607.9" y="329.1" type="line"/>
      <point x="1560.0" y="350.0" type="line"/>
    </contour>
    <component base="o-tamil"/>
  </outline>
</glyph>
<glyph name="nga-tamil" format="2">
  <advance width="964.7"/>
  <unicode hex="0B99"/>
  <note>
uni0B99
</note>
  <anchor x="472.6" y="0.0" name="bottom"/>
  <anchor x="527.1" y="578.4" name="imatra"/>
  <anchor x="476.3" y="0.0" name="nukta"/>
  <anchor x="508.2" y="578.4" name="top"/>
  <anchor x="480.1" y="578.4" name="vedic"/>
  <outline>
    <contour>
      <point x="61.800000000000004" y="0.0" type="line"/>
      <point x="138.9" y="0.0" type="line"/>
      <point x="138.9" y="509.0" type="line"/>
      <point x="239.0" y="509.0" type="line"/>
      <point x="239.0" y="175.0" type="line"/>
      <point x="412.59999999999997" y="175.0" type="line"/>
      <point x="412.59999999999997" y="244.20000000000002" type="line" smooth="yes"/>
      <point x="412.59999999999997" y="267.70000000000005"/>
      <point x="422.7" y="285.9"/>
      <point x="444.40000000000003" y="285.9" type="curve" smooth="yes"/>
      <point x="469.7" y="285.9"/>
      <point x="481.6" y="263.8"/>
      <point x="481.6" y="215.3" type="curve" smooth="yes"/>
      <point x="481.6" y="132.4"/>
      <point x="434.7" y="69.4"/>
      <point x="352.3" y="69.4" type="curve" smooth="yes"/>
      <point x="239.0" y="69.4" type="line"/>
      <point x="239.0" y="0.0" type="line"/>
      <point x="902.9" y="0.0" type="line"/>
      <point x="902.9" y="578.4" type="line"/>
      <point x="712.6" y="578.4" type="line"/>
      <point x="712.6" y="69.4" type="line"/>
      <point x="513.3" y="69.4" type="line"/>
      <point x="599.3000000000001" y="95.8"/>
      <point x="656.5" y="160.7"/>
      <point x="656.5" y="252.0" type="curve" smooth="yes"/>
      <point x="656.5" y="343.90000000000003"/>
      <point x="609.6999999999999" y="398.9"/>
      <point x="527.3000000000001" y="398.9" type="curve" smooth="yes"/>
      <point x="472.09999999999997" y="398.9"/>
      <point x="440.1" y="369.9"/>
      <point x="418.3" y="337.8" type="curve"/>
      <point x="418.3" y="509.0" type="line"/>
      <point x="557.0" y="509.0" type="line"/>
      <point x="557.0" y="578.4" type="line"/>
      <point x="61.800000000000004" y="578.4" type="line"/>
    </contour>
  </outline>
</glyph>
<glyph name="ca-tamil" format="2">
  <advance width="691.7"/>
  <unicode hex="0B9A"/>
  <note>
uni0B9A
</note>
  <anchor x="346.0" y="0.0" name="bottom"/>
  <anchor x="522.6999999999999" y="578.4" name="imatra"/>
  <anchor x="343.7" y="0.0" name="nukta"/>
  <anchor x="404.5" y="578.4" name="top"/>
  <anchor x="398.5" y="578.4" name="vedic"/>
  <outline>
    <contour>
      <point x="262.0" y="-4.0" type="curve" smooth="yes"/>
      <point x="422.0" y="-4.0"/>
      <point x="516.2" y="78.80000000000001"/>
      <point x="516.2" y="216.5" type="curve" smooth="yes"/>
      <point x="516.2" y="272.7" type="line"/>
      <point x="647.1" y="272.7" type="line"/>
      <point x="647.1" y="342.4" type="line"/>
      <point x="516.2" y="342.4" type="line"/>
      <point x="516.2" y="508.7" type="line"/>
      <point x="647.1" y="508.7" type="line"/>
      <point x="647.1" y="578.4" type="line"/>
      <point x="140.0" y="578.4" type="line"/>
      <point x="140.0" y="301.5" type="line"/>
      <point x="214.5" y="301.5" type="line"/>
      <point x="214.5" y="508.7" type="line"/>
      <point x="325.9" y="508.7" type="line"/>
      <point x="325.9" y="342.4" type="line"/>
      <point x="212.1" y="342.4" type="line" smooth="yes"/>
      <point x="125.7" y="342.4"/>
      <point x="44.9" y="277.9"/>
      <point x="44.9" y="179.8" type="curve" smooth="yes"/>
      <point x="44.9" y="73.8"/>
      <point x="112.3" y="-4.0"/>
    </contour>
    <contour>
      <point x="213.6" y="79.5" type="curve" smooth="yes"/>
      <point x="161.0" y="79.5"/>
      <point x="117.6" y="114.2"/>
      <point x="117.6" y="177.2" type="curve" smooth="yes"/>
      <point x="117.6" y="232.2"/>
      <point x="148.70000000000002" y="272.7"/>
      <point x="213.20000000000002" y="272.7" type="curve" smooth="yes"/>
      <point x="325.9" y="272.7" type="line"/>
      <point x="325.9" y="202.4" type="line" smooth="yes"/>
      <point x="325.9" y="116.4"/>
      <point x="282.0" y="79.5"/>
    </contour>
  </outline>
</glyph>
<glyph name="tta-tamil" format="2">
  <advance width="854.8"/>
  <unicode hex="0B9F"/>
  <note>
uni0B9F
</note>
  <anchor x="433.4" y="0.0" name="bottom"/>
  <anchor x="433.4" y="0.0" name="nukta"/>
  <anchor x="452.8" y="578.4" name="top"/>
  <anchor x="453.7" y="578.4" name="vedic"/>
  <outline>
    <contour>
      <point x="61.800000000000004" y="0.0" type="line"/>
      <point x="845.6" y="0.0" type="line"/>
      <point x="845.6" y="69.4" type="line"/>
      <point x="251.10000000000002" y="69.4" type="line"/>
      <point x="251.10000000000002" y="578.4" type="line"/>
      <point x="61.800000000000004" y="578.4" type="line"/>
    </contour>
  </outline>
</glyph>
<glyph name="na-tamil" format="2">
  <advance width="791.1999999999999"/>
  <unicode hex="0BA8"/>
  <note>
uni0BA8
</note>
  <anchor x="370.3" y="0.0" name="bottom"/>
  <anchor x="500.9" y="578.4" name="imatra"/>
  <anchor x="402.7" y="-234.5" name="nukta"/>
  <anchor x="370.5" y="578.4" name="top"/>
  <anchor x="398.2" y="578.4" name="vedic"/>
  <outline>
    <contour>
      <point x="192.8" y="-298.9" type="curve"/>
      <point x="192.8" y="-192.9"/>
      <point x="218.1" y="-128.4"/>
      <point x="333.7" y="-128.4" type="curve" smooth="yes"/>
      <point x="480.7" y="-128.4" type="line" smooth="yes"/>
      <point x="625.7" y="-128.4"/>
      <point x="747.8" y="-49.1"/>
      <point x="747.8" y="140.3" type="curve" smooth="yes"/>
      <point x="747.8" y="283.3"/>
      <point x="672.5" y="357.7"/>
      <point x="573.8" y="357.7" type="curve" smooth="yes"/>
      <point x="506.0" y="357.7"/>
      <point x="466.59999999999997" y="321.2"/>
      <point x="437.40000000000003" y="275.0" type="curve"/>
      <point x="437.40000000000003" y="509.0" type="line"/>
      <point x="572.4" y="509.0" type="line"/>
      <point x="572.4" y="578.4" type="line"/>
      <point x="61.2" y="578.4" type="line"/>
      <point x="61.2" y="0.0" type="line"/>
      <point x="136.1" y="0.0" type="line"/>
      <point x="136.1" y="509.0" type="line"/>
      <point x="246.8" y="509.0" type="line"/>
      <point x="246.8" y="0.0" type="line"/>
      <point x="437.40000000000003" y="0.0" type="line"/>
      <point x="437.40000000000003" y="162.4" type="line" smooth="yes"/>
      <point x="437.40000000000003" y="215.8"/>
      <point x="461.6" y="242.3"/>
      <point x="500.2" y="242.3" type="curve" smooth="yes"/>
      <point x="550.4" y="242.3"/>
      <point x="575.8000000000001" y="197.9"/>
      <point x="575.8000000000001" y="127.4" type="curve" smooth="yes"/>
      <point x="575.8000000000001" y="-17.0"/>
      <point x="506.3" y="-68.3"/>
      <point x="391.0" y="-68.3" type="curve" smooth="yes"/>
      <point x="271.90000000000003" y="-68.3" type="line" smooth="yes"/>
      <point x="154.6" y="-68.3"/>
      <point x="51.0" y="-90.5"/>
      <point x="51.0" y="-192.2" type="curve" smooth="yes"/>
      <point x="51.0" y="-265.0"/>
      <point x="108.5" y="-298.9"/>
    </contour>
  </outline>
</glyph>
<glyph name="pa-tamil" format="2">
  <advance width="848.6999999999999"/>
  <unicode hex="0BAA"/>
  <note>
uni0BAA
</note>
  <anchor x="429.3" y="0.0" name="bottom"/>
  <anchor x="778.3000000000001" y="578.4" name="imatra"/>
  <anchor x="429.3" y="0.0" name="nukta"/>
  <anchor x="432.0" y="578.4" name="top"/>
  <anchor x="424.5" y="578.4" name="vedic"/>
  <outline>
    <contour>
      <point x="61.800000000000004" y="0.0" type="line"/>
      <point x="786.9" y="0.0" type="line"/>
      <point x="786.9" y="578.4" type="line"/>
      <point x="599.0" y="578.4" type="line"/>
      <point x="599.0" y="69.4" type="line"/>
      <point x="251.70000000000002" y="69.4" type="line"/>
      <point x="251.70000000000002" y="578.4" type="line"/>
      <point x="61.800000000000004" y="578.4" type="line"/>
    </contour>
  </outline>
</glyph>
<glyph name="ya-tamil" format="2">
  <advance width="963.4"/>
  <unicode hex="0BAF"/>
  <note>
uni0BAF
</note>
  <anchor x="473.29999999999995" y="0.0" name="bottom"/>
  <anchor x="895.8" y="578.4" name="imatra"/>
  <anchor x="468.6" y="0.0" name="nukta"/>
  <anchor x="470.9" y="578.4" name="top"/>
  <anchor x="481.3" y="578.4" name="vedic"/>
  <outline>
    <contour>
      <point x="218.79999999999998" y="-12.3" type="curve" smooth="yes"/>
      <point x="283.9" y="-12.3"/>
      <point x="325.7" y="11.9"/>
      <point x="362.1" y="61.3" type="curve"/>
      <point x="362.1" y="0.0" type="line"/>
      <point x="901.5999999999999" y="0.0" type="line"/>
      <point x="901.5999999999999" y="578.4" type="line"/>
      <point x="711.3" y="578.4" type="line"/>
      <point x="711.3" y="69.4" type="line"/>
      <point x="523.9" y="69.4" type="line"/>
      <point x="523.9" y="578.4" type="line"/>
      <point x="341.6" y="578.4" type="line"/>
      <point x="341.6" y="139.7" type="line" smooth="yes"/>
      <point x="341.6" y="101.0"/>
      <point x="317.6" y="80.7"/>
      <point x="291.6" y="80.7" type="curve" smooth="yes"/>
      <point x="261.0" y="80.7"/>
      <point x="245.7" y="93.6"/>
      <point x="245.7" y="144.0" type="curve" smooth="yes"/>
      <point x="245.7" y="578.4" type="line"/>
      <point x="56.8" y="578.4" type="line"/>
      <point x="56.8" y="164.4" type="line" smooth="yes"/>
      <point x="56.8" y="47.2"/>
      <point x="125.5" y="-12.3"/>
    </contour>
  </outline>
</glyph>
<glyph name="ra-tamil" format="2">
  <advance width="596.0"/>
  <unicode hex="0BB0"/>
  <note>
uni0BB0
</note>
  <anchor x="288.40000000000003" y="0.0" name="bottom"/>
  <anchor x="517.9" y="578.4" name="imatra"/>
  <anchor x="288.40000000000003" y="-255.5" name="nukta"/>
  <anchor x="308.0" y="578.4" name="top"/>
  <anchor x="320.09999999999997" y="578.4" name="vedic"/>
  <outline>
    <contour>
      <point x="158.4" y="-253.0" type="line"/>
      <point x="473.70000000000005" y="45.2" type="line"/>
      <point x="473.70000000000005" y="509.0" type="line"/>
      <point x="581.9000000000001" y="509.0" type="line"/>
      <point x="581.9000000000001" y="578.4" type="line"/>
      <point x="63.300000000000004" y="578.4" type="line"/>
      <point x="63.300000000000004" y="0.0" type="line"/>
      <point x="138.9" y="0.0" type="line"/>
      <point x="138.9" y="509.0" type="line"/>
      <point x="284.7" y="509.0" type="line"/>
      <point x="284.7" y="-32.3" type="line"/>
      <point x="106.6" y="-199.1" type="line"/>
    </contour>
  </outline>
</glyph>
<glyph name="la-tamil" format="2">
  <advance width="1018.5"/>
  <unicode hex="0BB2"/>
  <note>
uni0BB2
</note>
  <anchor x="501.8" y="0.0" name="bottom"/>
  <anchor x="498.8" y="0.0" name="nukta"/>
  <anchor x="498.7" y="578.4" name="top"/>
  <anchor x="504.5" y="578.4" name="vedic"/>
  <outline>
    <contour>
      <point x="264.09999999999997" y="-5.0" type="curve" smooth="yes"/>
      <point x="383.3" y="-5.0"/>
      <point x="460.6" y="63.800000000000004"/>
      <point x="460.6" y="179.20000000000002" type="curve" smooth="yes"/>
      <point x="460.6" y="272.1"/>
      <point x="404.09999999999997" y="345.6"/>
      <point x="303.79999999999995" y="345.6" type="curve" smooth="yes"/>
      <point x="184.0" y="345.6"/>
      <point x="123.0" y="238.9"/>
      <point x="121.10000000000001" y="118.8" type="curve"/>
      <point x="166.7" y="90.6" type="line"/>
      <point x="171.0" y="176.0"/>
      <point x="195.5" y="233.5"/>
      <point x="242.2" y="233.5" type="curve" smooth="yes"/>
      <point x="271.09999999999997" y="233.5"/>
      <point x="294.6" y="206.5"/>
      <point x="294.6" y="161.8" type="curve" smooth="yes"/>
      <point x="294.6" y="109.6"/>
      <point x="272.1" y="80.3"/>
      <point x="228.70000000000002" y="80.3" type="curve" smooth="yes"/>
      <point x="175.1" y="80.3"/>
      <point x="119.1" y="149.1"/>
      <point x="119.1" y="260.1" type="curve" smooth="yes"/>
      <point x="119.1" y="414.4"/>
      <point x="206.70000000000002" y="503.4"/>
      <point x="333.8" y="503.4" type="curve" smooth="yes"/>
      <point x="482.9" y="503.4"/>
      <point x="535.6" y="403.0"/>
      <point x="535.6" y="276.6" type="curve" smooth="yes"/>
      <point x="535.6" y="185.2" type="line" smooth="yes"/>
      <point x="535.6" y="68.4"/>
      <point x="591.4000000000001" y="-5.0"/>
      <point x="726.5" y="-5.0" type="curve" smooth="yes"/>
      <point x="871.6" y="-5.0"/>
      <point x="969.4" y="105.8"/>
      <point x="969.4" y="307.0" type="curve" smooth="yes"/>
      <point x="969.4" y="406.7"/>
      <point x="936.9" y="490.1"/>
      <point x="875.5" y="582.8" type="curve"/>
      <point x="811.6999999999999" y="543.5" type="line"/>
      <point x="865.8" y="460.5"/>
      <point x="895.4" y="391.1"/>
      <point x="895.4" y="297.1" type="curve" smooth="yes"/>
      <point x="895.4" y="157.10000000000002"/>
      <point x="835.0" y="84.5"/>
      <point x="777.5" y="84.5" type="curve" smooth="yes"/>
      <point x="740.4" y="84.5"/>
      <point x="728.1" y="111.5"/>
      <point x="728.1" y="174.2" type="curve" smooth="yes"/>
      <point x="728.1" y="289.6" type="line" smooth="yes"/>
      <point x="728.1" y="475.6"/>
      <point x="607.8" y="583.4"/>
      <point x="388.1" y="583.4" type="curve" smooth="yes"/>
      <point x="164.5" y="583.4"/>
      <point x="44.1" y="452.40000000000003"/>
      <point x="44.1" y="261.09999999999997" type="curve" smooth="yes"/>
      <point x="44.1" y="111.10000000000001"/>
      <point x="129.8" y="-5.0"/>
    </contour>
  </outline>
</glyph>
<glyph name="lla-tamil" format="2">
  <advance width="1233.3999999999999"/>
  <unicode hex="0BB3"/>
  <note>
uni0BB3
</note>
  <anchor x="596.5" y="0.0" name="bottom"/>
  <anchor x="1087.8" y="578.4" name="imatra"/>
  <anchor x="593.1" y="0.0" name="nukta"/>
  <anchor x="610.5" y="578.4" name="top"/>
  <anchor x="633.3" y="578.4" name="vedic"/>
  <outline>
    <contour>
      <point x="264.1" y="-5.0" type="curve" smooth="yes"/>
      <point x="383.3" y="-5.0"/>
      <point x="460.6" y="62.3"/>
      <point x="460.6" y="177.70000000000002" type="curve" smooth="yes"/>
      <point x="460.6" y="270.6"/>
      <point x="404.09999999999997" y="345.6"/>
      <point x="303.79999999999995" y="345.6" type="curve" smooth="yes"/>
      <point x="184.0" y="345.6"/>
      <point x="123.0" y="238.9"/>
      <point x="121.1" y="118.8" type="curve"/>
      <point x="166.7" y="90.6" type="line"/>
      <point x="171.0" y="176.0"/>
      <point x="195.5" y="233.5"/>
      <point x="242.2" y="233.5" type="curve" smooth="yes"/>
      <point x="271.09999999999997" y="233.5"/>
      <point x="294.59999999999997" y="206.5"/>
      <point x="294.59999999999997" y="161.8" type="curve" smooth="yes"/>
      <point x="294.59999999999997" y="109.6"/>
      <point x="272.09999999999997" y="80.3"/>
      <point x="228.7" y="80.3" type="curve" smooth="yes"/>
      <point x="175.10000000000002" y="80.3"/>
      <point x="119.1" y="149.1"/>
      <point x="119.1" y="260.09999999999997" type="curve" smooth="yes"/>
      <point x="119.1" y="414.4"/>
      <point x="219.6" y="502.2"/>
      <point x="347.0" y="502.2" type="curve" smooth="yes"/>
      <point x="491.8" y="502.2"/>
      <point x="577.2" y="414.2"/>
      <point x="577.2" y="283.7" type="curve"/>
      <point x="651.5" y="300.3" type="line"/>
      <point x="638.3" y="501.5"/>
      <point x="492.3" y="583.1"/>
      <point x="348.6" y="583.1" type="curve" smooth="yes"/>
      <point x="161.0" y="583.1"/>
      <point x="44.1" y="449.4"/>
      <point x="44.1" y="261.09999999999997" type="curve" smooth="yes"/>
      <point x="44.1" y="111.1"/>
      <point x="129.8" y="-5.0"/>
    </contour>
    <contour>
      <point x="577.2" y="0.0" type="line"/>
      <point x="768.6" y="0.0" type="line"/>
      <point x="768.6" y="509.0" type="line"/>
      <point x="919.1999999999999" y="509.0" type="line"/>
      <point x="919.1999999999999" y="0.0" type="line"/>
      <point x="1110.6000000000001" y="0.0" type="line"/>
      <point x="1110.6000000000001" y="509.0" type="line"/>
      <point x="1219.3" y="509.0" type="line"/>
      <point x="1219.3" y="578.4" type="line"/>
      <point x="625.0999999999999" y="578.4" type="line"/>
      <point x="625.0999999999999" y="329.1" type="line"/>
      <point x="577.2" y="350.0" type="line"/>
    </contour>
  </outline>
</glyph>
<glyph name="llla-tamil" format="2">
  <advance width="846.0999999999999"/>
  <unicode hex="0BB4"/>
  <note>
uni0BB4
</note>
  <anchor x="433.7" y="0.0" name="bottom"/>
  <anchor x="429.90000000000003" y="-350.2" name="nukta"/>
  <anchor x="433.8" y="578.4" name="top"/>
  <anchor x="423.8" y="578.4" name="vedic"/>
  <anchor x="790.0999999999999" y="578.4" name="imatra"/>
  <outline>
    <contour>
      <point x="284.79999999999995" y="-373.79999999999995" type="curve" smooth="yes"/>
      <point x="503.99999999999994" y="-373.79999999999995"/>
      <point x="553.1" y="-173.0"/>
      <point x="719.6" y="-173.0" type="curve" smooth="yes"/>
      <point x="728.1" y="-173.0" type="line"/>
      <point x="728.1" y="-104.5" type="line"/>
      <point x="715.6" y="-104.5" type="line" smooth="yes"/>
      <point x="637.5" y="-104.5"/>
      <point x="577.1" y="-80.7"/>
      <point x="577.1" y="13.7" type="curve" smooth="yes"/>
      <point x="577.1" y="122.0" type="line"/>
      <point x="386.8" y="122.0" type="line"/>
      <point x="386.8" y="19.7" type="line" smooth="yes"/>
      <point x="386.8" y="-55.1"/>
      <point x="473.8" y="-113.30000000000001"/>
      <point x="567.1" y="-130.60000000000002" type="curve"/>
      <point x="567.1" y="-136.6" type="line"/>
      <point x="403.1" y="-163.20000000000002"/>
      <point x="363.6" y="-289.5"/>
      <point x="244.0" y="-289.5" type="curve" smooth="yes"/>
      <point x="193.6" y="-289.5"/>
      <point x="150.20000000000002" y="-261.8"/>
      <point x="150.20000000000002" y="-208.0" type="curve" smooth="yes"/>
      <point x="150.20000000000002" y="-163.4"/>
      <point x="176.0" y="-131.9"/>
      <point x="224.0" y="-131.9" type="curve" smooth="yes"/>
      <point x="257.9" y="-131.9"/>
      <point x="284.79999999999995" y="-147.79999999999998"/>
      <point x="311.2" y="-173.70000000000002" type="curve"/>
      <point x="353.4" y="-124.3" type="line"/>
      <point x="313.0" y="-85.5"/>
      <point x="272.6" y="-65.6"/>
      <point x="219.9" y="-65.6" type="curve" smooth="yes"/>
      <point x="134.9" y="-65.6"/>
      <point x="80.0" y="-129.70000000000002"/>
      <point x="80.0" y="-208.0" type="curve" smooth="yes"/>
      <point x="80.0" y="-305.70000000000005"/>
      <point x="161.3" y="-373.79999999999995"/>
    </contour>
    <component base="ma-tamil"/>
  </outline>
</glyph>
<glyph name="va-tamil" format="2">
  <advance width="1076.8"/>
  <unicode hex="0BB5"/>
  <note>
uni0BB5
</note>
  <anchor x="566.1" y="0.0" name="bottom"/>
  <anchor x="831.7" y="578.4" name="imatra"/>
  <anchor x="555.7" y="0.0" name="nukta"/>
  <anchor x="540.9" y="578.4" name="top"/>
  <anchor x="545.0999999999999" y="578.4" name="vedic"/>
  <outline>
    <contour>
      <point x="264.09999999999997" y="-5.0" type="curve" smooth="yes"/>
      <point x="383.3" y="-5.0"/>
      <point x="460.6" y="63.800000000000004"/>
      <point x="460.6" y="179.20000000000002" type="curve" smooth="yes"/>
      <point x="460.6" y="272.1"/>
      <point x="404.09999999999997" y="345.6"/>
      <point x="303.79999999999995" y="345.6" type="curve" smooth="yes"/>
      <point x="184.0" y="345.6"/>
      <point x="123.0" y="238.9"/>
      <point x="121.10000000000001" y="118.8" type="curve"/>
      <point x="166.7" y="90.6" type="line"/>
      <point x="171.0" y="176.0"/>
      <point x="195.5" y="233.5"/>
      <point x="242.2" y="233.5" type="curve" smooth="yes"/>
      <point x="271.09999999999997" y="233.5"/>
      <point x="294.6" y="206.5"/>
      <point x="294.6" y="161.8" type="curve" smooth="yes"/>
      <point x="294.6" y="109.6"/>
      <point x="272.1" y="80.3"/>
      <point x="228.70000000000002" y="80.3" type="curve" smooth="yes"/>
      <point x="175.1" y="80.3"/>
      <point x="119.1" y="149.1"/>
      <point x="119.1" y="260.1" type="curve" smooth="yes"/>
      <point x="119.1" y="413.5"/>
      <point x="212.70000000000002" y="504.0"/>
      <point x="335.0" y="504.0" type="curve" smooth="yes"/>
      <point x="471.7" y="504.0"/>
      <point x="558.8000000000001" y="415.8"/>
      <point x="558.8000000000001" y="262.9" type="curve" smooth="yes"/>
      <point x="558.8000000000001" y="176.0"/>
      <point x="540.1" y="108.1"/>
      <point x="512.0" y="48.6" type="curve"/>
      <point x="535.9" y="0.0" type="line"/>
      <point x="1015.0" y="0.0" type="line"/>
      <point x="1015.0" y="578.4" type="line"/>
      <point x="825.0" y="578.4" type="line"/>
      <point x="825.0" y="69.4" type="line"/>
      <point x="638.2" y="69.4" type="line"/>
      <point x="701.2" y="131.1"/>
      <point x="741.5" y="197.7"/>
      <point x="741.5" y="292.8" type="curve" smooth="yes"/>
      <point x="741.5" y="493.29999999999995"/>
      <point x="581.6" y="583.4"/>
      <point x="391.8" y="583.4" type="curve" smooth="yes"/>
      <point x="171.29999999999998" y="583.4"/>
      <point x="44.1" y="452.4"/>
      <point x="44.1" y="261.09999999999997" type="curve" smooth="yes"/>
      <point x="44.1" y="111.10000000000001"/>
      <point x="129.8" y="-5.0"/>
    </contour>
  </outline>
</glyph>
<glyph name="ssa-tamil" format="2">
  <advance width="1478.7"/>
  <unicode hex="0BB7"/>
  <note>
uni0BB7
</note>
  <anchor x="740.4" y="0.0" name="bottom"/>
  <anchor x="596.1" y="0.0" name="nukta"/>
  <anchor x="765.8" y="578.4" name="top"/>
  <anchor x="740.4" y="578.4" name="vedic"/>
  <outline>
    <contour>
      <point x="264.09999999999997" y="-5.0" type="curve" smooth="yes"/>
      <point x="383.3" y="-5.0"/>
      <point x="460.6" y="63.800000000000004"/>
      <point x="460.6" y="179.20000000000002" type="curve" smooth="yes"/>
      <point x="460.6" y="272.1"/>
      <point x="404.09999999999997" y="345.6"/>
      <point x="303.79999999999995" y="345.6" type="curve" smooth="yes"/>
      <point x="184.0" y="345.6"/>
      <point x="123.0" y="238.9"/>
      <point x="121.10000000000001" y="118.8" type="curve"/>
      <point x="166.7" y="90.6" type="line"/>
      <point x="171.0" y="176.0"/>
      <point x="195.5" y="233.5"/>
      <point x="242.2" y="233.5" type="curve" smooth="yes"/>
      <point x="271.09999999999997" y="233.5"/>
      <point x="294.6" y="206.5"/>
      <point x="294.6" y="161.8" type="curve" smooth="yes"/>
      <point x="294.6" y="109.6"/>
      <point x="272.1" y="80.3"/>
      <point x="228.70000000000002" y="80.3" type="curve" smooth="yes"/>
      <point x="175.1" y="80.3"/>
      <point x="119.1" y="149.1"/>
      <point x="119.1" y="260.1" type="curve" smooth="yes"/>
      <point x="119.1" y="413.5"/>
      <point x="212.70000000000002" y="504.0"/>
      <point x="335.0" y="504.0" type="curve" smooth="yes"/>
      <point x="471.7" y="504.0"/>
      <point x="558.8000000000001" y="415.8"/>
      <point x="558.8000000000001" y="262.9" type="curve" smooth="yes"/>
      <point x="558.8000000000001" y="176.0"/>
      <point x="540.1" y="108.1"/>
      <point x="512.0" y="48.6" type="curve"/>
      <point x="535.9" y="0.0" type="line"/>
      <point x="1432.9" y="0.0" type="line"/>
      <point x="1432.9" y="343.5" type="line"/>
      <point x="1245.4" y="295.6" type="line"/>
      <point x="1245.4" y="69.4" type="line"/>
      <point x="638.2" y="69.4" type="line"/>
      <point x="701.2" y="131.1"/>
      <point x="741.5" y="197.7"/>
      <point x="741.5" y="292.8" type="curve" smooth="yes"/>
      <point x="741.5" y="493.29999999999995"/>
      <point x="581.6" y="583.4"/>
      <point x="391.8" y="583.4" type="curve" smooth="yes"/>
      <point x="171.29999999999998" y="583.4"/>
      <point x="44.1" y="452.4"/>
      <point x="44.1" y="261.09999999999997" type="curve" smooth="yes"/>
      <point x="44.1" y="111.10000000000001"/>
      <point x="129.8" y="-5.0"/>
    </contour>
    <contour>
      <point x="969.8" y="-293.0" type="line"/>
      <point x="1152.8" y="-293.0" type="line"/>
      <point x="1152.8" y="399.0" type="line" smooth="yes"/>
      <point x="1152.8" y="517.8000000000001"/>
      <point x="1093.3" y="584.1"/>
      <point x="980.1" y="584.1" type="curve" smooth="yes"/>
      <point x="861.1999999999999" y="584.1"/>
      <point x="809.6" y="499.2"/>
      <point x="809.6" y="410.0" type="curve" smooth="yes"/>
      <point x="809.6" y="277.2"/>
      <point x="905.7" y="199.0"/>
      <point x="1051.6000000000001" y="199.0" type="curve" smooth="yes"/>
      <point x="1193.0" y="199.0"/>
      <point x="1306.7" y="251.5"/>
      <point x="1432.9" y="337.1" type="curve"/>
      <point x="1432.9" y="348.5" type="line"/>
      <point x="1389.3" y="400.59999999999997" type="line"/>
      <point x="1272.5" y="318.0"/>
      <point x="1158.8" y="267.3"/>
      <point x="1044.9" y="267.3" type="curve" smooth="yes"/>
      <point x="947.1999999999999" y="267.3"/>
      <point x="879.8000000000001" y="312.7"/>
      <point x="879.8000000000001" y="413.6" type="curve" smooth="yes"/>
      <point x="879.8000000000001" y="453.5"/>
      <point x="900.8" y="474.40000000000003"/>
      <point x="924.5" y="474.40000000000003" type="curve" smooth="yes"/>
      <point x="953.5" y="474.40000000000003"/>
      <point x="969.8" y="453.29999999999995"/>
      <point x="969.8" y="410.4" type="curve" smooth="yes"/>
    </contour>
  </outline>
</glyph>
<glyph name="sa-tamil" format="2">
  <advance width="1335.0"/>
  <unicode hex="0BB8"/>
  <note>
uni0BB8
</note>
  <anchor x="696.9" y="0.0" name="bottom"/>
  <anchor x="693.4" y="0.0" name="nukta"/>
  <anchor x="689.2" y="578.4" name="top"/>
  <anchor x="689.1999999999999" y="578.4" name="vedic"/>
  <outline>
    <contour>
      <point x="546.2" y="0.0" type="line"/>
      <point x="736.5" y="0.0" type="line"/>
      <point x="736.5" y="433.1" type="line" smooth="yes"/>
      <point x="736.5" y="488.8"/>
      <point x="760.0" y="509.0"/>
      <point x="795.1" y="509.0" type="curve" smooth="yes"/>
      <point x="830.2" y="509.0"/>
      <point x="852.8" y="484.0"/>
      <point x="852.8" y="439.9" type="curve" smooth="yes"/>
      <point x="852.8" y="185.2" type="line" smooth="yes"/>
      <point x="852.8" y="68.4"/>
      <point x="907.9" y="-5.3"/>
      <point x="1043.0" y="-5.3" type="curve" smooth="yes"/>
      <point x="1188.1" y="-5.3"/>
      <point x="1285.9" y="106.1"/>
      <point x="1285.9" y="307.0" type="curve" smooth="yes"/>
      <point x="1285.9" y="406.7"/>
      <point x="1253.4" y="490.1"/>
      <point x="1192.0" y="582.8" type="curve"/>
      <point x="1128.1999999999998" y="543.5" type="line"/>
      <point x="1182.3" y="460.5"/>
      <point x="1211.9" y="391.1"/>
      <point x="1211.9" y="297.1" type="curve" smooth="yes"/>
      <point x="1211.9" y="157.10000000000002"/>
      <point x="1151.5" y="84.2"/>
      <point x="1094.0" y="84.2" type="curve" smooth="yes"/>
      <point x="1056.9" y="84.2"/>
      <point x="1044.6" y="111.2"/>
      <point x="1044.6" y="173.9" type="curve" smooth="yes"/>
      <point x="1044.6" y="387.09999999999997" type="line" smooth="yes"/>
      <point x="1044.6" y="521.9"/>
      <point x="936.4000000000001" y="582.1"/>
      <point x="807.1999999999999" y="582.1" type="curve" smooth="yes"/>
      <point x="689.5999999999999" y="582.1"/>
      <point x="586.8" y="527.0999999999999"/>
      <point x="586.8" y="425.3" type="curve" smooth="yes"/>
      <point x="586.8" y="351.8" type="line"/>
      <point x="546.2" y="351.8" type="line"/>
    </contour>
    <contour>
      <point x="264.6" y="-5.0" type="curve" smooth="yes"/>
      <point x="383.40000000000003" y="-5.0"/>
      <point x="460.7" y="62.3"/>
      <point x="460.7" y="177.70000000000002" type="curve" smooth="yes"/>
      <point x="460.7" y="270.6"/>
      <point x="404.6" y="345.6"/>
      <point x="303.90000000000003" y="345.6" type="curve" smooth="yes"/>
      <point x="184.1" y="345.6"/>
      <point x="124.0" y="240.10000000000002"/>
      <point x="121.2" y="118.8" type="curve"/>
      <point x="166.8" y="90.6" type="line"/>
      <point x="171.1" y="176.0"/>
      <point x="196.29999999999998" y="233.5"/>
      <point x="242.3" y="233.5" type="curve" smooth="yes"/>
      <point x="271.20000000000005" y="233.5"/>
      <point x="295.4" y="206.5"/>
      <point x="295.4" y="161.8" type="curve" smooth="yes"/>
      <point x="295.4" y="109.6"/>
      <point x="272.20000000000005" y="80.3"/>
      <point x="228.8" y="80.3" type="curve" smooth="yes"/>
      <point x="175.2" y="80.3"/>
      <point x="119.19999999999999" y="149.1"/>
      <point x="119.19999999999999" y="260.09999999999997" type="curve" smooth="yes"/>
      <point x="119.19999999999999" y="414.4"/>
      <point x="210.9" y="502.2"/>
      <point x="338.59999999999997" y="502.2" type="curve" smooth="yes"/>
      <point x="481.0" y="502.2"/>
      <point x="546.2" y="419.6"/>
      <point x="546.2" y="289.1" type="curve"/>
      <point x="626.1" y="300.0" type="line"/>
      <point x="614.3" y="500.9"/>
      <point x="479.0" y="583.1"/>
      <point x="339.5" y="583.1" type="curve" smooth="yes"/>
      <point x="152.2" y="583.1"/>
      <point x="44.9" y="449.40000000000003"/>
      <point x="44.9" y="261.09999999999997" type="curve" smooth="yes"/>
      <point x="44.9" y="111.1"/>
      <point x="130.6" y="-5.0"/>
    </contour>
  </outline>
</glyph>
<glyph name="ha-tamil" format="2">
  <advance width="1635.8000000000002"/>
  <unicode hex="0BB9"/>
  <note>
uni0BB9
</note>
  <anchor x="827.8000000000001" y="0.0" name="bottom"/>
  <anchor x="829.9000000000001" y="-133.5" name="nukta"/>
  <anchor x="857.4" y="581.1" name="top"/>
  <anchor x="843.2" y="578.4" name="vedic"/>
  <outline>
    <contour>
      <point x="246.89999999999998" y="-315.4" type="curve"/>
      <point x="246.89999999999998" y="-219.9"/>
      <point x="268.0" y="-146.8"/>
      <point x="388.1" y="-146.8" type="curve" smooth="yes"/>
      <point x="1098.6" y="-146.8" type="line" smooth="yes"/>
      <point x="1430.8" y="-146.8"/>
      <point x="1605.3000000000002" y="-20.0"/>
      <point x="1605.3000000000002" y="252.2" type="curve" smooth="yes"/>
      <point x="1605.3000000000002" y="473.3"/>
      <point x="1502.3999999999999" y="585.0"/>
      <point x="1329.1" y="585.0" type="curve" smooth="yes"/>
      <point x="1236.4" y="585.0"/>
      <point x="1164.5" y="544.6999999999999"/>
      <point x="1139.3" y="463.8" type="curve"/>
      <point x="1119.0" y="546.2"/>
      <point x="1062.3" y="584.0"/>
      <point x="984.4" y="584.0" type="curve" smooth="yes"/>
      <point x="890.4" y="584.0"/>
      <point x="830.1999999999999" y="522.1999999999999"/>
      <point x="830.1999999999999" y="415.7" type="curve" smooth="yes"/>
      <point x="830.1999999999999" y="69.4" type="line"/>
      <point x="638.2" y="69.4" type="line"/>
      <point x="701.2" y="131.1"/>
      <point x="741.5" y="197.7"/>
      <point x="741.5" y="292.8" type="curve" smooth="yes"/>
      <point x="741.5" y="493.29999999999995"/>
      <point x="581.6" y="583.4"/>
      <point x="391.8" y="583.4" type="curve" smooth="yes"/>
      <point x="171.29999999999998" y="583.4"/>
      <point x="44.1" y="452.4"/>
      <point x="44.1" y="261.09999999999997" type="curve" smooth="yes"/>
      <point x="44.1" y="111.10000000000001"/>
      <point x="129.8" y="-5.0"/>
      <point x="264.09999999999997" y="-5.0" type="curve" smooth="yes"/>
      <point x="383.3" y="-5.0"/>
      <point x="460.6" y="63.800000000000004"/>
      <point x="460.6" y="179.20000000000002" type="curve" smooth="yes"/>
      <point x="460.6" y="272.1"/>
      <point x="404.09999999999997" y="345.6"/>
      <point x="303.79999999999995" y="345.6" type="curve" smooth="yes"/>
      <point x="184.0" y="345.6"/>
      <point x="123.9" y="239.8"/>
      <point x="121.10000000000001" y="119.7" type="curve"/>
      <point x="166.7" y="90.6" type="line"/>
      <point x="171.0" y="176.0"/>
      <point x="195.5" y="233.5"/>
      <point x="242.2" y="233.5" type="curve" smooth="yes"/>
      <point x="271.09999999999997" y="233.5"/>
      <point x="294.6" y="206.5"/>
      <point x="294.6" y="161.8" type="curve" smooth="yes"/>
      <point x="294.6" y="109.6"/>
      <point x="272.1" y="80.3"/>
      <point x="228.70000000000002" y="80.3" type="curve" smooth="yes"/>
      <point x="175.1" y="80.3"/>
      <point x="119.1" y="149.1"/>
      <point x="119.1" y="260.1" type="curve" smooth="yes"/>
      <point x="119.1" y="413.5"/>
      <point x="212.70000000000002" y="504.0"/>
      <point x="335.0" y="504.0" type="curve" smooth="yes"/>
      <point x="471.7" y="504.0"/>
      <point x="558.8000000000001" y="415.8"/>
      <point x="558.8000000000001" y="262.9" type="curve" smooth="yes"/>
      <point x="558.8000000000001" y="176.0"/>
      <point x="540.1" y="108.1"/>
      <point x="512.0" y="48.6" type="curve"/>
      <point x="535.9" y="0.0" type="line"/>
      <point x="906.6999999999999" y="0.0" type="line"/>
      <point x="906.6999999999999" y="407.3" type="line" smooth="yes"/>
      <point x="906.6999999999999" y="475.1"/>
      <point x="927.5" y="505.9"/>
      <point x="971.1999999999999" y="505.9" type="curve" smooth="yes"/>
      <point x="1020.6" y="505.9"/>
      <point x="1038.7" y="471.3"/>
      <point x="1038.7" y="408.09999999999997" type="curve" smooth="yes"/>
      <point x="1038.7" y="0.30000000000000004" type="line"/>
      <point x="1234.4" y="0.30000000000000004" type="line"/>
      <point x="1234.4" y="392.79999999999995" type="line" smooth="yes"/>
      <point x="1234.4" y="470.7"/>
      <point x="1257.3000000000002" y="506.9"/>
      <point x="1307.8" y="506.9" type="curve" smooth="yes"/>
      <point x="1374.2" y="506.9"/>
      <point x="1406.6000000000001" y="440.40000000000003"/>
      <point x="1406.6000000000001" y="269.6" type="curve" smooth="yes"/>
      <point x="1406.6000000000001" y="33.60000000000001"/>
      <point x="1348.0" y="-87.60000000000001"/>
      <point x="1046.8" y="-87.60000000000001" type="curve" smooth="yes"/>
      <point x="326.0" y="-87.60000000000001" type="line" smooth="yes"/>
      <point x="207.29999999999998" y="-87.60000000000001"/>
      <point x="104.4" y="-110.5"/>
      <point x="104.4" y="-213.5" type="curve" smooth="yes"/>
      <point x="104.4" y="-284.8"/>
      <point x="161.2" y="-315.4"/>
    </contour>
  </outline>
</glyph>
<glyph name="aaMatra-tamil" format="2">
  <advance width="592.7"/>
  <unicode hex="0BBE"/>
  <note>
uni0BBE
</note>
  <anchor x="309.90000000000003" y="0.0" name="bottom"/>
  <anchor x="308.90000000000003" y="0.0" name="nukta"/>
  <anchor x="302.90000000000003" y="578.4" name="top"/>
  <anchor x="302.90000000000003" y="578.4" name="vedic"/>
  <outline>
    <contour>
      <point x="61.800000000000004" y="0.0" type="line"/>
      <point x="137.4" y="0.0" type="line"/>
      <point x="137.4" y="509.0" type="line"/>
      <point x="283.2" y="509.0" type="line"/>
      <point x="283.2" y="0.0" type="line"/>
      <point x="473.4" y="0.0" type="line"/>
      <point x="473.4" y="509.0" type="line"/>
      <point x="578.5999999999999" y="509.0" type="line"/>
      <point x="578.5999999999999" y="578.4" type="line"/>
      <point x="61.800000000000004" y="578.4" type="line"/>
    </contour>
  </outline>
</glyph>
<glyph name="iMatra-tamil" format="2">
  <advance width="224.39999999999998"/>
  <unicode hex="0BBF"/>
  <note>
uni0BBF
</note>
  <anchor x="-138.5" y="865.2" name="top"/>
  <outline>
    <contour>
      <point x="82.3" y="0.0" type="line"/>
      <point x="159.8" y="0.0" type="line"/>
      <point x="159.8" y="565.4" type="line" smooth="yes"/>
      <point x="159.8" y="783.1"/>
      <point x="17.599999999999998" y="865.2"/>
      <point x="-138.5" y="865.2" type="curve" smooth="yes"/>
      <point x="-278.59999999999997" y="865.2"/>
      <point x="-366.79999999999995" y="787.6"/>
      <point x="-366.79999999999995" y="675.2" type="curve" smooth="yes"/>
      <point x="-366.79999999999995" y="573.9000000000001"/>
      <point x="-297.3" y="514.4"/>
      <point x="-174.20000000000002" y="514.4" type="curve" smooth="yes"/>
      <point x="-172.90000000000003" y="514.4" type="line"/>
      <point x="-172.90000000000003" y="578.1" type="line"/>
      <point x="-174.20000000000002" y="578.1" type="line" smooth="yes"/>
      <point x="-223.3" y="578.1"/>
      <point x="-264.3" y="595.8000000000001"/>
      <point x="-264.3" y="641.6" type="curve" smooth="yes"/>
      <point x="-264.3" y="682.6"/>
      <point x="-222.60000000000002" y="720.3"/>
      <point x="-131.4" y="720.3" type="curve" smooth="yes"/>
      <point x="-24.9" y="720.3"/>
      <point x="82.3" y="667.1999999999999"/>
      <point x="82.3" y="519.6" type="curve" smooth="yes"/>
    </contour>
  </outline>
</glyph>
<glyph name="iiMatra-tamil" format="2">
  <unicode hex="0BC0"/>
  <note>
uni0BC0
</note>
  <anchor x="0.0" y="578.4" name="_imatra"/>
  <anchor x="1.200000000000001" y="933.8" name="top"/>
  <outline>
    <contour>
      <point x="-32.9" y="509.0" type="curve" smooth="yes"/>
      <point x="-0.7" y="509.0" type="line"/>
      <point x="-0.7" y="578.4" type="line"/>
      <point x="-27.4" y="578.4" type="line" smooth="yes"/>
      <point x="-94.30000000000001" y="578.4"/>
      <point x="-152.7" y="620.8"/>
      <point x="-152.7" y="711.6" type="curve" smooth="yes"/>
      <point x="-152.7" y="799.4"/>
      <point x="-98.60000000000001" y="859.2"/>
      <point x="-18.2" y="859.2" type="curve" smooth="yes"/>
      <point x="36.4" y="859.2"/>
      <point x="66.10000000000001" y="822.1"/>
      <point x="66.10000000000001" y="770.4" type="curve" smooth="yes"/>
      <point x="66.10000000000001" y="733.5"/>
      <point x="46.699999999999996" y="707.6"/>
      <point x="13.900000000000002" y="707.6" type="curve" smooth="yes"/>
      <point x="-40.1" y="707.6"/>
      <point x="-55.2" y="796.4"/>
      <point x="-17.6" y="882.4" type="curve"/>
      <point x="-67.2" y="887.4" type="line"/>
      <point x="-130.5" y="763.4"/>
      <point x="-95.0" y="613.2"/>
      <point x="54.800000000000004" y="613.2" type="curve" smooth="yes"/>
      <point x="138.0" y="613.2"/>
      <point x="206.60000000000002" y="663.5"/>
      <point x="206.60000000000002" y="759.3000000000001" type="curve" smooth="yes"/>
      <point x="206.60000000000002" y="862.6"/>
      <point x="125.8" y="933.8"/>
      <point x="1.200000000000001" y="933.8" type="curve" smooth="yes"/>
      <point x="-139.8" y="933.8"/>
      <point x="-226.1" y="831.1"/>
      <point x="-226.1" y="715.6" type="curve" smooth="yes"/>
      <point x="-226.1" y="584.6"/>
      <point x="-155.3" y="509.0"/>
    </contour>
  </outline>
</glyph>
<glyph name="uMatra-tamil" format="2">
  <advance width="501.1"/>
  <unicode hex="0BC1"/>
  <note>
uni0BC1
</note>
  <anchor x="162.1" y="578.4" name="top"/>
  <outline>
    <contour>
      <point x="268.70000000000005" y="230.9" type="curve" smooth="yes"/>
      <point x="389.2" y="230.9"/>
      <point x="469.8" y="296.4"/>
      <point x="469.8" y="423.3" type="curve" smooth="yes"/>
      <point x="469.8" y="578.4" type="line"/>
      <point x="-282.90000000000003" y="578.4" type="line"/>
      <point x="-225.0" y="509.0" type="line"/>
      <point x="277.9" y="509.0" type="line"/>
      <point x="277.9" y="399.29999999999995" type="line" smooth="yes"/>
      <point x="277.9" y="346.2"/>
      <point x="255.20000000000002" y="320.20000000000005"/>
      <point x="217.3" y="320.20000000000005" type="curve" smooth="yes"/>
      <point x="179.2" y="320.20000000000005"/>
      <point x="161.20000000000002" y="351.4"/>
      <point x="161.20000000000002" y="413.90000000000003" type="curve" smooth="yes"/>
      <point x="161.20000000000002" y="534.0" type="line"/>
      <point x="87.4" y="534.0" type="line"/>
      <point x="87.4" y="423.9" type="line" smooth="yes"/>
      <point x="87.4" y="299.59999999999997"/>
      <point x="147.2" y="230.9"/>
    </contour>
  </outline>
</glyph>
<glyph name="uuMatra-tamil" format="2">
  <advance width="835.8000000000001"/>
  <unicode hex="0BC2"/>
  <note>
uni0BC2
</note>
  <anchor x="385.1" y="794.1" name="top"/>
  <outline>
    <contour>
      <point x="347.5" y="8.7" type="curve" smooth="yes"/>
      <point x="571.1" y="8.7"/>
      <point x="769.7" y="131.1"/>
      <point x="769.7" y="404.3" type="curve" smooth="yes"/>
      <point x="769.7" y="663.5"/>
      <point x="604.0" y="794.1"/>
      <point x="385.1" y="794.1" type="curve" smooth="yes"/>
      <point x="171.4" y="794.1"/>
      <point x="73.3" y="662.1"/>
      <point x="73.3" y="526.8000000000001" type="curve" smooth="yes"/>
      <point x="73.3" y="425.09999999999997" type="line" smooth="yes"/>
      <point x="73.3" y="299.6"/>
      <point x="132.2" y="230.9"/>
      <point x="254.0" y="230.9" type="curve" smooth="yes"/>
      <point x="374.8" y="230.9"/>
      <point x="455.7" y="297.0"/>
      <point x="455.7" y="424.5" type="curve" smooth="yes"/>
      <point x="455.7" y="578.4" type="line"/>
      <point x="-297.29999999999995" y="578.4" type="line"/>
      <point x="-243.0" y="509.0" type="line"/>
      <point x="263.5" y="509.0" type="line"/>
      <point x="263.5" y="400.5" type="line" smooth="yes"/>
      <point x="263.5" y="346.2"/>
      <point x="241.40000000000003" y="320.20000000000005"/>
      <point x="203.5" y="320.20000000000005" type="curve" smooth="yes"/>
      <point x="165.70000000000002" y="320.20000000000005"/>
      <point x="147.10000000000002" y="352.0"/>
      <point x="147.10000000000002" y="415.1" type="curve" smooth="yes"/>
      <point x="147.10000000000002" y="526.8000000000001" type="line" smooth="yes"/>
      <point x="147.10000000000002" y="616.8000000000001"/>
      <point x="206.29999999999998" y="710.4"/>
      <point x="342.1" y="710.4" type="curve" smooth="yes"/>
      <point x="491.0" y="710.4"/>
      <point x="565.3" y="602.1"/>
      <point x="565.3" y="412.2" type="curve" smooth="yes"/>
      <point x="565.3" y="199.5"/>
      <point x="465.2" y="92.7"/>
      <point x="313.29999999999995" y="92.7" type="curve" smooth="yes"/>
      <point x="209.39999999999998" y="92.7"/>
      <point x="142.7" y="125.8"/>
      <point x="74.2" y="203.1" type="curve"/>
      <point x="17.5" y="148.9" type="line"/>
      <point x="96.5" y="62.5"/>
      <point x="177.9" y="8.7"/>
    </contour>
  </outline>
</glyph>
<glyph name="eMatra-tamil" format="2">
  <advance width="766.4000000000001"/>
  <unicode hex="0BC6"/>
  <note>
uni0BC6
</note>
  <outline>
    <contour>
      <point x="309.0" y="-5.0" type="curve" smooth="yes"/>
      <point x="427.6" y="-5.0"/>
      <point x="505.8" y="62.3"/>
      <point x="505.8" y="177.7" type="curve" smooth="yes"/>
      <point x="505.8" y="270.6"/>
      <point x="449.0" y="345.6"/>
      <point x="348.7" y="345.6" type="curve" smooth="yes"/>
      <point x="229.2" y="345.6"/>
      <point x="168.20000000000002" y="238.9"/>
      <point x="166.3" y="118.80000000000001" type="curve"/>
      <point x="211.9" y="90.6" type="line"/>
      <point x="216.20000000000002" y="176.0"/>
      <point x="240.70000000000002" y="233.5"/>
      <point x="287.40000000000003" y="233.5" type="curve" smooth="yes"/>
      <point x="316.3" y="233.5"/>
      <point x="339.79999999999995" y="206.5"/>
      <point x="339.79999999999995" y="161.8" type="curve" smooth="yes"/>
      <point x="339.79999999999995" y="109.6"/>
      <point x="317.29999999999995" y="80.3"/>
      <point x="273.9" y="80.3" type="curve" smooth="yes"/>
      <point x="210.10000000000002" y="80.3"/>
      <point x="126.6" y="176.7"/>
      <point x="126.6" y="375.90000000000003" type="curve" smooth="yes"/>
      <point x="126.6" y="590.3"/>
      <point x="249.5" y="700.7"/>
      <point x="398.59999999999997" y="700.7" type="curve" smooth="yes"/>
      <point x="514.5" y="700.7"/>
      <point x="626.0" y="642.7"/>
      <point x="626.0" y="449.8" type="curve" smooth="yes"/>
      <point x="626.0" y="0.0" type="line"/>
      <point x="701.8000000000001" y="0.0" type="line"/>
      <point x="701.8000000000001" y="497.1" type="line" smooth="yes"/>
      <point x="701.8000000000001" y="739.5"/>
      <point x="582.6999999999999" y="854.7"/>
      <point x="404.59999999999997" y="854.7" type="curve" smooth="yes"/>
      <point x="162.79999999999998" y="854.7"/>
      <point x="50.5" y="646.1999999999999"/>
      <point x="50.5" y="376.9" type="curve" smooth="yes"/>
      <point x="50.5" y="138.0"/>
      <point x="163.0" y="-5.0"/>
    </contour>
  </outline>
</glyph>
<glyph name="eeMatra-tamil" format="2">
  <advance width="597.6"/>
  <unicode hex="0BC7"/>
  <note>
uni0BC7
</note>
  <outline>
    <contour>
      <point x="368.20000000000005" y="-5.0" type="curve" smooth="yes"/>
      <point x="486.1" y="-5.0"/>
      <point x="562.9" y="62.300000000000004"/>
      <point x="562.9" y="177.7" type="curve" smooth="yes"/>
      <point x="562.9" y="270.59999999999997"/>
      <point x="504.69999999999993" y="345.59999999999997"/>
      <point x="404.4" y="345.59999999999997" type="curve" smooth="yes"/>
      <point x="283.5" y="345.59999999999997"/>
      <point x="225.1" y="235.9"/>
      <point x="223.2" y="115.8" type="curve"/>
      <point x="271.2" y="87.6" type="line"/>
      <point x="275.2" y="173.3"/>
      <point x="298.20000000000005" y="233.5"/>
      <point x="344.2" y="233.5" type="curve" smooth="yes"/>
      <point x="373.4" y="233.5"/>
      <point x="396.59999999999997" y="206.5"/>
      <point x="396.59999999999997" y="161.8" type="curve" smooth="yes"/>
      <point x="396.59999999999997" y="109.6"/>
      <point x="374.4" y="80.3"/>
      <point x="330.7" y="80.3" type="curve" smooth="yes"/>
      <point x="242.7" y="80.3"/>
      <point x="127.1" y="210.0"/>
      <point x="127.1" y="424.59999999999997" type="curve" smooth="yes"/>
      <point x="127.1" y="638.2"/>
      <point x="242.7" y="780.8"/>
      <point x="330.7" y="780.8" type="curve" smooth="yes"/>
      <point x="374.4" y="780.8"/>
      <point x="396.59999999999997" y="751.1"/>
      <point x="396.59999999999997" y="699.3" type="curve" smooth="yes"/>
      <point x="396.59999999999997" y="654.5999999999999"/>
      <point x="373.4" y="626.9"/>
      <point x="344.2" y="626.9" type="curve" smooth="yes"/>
      <point x="298.20000000000005" y="626.9"/>
      <point x="275.2" y="688.1"/>
      <point x="271.2" y="773.5" type="curve"/>
      <point x="223.2" y="745.3" type="line"/>
      <point x="225.1" y="625.2"/>
      <point x="283.5" y="515.5"/>
      <point x="404.4" y="515.5" type="curve" smooth="yes"/>
      <point x="504.69999999999993" y="515.5"/>
      <point x="562.9" y="590.5"/>
      <point x="562.9" y="683.4" type="curve" smooth="yes"/>
      <point x="562.9" y="798.8"/>
      <point x="486.1" y="866.1"/>
      <point x="368.20000000000005" y="866.1" type="curve" smooth="yes"/>
      <point x="191.1" y="866.1"/>
      <point x="51.900000000000006" y="678.5"/>
      <point x="51.900000000000006" y="424.90000000000003" type="curve" smooth="yes"/>
      <point x="51.900000000000006" y="171.0"/>
      <point x="191.1" y="-5.0"/>
    </contour>
  </outline>
</glyph>
<glyph name="aiMatra-tamil" format="2">
  <advance width="1249.4"/>
  <unicode hex="0BC8"/>
  <note>
uni0BC8
</note>
  <outline>
    <contour>
      <point x="980.8" y="-16.1" type="line"/>
      <point x="1101.3" y="29.000000000000004"/>
      <point x="1205.3" y="116.89999999999999"/>
      <point x="1205.3" y="280.0" type="curve" smooth="yes"/>
      <point x="1205.3" y="476.3"/>
      <point x="1051.8999999999999" y="584.1"/>
      <point x="863.5" y="584.1" type="curve" smooth="yes"/>
      <point x="649.8" y="584.1"/>
      <point x="514.2" y="395.3"/>
      <point x="514.2" y="202.9" type="curve" smooth="yes"/>
      <point x="514.2" y="82.89999999999999"/>
      <point x="563.8000000000001" y="-4.0"/>
      <point x="685.6" y="-4.0" type="curve" smooth="yes"/>
      <point x="805.1" y="-4.0"/>
      <point x="876.4000000000001" y="79.7"/>
      <point x="876.4000000000001" y="207.2" type="curve" smooth="yes"/>
      <point x="876.4000000000001" y="435.0"/>
      <point x="687.6999999999999" y="584.4"/>
      <point x="420.7" y="584.4" type="curve" smooth="yes"/>
      <point x="196.4" y="584.4"/>
      <point x="44.1" y="447.5"/>
      <point x="44.1" y="261.09999999999997" type="curve" smooth="yes"/>
      <point x="44.1" y="111.10000000000001"/>
      <point x="129.8" y="-5.0"/>
      <point x="264.1" y="-5.0" type="curve" smooth="yes"/>
      <point x="383.3" y="-5.0"/>
      <point x="460.59999999999997" y="63.800000000000004"/>
      <point x="460.59999999999997" y="179.20000000000002" type="curve" smooth="yes"/>
      <point x="460.59999999999997" y="272.1"/>
      <point x="404.1" y="345.6"/>
      <point x="303.8" y="345.6" type="curve" smooth="yes"/>
      <point x="184.0" y="345.6"/>
      <point x="123.0" y="238.9"/>
      <point x="121.10000000000001" y="118.8" type="curve"/>
      <point x="166.7" y="90.6" type="line"/>
      <point x="171.0" y="176.0"/>
      <point x="195.5" y="233.5"/>
      <point x="242.2" y="233.5" type="curve" smooth="yes"/>
      <point x="271.1" y="233.5"/>
      <point x="294.6" y="206.5"/>
      <point x="294.6" y="161.8" type="curve" smooth="yes"/>
      <point x="294.6" y="109.6"/>
      <point x="272.1" y="80.3"/>
      <point x="228.7" y="80.3" type="curve" smooth="yes"/>
      <point x="175.10000000000002" y="80.3"/>
      <point x="119.1" y="149.1"/>
      <point x="119.1" y="260.1" type="curve" smooth="yes"/>
      <point x="119.1" y="414.4"/>
      <point x="254.1" y="509.3"/>
      <point x="398.5" y="509.3" type="curve" smooth="yes"/>
      <point x="591.3" y="509.3"/>
      <point x="712.5999999999999" y="374.0"/>
      <point x="712.5999999999999" y="189.9" type="curve" smooth="yes"/>
      <point x="712.5999999999999" y="122.3"/>
      <point x="691.6999999999999" y="83.5"/>
      <point x="649.6" y="83.5" type="curve" smooth="yes"/>
      <point x="612.1" y="83.5"/>
      <point x="587.1" y="123.1"/>
      <point x="587.1" y="195.8" type="curve" smooth="yes"/>
      <point x="587.1" y="370.2"/>
      <point x="690.4" y="509.0"/>
      <point x="834.0" y="509.0" type="curve" smooth="yes"/>
      <point x="960.8000000000001" y="509.0"/>
      <point x="1041.8000000000002" y="430.4"/>
      <point x="1041.8000000000002" y="278.59999999999997" type="curve" smooth="yes"/>
      <point x="1041.8000000000002" y="162.5"/>
      <point x="1007.9" y="95.6"/>
      <point x="947.3000000000001" y="35.7" type="curve"/>
    </contour>
  </outline>
</glyph>
<glyph name="halant-tamil" format="2">
  <unicode hex="0BCD"/>
  <note>
uni0BCD
</note>
  <anchor x="0.0" y="578.4" name="_top"/>
  <outline>
    <contour>
      <point x="0.0" y="642.6" type="curve" smooth="yes"/>
      <point x="51.1" y="642.6"/>
      <point x="94.2" y="684.1"/>
      <point x="94.2" y="733.5" type="curve" smooth="yes"/>
      <point x="94.2" y="783.3"/>
      <point x="51.4" y="825.1"/>
      <point x="1.0" y="825.1" type="curve" smooth="yes"/>
      <point x="-51.1" y="825.1"/>
      <point x="-93.2" y="783.3"/>
      <point x="-93.2" y="733.5" type="curve" smooth="yes"/>
      <point x="-93.2" y="684.1"/>
      <point x="-51.4" y="642.6"/>
    </contour>
  </outline>
</glyph>
<glyph name="om-tamil" format="2">
  <advance width="1008.0"/>
  <unicode hex="0BD0"/>
  <note>
uni0BD0
</note>
  <outline>
    <contour>
      <point x="340.0" y="-398.59999999999997" type="curve" smooth="yes"/>
      <point x="624.8" y="-398.59999999999997"/>
      <point x="628.3" y="-166.4"/>
      <point x="775.6" y="-166.4" type="curve" smooth="yes"/>
      <point x="831.7" y="-166.4" type="line"/>
      <point x="831.7" y="-98.0" type="line"/>
      <point x="745.5" y="-98.0" type="line" smooth="yes"/>
      <point x="590.4" y="-98.0"/>
      <point x="511.2" y="53.50000000000001"/>
      <point x="599.3" y="228.20000000000002" type="curve"/>
      <point x="605.3" y="224.9" type="line"/>
      <point x="580.2" y="103.8"/>
      <point x="619.1" y="-2.7"/>
      <point x="766.6" y="-2.7" type="curve" smooth="yes"/>
      <point x="878.8" y="-2.7"/>
      <point x="963.9000000000001" y="67.3"/>
      <point x="963.9000000000001" y="205.1" type="curve" smooth="yes"/>
      <point x="963.9000000000001" y="454.40000000000003"/>
      <point x="742.6999999999999" y="584.7"/>
      <point x="469.4" y="584.7" type="curve" smooth="yes"/>
      <point x="207.9" y="584.7"/>
      <point x="44.1" y="431.09999999999997"/>
      <point x="44.1" y="253.5" type="curve" smooth="yes"/>
      <point x="44.1" y="108.5"/>
      <point x="128.3" y="4.7"/>
      <point x="265.0" y="4.7" type="curve" smooth="yes"/>
      <point x="385.70000000000005" y="4.7"/>
      <point x="460.0" y="77.1"/>
      <point x="460.0" y="185.9" type="curve" smooth="yes"/>
      <point x="460.0" y="282.0"/>
      <point x="402.59999999999997" y="355.6"/>
      <point x="303.5" y="355.6" type="curve" smooth="yes"/>
      <point x="185.2" y="355.6"/>
      <point x="124.5" y="248.0"/>
      <point x="119.89999999999999" y="128.1" type="curve"/>
      <point x="165.5" y="93.9" type="line"/>
      <point x="169.8" y="184.7"/>
      <point x="195.8" y="243.2"/>
      <point x="242.5" y="243.2" type="curve" smooth="yes"/>
      <point x="272.29999999999995" y="243.2"/>
      <point x="295.2" y="214.60000000000002"/>
      <point x="295.2" y="170.6" type="curve" smooth="yes"/>
      <point x="295.2" y="118.7"/>
      <point x="273.59999999999997" y="89.3"/>
      <point x="230.5" y="89.3" type="curve" smooth="yes"/>
      <point x="176.0" y="89.3"/>
      <point x="118.8" y="150.5"/>
      <point x="118.8" y="251.6" type="curve" smooth="yes"/>
      <point x="118.8" y="406.5"/>
      <point x="274.3" y="512.2"/>
      <point x="454.70000000000005" y="512.2" type="curve" smooth="yes"/>
      <point x="641.5" y="512.2"/>
      <point x="787.1" y="414.9"/>
      <point x="787.1" y="224.4" type="curve" smooth="yes"/>
      <point x="787.1" y="125.3"/>
      <point x="753.5" y="89.60000000000001"/>
      <point x="710.9" y="89.60000000000001" type="curve" smooth="yes"/>
      <point x="658.5" y="89.60000000000001"/>
      <point x="635.3" y="167.5"/>
      <point x="677.6" y="277.7" type="curve"/>
      <point x="592.0" y="323.1" type="line"/>
      <point x="440.5" y="111.1"/>
      <point x="489.8" y="-65.1"/>
      <point x="626.2" y="-126.80000000000001" type="curve"/>
      <point x="626.2" y="-131.8" type="line"/>
      <point x="501.7" y="-145.9"/>
      <point x="514.3" y="-322.29999999999995"/>
      <point x="307.90000000000003" y="-322.29999999999995" type="curve" smooth="yes"/>
      <point x="192.1" y="-322.29999999999995"/>
      <point x="129.5" y="-260.4"/>
      <point x="146.7" y="-169.20000000000002" type="curve"/>
      <point x="81.60000000000001" y="-156.8" type="line"/>
      <point x="59.7" y="-285.7"/>
      <point x="142.0" y="-398.59999999999997"/>
    </contour>
    <contour>
      <point x="202.1" y="-259.4" type="line"/>
      <point x="256.9" y="-259.4" type="line"/>
      <point x="256.9" y="-102.4" type="line"/>
      <point x="202.1" y="-102.4" type="line"/>
    </contour>
    <contour>
      <point x="220.29999999999998" y="-259.4" type="line"/>
      <point x="411.8" y="-259.4" type="line"/>
      <point x="411.8" y="-209.79999999999998" type="line"/>
      <point x="220.29999999999998" y="-209.79999999999998" type="line"/>
    </contour>
    <contour>
      <point x="293.29999999999995" y="-259.4" type="line"/>
      <point x="346.5" y="-259.4" type="line"/>
      <point x="346.5" y="-167.0" type="line" smooth="yes"/>
      <point x="346.5" y="-154.8"/>
      <point x="352.7" y="-146.7"/>
      <point x="362.70000000000005" y="-146.7" type="curve" smooth="yes"/>
      <point x="375.40000000000003" y="-146.7"/>
      <point x="380.9" y="-154.8"/>
      <point x="380.9" y="-167.0" type="curve" smooth="yes"/>
      <point x="380.9" y="-259.4" type="line"/>
      <point x="435.0" y="-259.4" type="line"/>
      <point x="435.0" y="-174.29999999999998" type="line" smooth="yes"/>
      <point x="435.0" y="-120.39999999999999"/>
      <point x="401.8" y="-100.1"/>
      <point x="362.70000000000005" y="-100.1" type="curve" smooth="yes"/>
      <point x="324.2" y="-100.1"/>
      <point x="293.29999999999995" y="-120.39999999999999"/>
      <point x="293.29999999999995" y="-174.29999999999998" type="curve" smooth="yes"/>
    </contour>
    <contour>
      <point x="322.0" y="-83.2" type="curve" smooth="yes"/>
      <point x="340.20000000000005" y="-83.2"/>
      <point x="355.5" y="-67.89999999999999"/>
      <point x="355.5" y="-51.0" type="curve" smooth="yes"/>
      <point x="355.5" y="-33.400000000000006"/>
      <point x="340.20000000000005" y="-18.5"/>
      <point x="322.0" y="-18.5" type="curve" smooth="yes"/>
      <point x="303.40000000000003" y="-18.5"/>
      <point x="289.2" y="-33.400000000000006"/>
      <point x="289.2" y="-51.0" type="curve" smooth="yes"/>
      <point x="289.2" y="-67.89999999999999"/>
      <point x="303.40000000000003" y="-83.2"/>
    </contour>
  </outline>
</glyph>
<glyph name="zero-tamil" format="2">
  <advance width="588.6"/>
  <unicode hex="0BE6"/>
  <note>
uni0BE6
</note>
  <outline>
    <contour>
      <point x="282.7" y="-5.0" type="curve" smooth="yes"/>
      <point x="442.4" y="-5.0"/>
      <point x="544.5" y="102.7"/>
      <point x="544.5" y="289.2" type="curve" smooth="yes"/>
      <point x="544.5" y="480.7"/>
      <point x="445.5" y="584.4"/>
      <point x="292.7" y="584.4" type="curve" smooth="yes"/>
      <point x="134.9" y="584.4"/>
      <point x="44.099999999999994" y="460.9"/>
      <point x="44.099999999999994" y="282.0" type="curve" smooth="yes"/>
      <point x="44.099999999999994" y="112.4"/>
      <point x="125.60000000000001" y="-5.0"/>
    </contour>
    <contour>
      <point x="252.9" y="82.30000000000001" type="curve" smooth="yes"/>
      <point x="158.1" y="82.30000000000001"/>
      <point x="117.39999999999999" y="170.7"/>
      <point x="117.39999999999999" y="289.2" type="curve" smooth="yes"/>
      <point x="117.39999999999999" y="413.7"/>
      <point x="163.1" y="496.1"/>
      <point x="252.9" y="496.1" type="curve" smooth="yes"/>
      <point x="338.2" y="496.1"/>
      <point x="383.2" y="426.79999999999995"/>
      <point x="383.2" y="289.2" type="curve" smooth="yes"/>
      <point x="383.2" y="156.9"/>
      <point x="335.29999999999995" y="82.30000000000001"/>
    </contour>
  </outline>
</glyph>
<glyph name="one-tamil" format="2">
  <advance width="832.4"/>
  <unicode hex="0BE7"/>
  <note>
uni0BE7
</note>
  <outline>
    <contour>
      <point x="262.3" y="-4.0" type="curve" smooth="yes"/>
      <point x="419.59999999999997" y="-4.0"/>
      <point x="516.9" y="76.4"/>
      <point x="516.9" y="214.1" type="curve" smooth="yes"/>
      <point x="516.9" y="272.7" type="line"/>
      <point x="532.2" y="272.7" type="line" smooth="yes"/>
      <point x="579.3000000000001" y="272.7"/>
      <point x="607.4" y="240.7"/>
      <point x="607.4" y="170.3" type="curve" smooth="yes"/>
      <point x="607.4" y="99.7"/>
      <point x="575.6" y="76.7"/>
      <point x="540.1999999999999" y="76.7" type="curve" smooth="yes"/>
      <point x="506.2" y="76.7"/>
      <point x="487.1" y="98.0"/>
      <point x="465.8" y="134.3" type="curve"/>
      <point x="416.20000000000005" y="92.2" type="line"/>
      <point x="453.09999999999997" y="34.9"/>
      <point x="499.8" y="-5.0"/>
      <point x="584.8" y="-5.0" type="curve" smooth="yes"/>
      <point x="688.8" y="-5.0"/>
      <point x="787.5" y="40.8"/>
      <point x="787.5" y="169.4" type="curve" smooth="yes"/>
      <point x="787.5" y="297.9"/>
      <point x="689.6999999999999" y="342.4"/>
      <point x="546.2" y="342.4" type="curve" smooth="yes"/>
      <point x="516.9" y="342.4" type="line"/>
      <point x="516.9" y="508.7" type="line"/>
      <point x="648.0" y="508.7" type="line"/>
      <point x="648.0" y="578.4" type="line"/>
      <point x="140.0" y="578.4" type="line"/>
      <point x="140.0" y="305.1" type="line"/>
      <point x="214.5" y="305.1" type="line"/>
      <point x="214.5" y="508.7" type="line"/>
      <point x="324.5" y="508.7" type="line"/>
      <point x="324.5" y="342.4" type="line"/>
      <point x="211.2" y="342.4" type="line" smooth="yes"/>
      <point x="126.0" y="342.4"/>
      <point x="44.9" y="275.2"/>
      <point x="44.9" y="178.29999999999998" type="curve" smooth="yes"/>
      <point x="44.9" y="72.30000000000001"/>
      <point x="112.9" y="-4.0"/>
    </contour>
    <contour>
      <point x="213.6" y="79.5" type="curve" smooth="yes"/>
      <point x="163.70000000000002" y="79.5"/>
      <point x="117.6" y="112.7"/>
      <point x="117.6" y="175.7" type="curve" smooth="yes"/>
      <point x="117.6" y="230.70000000000002"/>
      <point x="147.8" y="272.7"/>
      <point x="212.3" y="272.7" type="curve" smooth="yes"/>
      <point x="324.5" y="272.7" type="line"/>
      <point x="324.5" y="202.4" type="line" smooth="yes"/>
      <point x="324.5" y="116.4"/>
      <point x="282.0" y="79.5"/>
    </contour>
  </outline>
</glyph>
<glyph name="two-tamil" format="2">
  <advance width="926.1"/>
  <unicode hex="0BE8"/>
  <note>
uni0BE8
</note>
  <outline>
    <contour>
      <point x="148.79999999999998" y="0.0" type="curve" smooth="yes"/>
      <point x="909.0999999999999" y="0.0" type="line"/>
      <point x="909.0999999999999" y="69.4" type="line"/>
      <point x="144.20000000000002" y="69.4" type="line" smooth="yes"/>
      <point x="130.3" y="69.4"/>
      <point x="117.3" y="81.6"/>
      <point x="117.3" y="100.6" type="curve" smooth="yes"/>
      <point x="117.3" y="119.6"/>
      <point x="130.3" y="130.7"/>
      <point x="144.20000000000002" y="130.7" type="curve" smooth="yes"/>
      <point x="364.8" y="130.7" type="line" smooth="yes"/>
      <point x="566.0" y="130.7"/>
      <point x="664.8" y="214.29999999999998"/>
      <point x="664.8" y="355.6" type="curve" smooth="yes"/>
      <point x="664.8" y="506.2"/>
      <point x="555.0" y="583.4"/>
      <point x="386.3" y="583.4" type="curve" smooth="yes"/>
      <point x="215.70000000000002" y="583.4"/>
      <point x="129.9" y="485.9"/>
      <point x="129.9" y="359.5" type="curve" smooth="yes"/>
      <point x="129.9" y="231.3"/>
      <point x="181.3" y="152.6"/>
      <point x="338.0" y="152.6" type="curve"/>
      <point x="339.0" y="195.8" type="line"/>
      <point x="227.4" y="195.8"/>
      <point x="199.29999999999998" y="261.8"/>
      <point x="199.29999999999998" y="357.8" type="curve" smooth="yes"/>
      <point x="199.29999999999998" y="454.5"/>
      <point x="257.0" y="513.6"/>
      <point x="341.90000000000003" y="513.6" type="curve" smooth="yes"/>
      <point x="424.6" y="513.6"/>
      <point x="489.20000000000005" y="465.9"/>
      <point x="489.20000000000005" y="357.8" type="curve" smooth="yes"/>
      <point x="489.20000000000005" y="254.2"/>
      <point x="433.5" y="195.8"/>
      <point x="339.0" y="195.8" type="curve" smooth="yes"/>
      <point x="148.79999999999998" y="195.8" type="line" smooth="yes"/>
      <point x="86.7" y="195.8"/>
      <point x="48.5" y="158.5"/>
      <point x="48.5" y="100.3" type="curve" smooth="yes"/>
      <point x="48.5" y="41.1"/>
      <point x="86.7" y="0.0"/>
    </contour>
  </outline>
</glyph>
<glyph name="three-tamil" format="2">
  <advance width="811.9"/>
  <unicode hex="0BE9"/>
  <note>
uni0BE9
</note>
  <outline>
    <contour>
      <point x="61.800000000000004" y="0.0" type="line"/>
      <point x="138.89999999999998" y="0.0" type="line"/>
      <point x="138.89999999999998" y="509.0" type="line"/>
      <point x="239.0" y="509.0" type="line"/>
      <point x="239.0" y="175.0" type="line"/>
      <point x="412.59999999999997" y="175.0" type="line"/>
      <point x="412.59999999999997" y="244.20000000000002" type="line" smooth="yes"/>
      <point x="412.59999999999997" y="267.70000000000005"/>
      <point x="422.7" y="285.9"/>
      <point x="444.40000000000003" y="285.9" type="curve" smooth="yes"/>
      <point x="469.7" y="285.9"/>
      <point x="481.6" y="263.8"/>
      <point x="481.6" y="215.3" type="curve" smooth="yes"/>
      <point x="481.6" y="132.4"/>
      <point x="434.7" y="69.4"/>
      <point x="352.3" y="69.4" type="curve" smooth="yes"/>
      <point x="239.0" y="69.4" type="line"/>
      <point x="239.0" y="0.0" type="line"/>
      <point x="797.8" y="0.0" type="line"/>
      <point x="797.8" y="69.4" type="line"/>
      <point x="514.1999999999999" y="69.4" type="line"/>
      <point x="599.9000000000001" y="95.8"/>
      <point x="656.5" y="160.7"/>
      <point x="656.5" y="252.0" type="curve" smooth="yes"/>
      <point x="656.5" y="343.90000000000003"/>
      <point x="609.6999999999999" y="398.9"/>
      <point x="527.3000000000001" y="398.9" type="curve" smooth="yes"/>
      <point x="472.09999999999997" y="398.9"/>
      <point x="440.1" y="369.0"/>
      <point x="418.3" y="337.8" type="curve"/>
      <point x="418.3" y="509.0" type="line"/>
      <point x="557.0" y="509.0" type="line"/>
      <point x="557.0" y="578.4" type="line"/>
      <point x="61.800000000000004" y="578.4" type="line"/>
    </contour>
  </outline>
</glyph>
<glyph name="five-tamil" format="2">
  <advance width="1110.7"/>
  <unicode hex="0BEB"/>
  <note>
uni0BEB
</note>
  <outline>
    <contour>
      <point x="534.8" y="-293.3" type="curve" smooth="yes"/>
      <point x="761.8000000000001" y="-293.3"/>
      <point x="995.3" y="-164.9"/>
      <point x="995.3" y="101.2" type="curve" smooth="yes"/>
      <point x="995.3" y="270.8"/>
      <point x="915.3" y="357.4"/>
      <point x="807.9" y="357.4" type="curve" smooth="yes"/>
      <point x="704.5" y="357.4"/>
      <point x="646.9" y="274.20000000000005"/>
      <point x="646.9" y="165.5" type="curve" smooth="yes"/>
      <point x="646.9" y="140.5" type="line"/>
      <point x="669.5" y="140.5" type="line"/>
      <point x="669.5" y="163.0" type="line" smooth="yes"/>
      <point x="669.5" y="210.9"/>
      <point x="697.2" y="242.29999999999998"/>
      <point x="738.5" y="242.29999999999998" type="curve" smooth="yes"/>
      <point x="785.9" y="242.29999999999998"/>
      <point x="824.7" y="203.9"/>
      <point x="824.7" y="101.2" type="curve" smooth="yes"/>
      <point x="824.7" y="-114.0"/>
      <point x="694.8" y="-217.4"/>
      <point x="519.5" y="-217.4" type="curve" smooth="yes"/>
      <point x="283.6" y="-217.4"/>
      <point x="132.8" y="-44.0"/>
      <point x="132.8" y="250.5" type="curve" smooth="yes"/>
      <point x="132.8" y="548.2"/>
      <point x="297.2" y="708.9"/>
      <point x="547.4" y="708.9" type="curve" smooth="yes"/>
      <point x="734.3" y="708.9"/>
      <point x="927.8000000000001" y="658.9"/>
      <point x="978.6" y="396.9" type="curve"/>
      <point x="1054.0" y="396.9" type="line"/>
      <point x="1014.8" y="706.3"/>
      <point x="829.5" y="854.7"/>
      <point x="554.5999999999999" y="854.7" type="curve" smooth="yes"/>
      <point x="220.0" y="854.7"/>
      <point x="52.0" y="598.1"/>
      <point x="52.0" y="250.8" type="curve" smooth="yes"/>
      <point x="52.0" y="-80.4"/>
      <point x="228.2" y="-293.3"/>
    </contour>
    <contour>
      <point x="294.0" y="0.0" type="line"/>
      <point x="369.6" y="0.0" type="line"/>
      <point x="369.6" y="509.0" type="line"/>
      <point x="479.6" y="509.0" type="line"/>
      <point x="479.6" y="0.0" type="line"/>
      <point x="669.5" y="0.0" type="line"/>
      <point x="669.5" y="509.0" type="line"/>
      <point x="805.9" y="509.0" type="line"/>
      <point x="805.9" y="578.4" type="line"/>
      <point x="294.0" y="578.4" type="line"/>
    </contour>
  </outline>
</glyph>
<glyph name="six-tamil" format="2">
  <advance width="1150.3"/>
  <unicode hex="0BEC"/>
  <note>
uni0BEC
</note>
  <outline>
    <contour>
      <point x="262.0" y="-4.0" type="curve" smooth="yes"/>
      <point x="418.7" y="-4.0"/>
      <point x="516.2" y="76.4"/>
      <point x="516.2" y="214.1" type="curve" smooth="yes"/>
      <point x="516.2" y="272.7" type="line"/>
      <point x="551.0" y="272.7" type="line" smooth="yes"/>
      <point x="581.6" y="272.7"/>
      <point x="599.5" y="254.9"/>
      <point x="599.5" y="219.1" type="curve" smooth="yes"/>
      <point x="599.5" y="0.0" type="line"/>
      <point x="782.8" y="0.0" type="line"/>
      <point x="782.8" y="219.1" type="line" smooth="yes"/>
      <point x="782.8" y="255.6"/>
      <point x="799.7" y="272.7"/>
      <point x="831.6999999999999" y="272.7" type="curve" smooth="yes"/>
      <point x="1117.8" y="272.7" type="line"/>
      <point x="1117.8" y="342.4" type="line"/>
      <point x="789.6" y="342.4" type="line" smooth="yes"/>
      <point x="741.4" y="342.4"/>
      <point x="704.5" y="314.8"/>
      <point x="691.5" y="264.40000000000003" type="curve"/>
      <point x="677.8" y="314.8"/>
      <point x="641.6" y="342.4"/>
      <point x="589.9000000000001" y="342.4" type="curve" smooth="yes"/>
      <point x="516.2" y="342.4" type="line"/>
      <point x="516.2" y="508.7" type="line"/>
      <point x="651.9" y="508.7" type="line"/>
      <point x="651.9" y="578.4" type="line"/>
      <point x="140.0" y="578.4" type="line"/>
      <point x="140.0" y="304.2" type="line"/>
      <point x="214.5" y="304.2" type="line"/>
      <point x="214.5" y="508.7" type="line"/>
      <point x="325.9" y="508.7" type="line"/>
      <point x="325.9" y="342.4" type="line"/>
      <point x="212.1" y="342.4" type="line" smooth="yes"/>
      <point x="125.7" y="342.4"/>
      <point x="44.9" y="277.9"/>
      <point x="44.9" y="179.8" type="curve" smooth="yes"/>
      <point x="44.9" y="73.8"/>
      <point x="112.3" y="-4.0"/>
    </contour>
    <contour>
      <point x="213.6" y="79.5" type="curve" smooth="yes"/>
      <point x="161.0" y="79.5"/>
      <point x="117.6" y="114.2"/>
      <point x="117.6" y="177.2" type="curve" smooth="yes"/>
      <point x="117.6" y="232.2"/>
      <point x="148.70000000000002" y="272.7"/>
      <point x="213.20000000000002" y="272.7" type="curve" smooth="yes"/>
      <point x="325.9" y="272.7" type="line"/>
      <point x="325.9" y="202.4" type="line" smooth="yes"/>
      <point x="325.9" y="116.4"/>
      <point x="282.0" y="79.5"/>
    </contour>
    <contour>
      <point x="874.6" y="0.0" type="line"/>
      <point x="1059.6" y="0.0" type="line"/>
      <point x="1059.6" y="297.0" type="line"/>
      <point x="874.6" y="297.0" type="line"/>
    </contour>
  </outline>
</glyph>
<glyph name="eight-tamil" format="2">
  <advance width="1267.9"/>
  <unicode hex="0BEE"/>
  <note>
uni0BEE
</note>
  <outline>
    <contour>
      <point x="1017.1" y="-237.2" type="line"/>
      <point x="1206.1000000000001" y="-237.2" type="line"/>
      <point x="1206.1000000000001" y="578.4" type="line"/>
      <point x="1017.1" y="578.4" type="line"/>
      <point x="1017.1" y="154.3" type="line"/>
      <point x="111.60000000000001" y="154.3" type="line" smooth="yes"/>
      <point x="60.4" y="154.3"/>
      <point x="22.0" y="119.9"/>
      <point x="22.0" y="71.0" type="curve" smooth="yes"/>
      <point x="22.0" y="-69.4"/>
      <point x="201.1" y="-166.2"/>
      <point x="402.3" y="-166.2" type="curve" smooth="yes"/>
      <point x="673.5999999999999" y="-166.2"/>
      <point x="920.7" y="-42.7"/>
      <point x="920.7" y="232.2" type="curve" smooth="yes"/>
      <point x="920.7" y="450.59999999999997"/>
      <point x="780.3" y="583.4"/>
      <point x="581.7" y="583.4" type="curve" smooth="yes"/>
      <point x="395.09999999999997" y="583.4"/>
      <point x="323.4" y="454.1"/>
      <point x="323.4" y="320.3" type="curve" smooth="yes"/>
      <point x="323.4" y="251.4"/>
      <point x="346.90000000000003" y="185.0"/>
      <point x="385.5" y="121.6" type="curve"/>
      <point x="461.09999999999997" y="121.3" type="line"/>
      <point x="417.0" y="191.3"/>
      <point x="400.40000000000003" y="250.2"/>
      <point x="400.40000000000003" y="314.1" type="curve" smooth="yes"/>
      <point x="400.40000000000003" y="425.70000000000005"/>
      <point x="454.40000000000003" y="509.9"/>
      <point x="556.4" y="509.9" type="curve" smooth="yes"/>
      <point x="670.3" y="509.9"/>
      <point x="745.7" y="423.6"/>
      <point x="745.7" y="250.8" type="curve" smooth="yes"/>
      <point x="745.7" y="-5.0000000000000036"/>
      <point x="577.4" y="-94.7"/>
      <point x="376.9" y="-94.7" type="curve" smooth="yes"/>
      <point x="230.9" y="-94.7"/>
      <point x="106.5" y="-18.8"/>
      <point x="106.5" y="55.2" type="curve" smooth="yes"/>
      <point x="106.5" y="74.2"/>
      <point x="117.5" y="83.2"/>
      <point x="138.9" y="83.2" type="curve" smooth="yes"/>
      <point x="1017.1" y="83.2" type="line"/>
    </contour>
  </outline>
</glyph>
<glyph name="nine-tamil" format="2">
  <advance width="1185.6"/>
  <unicode hex="0BEF"/>
  <note>
uni0BEF
</note>
  <outline>
    <contour>
      <point x="975.4" y="-16.8" type="line"/>
      <point x="1081.6" y="22.099999999999998"/>
      <point x="1150.9" y="88.69999999999999"/>
      <point x="1150.9" y="204.4" type="curve" smooth="yes"/>
      <point x="1150.9" y="360.4"/>
      <point x="1016.3000000000001" y="441.4"/>
      <point x="860.1" y="441.4" type="curve" smooth="yes"/>
      <point x="677.9" y="441.4"/>
      <point x="574.4" y="330.9"/>
      <point x="574.4" y="183.0" type="curve" smooth="yes"/>
      <point x="574.4" y="68.9"/>
      <point x="629.1999999999999" y="-4.7"/>
      <point x="737.2" y="-4.7" type="curve" smooth="yes"/>
      <point x="826.9" y="-4.7"/>
      <point x="901.0999999999999" y="50.6"/>
      <point x="901.0999999999999" y="156.0" type="curve" smooth="yes"/>
      <point x="901.0999999999999" y="275.8"/>
      <point x="804.1" y="342.4"/>
      <point x="675.6999999999999" y="342.4" type="curve" smooth="yes"/>
      <point x="516.2" y="342.4" type="line"/>
      <point x="516.2" y="508.7" type="line"/>
      <point x="648.6" y="508.7" type="line"/>
      <point x="648.6" y="578.4" type="line"/>
      <point x="140.0" y="578.4" type="line"/>
      <point x="140.0" y="304.2" type="line"/>
      <point x="214.5" y="304.2" type="line"/>
      <point x="214.5" y="508.7" type="line"/>
      <point x="325.9" y="508.7" type="line"/>
      <point x="325.9" y="342.4" type="line"/>
      <point x="212.1" y="342.4" type="line" smooth="yes"/>
      <point x="125.7" y="342.4"/>
      <point x="44.9" y="277.9"/>
      <point x="44.9" y="179.8" type="curve" smooth="yes"/>
      <point x="44.9" y="73.8"/>
      <point x="112.3" y="-4.0"/>
      <point x="262.0" y="-4.0" type="curve" smooth="yes"/>
      <point x="419.0" y="-4.0"/>
      <point x="516.2" y="76.4"/>
      <point x="516.2" y="214.1" type="curve" smooth="yes"/>
      <point x="516.2" y="272.7" type="line"/>
      <point x="648.0999999999999" y="272.7" type="line" smooth="yes"/>
      <point x="711.1" y="272.7"/>
      <point x="746.4" y="223.4"/>
      <point x="746.4" y="151.70000000000002" type="curve" smooth="yes"/>
      <point x="746.4" y="100.3"/>
      <point x="724.6" y="78.4"/>
      <point x="699.6" y="78.4" type="curve" smooth="yes"/>
      <point x="668.5" y="78.4"/>
      <point x="640.5" y="116.4"/>
      <point x="640.5" y="182.5" type="curve" smooth="yes"/>
      <point x="640.5" y="295.9"/>
      <point x="717.6999999999999" y="365.3"/>
      <point x="816.6999999999999" y="365.3" type="curve" smooth="yes"/>
      <point x="905.6999999999999" y="365.3"/>
      <point x="989.1" y="308.59999999999997"/>
      <point x="989.1" y="191.8" type="curve" smooth="yes"/>
      <point x="989.1" y="124.7"/>
      <point x="970.5" y="79.60000000000001"/>
      <point x="940.1999999999999" y="35.0" type="curve"/>
    </contour>
    <contour>
      <point x="213.6" y="79.5" type="curve" smooth="yes"/>
      <point x="161.0" y="79.5"/>
      <point x="117.6" y="114.2"/>
      <point x="117.6" y="177.2" type="curve" smooth="yes"/>
      <point x="117.6" y="232.2"/>
      <point x="148.70000000000002" y="272.7"/>
      <point x="213.20000000000002" y="272.7" type="curve" smooth="yes"/>
      <point x="325.9" y="272.7" type="line"/>
      <point x="325.9" y="202.4" type="line" smooth="yes"/>
      <point x="325.9" y="116.4"/>
      <point x="282.0" y="79.5"/>
    </contour>
  </outline>
</glyph>
<glyph name="ten-tamil" format="2">
  <advance width="873.4000000000001"/>
  <unicode hex="0BF0"/>
  <note>
uni0BF0
</note>
  <outline>
    <contour>
      <point x="542.7" y="-5.0" type="curve" smooth="yes"/>
      <point x="696.1" y="-5.0"/>
      <point x="820.3" y="125.4"/>
      <point x="820.3" y="351.1" type="curve" smooth="yes"/>
      <point x="820.3" y="639.7"/>
      <point x="668.9" y="804.3"/>
      <point x="349.2" y="839.7" type="curve"/>
      <point x="340.6" y="766.1" type="line"/>
      <point x="616.5999999999999" y="734.8"/>
      <point x="744.2" y="597.8"/>
      <point x="744.2" y="360.1" type="curve" smooth="yes"/>
      <point x="744.2" y="162.7"/>
      <point x="657.6999999999999" y="80.0"/>
      <point x="586.6" y="80.0" type="curve" smooth="yes"/>
      <point x="557.6" y="80.0"/>
      <point x="543.6" y="97.60000000000001"/>
      <point x="543.6" y="128.8" type="curve" smooth="yes"/>
      <point x="543.6" y="578.4" type="line"/>
      <point x="361.7" y="578.4" type="line"/>
      <point x="361.7" y="166.1" type="line" smooth="yes"/>
      <point x="361.7" y="50.1"/>
      <point x="430.4" y="-5.0"/>
    </contour>
    <contour>
      <point x="235.9" y="-10.9" type="curve" smooth="yes"/>
      <point x="312.2" y="-10.9"/>
      <point x="400.3" y="26.8"/>
      <point x="400.3" y="135.0" type="curve" smooth="yes"/>
      <point x="400.3" y="208.0" type="line"/>
      <point x="361.7" y="208.0" type="line"/>
      <point x="361.7" y="136.2" type="line" smooth="yes"/>
      <point x="361.7" y="96.10000000000001"/>
      <point x="335.40000000000003" y="80.0"/>
      <point x="310.8" y="80.0" type="curve" smooth="yes"/>
      <point x="280.90000000000003" y="80.0"/>
      <point x="259.79999999999995" y="92.9"/>
      <point x="259.79999999999995" y="144.70000000000002" type="curve" smooth="yes"/>
      <point x="259.79999999999995" y="578.4" type="line"/>
      <point x="70.5" y="578.4" type="line"/>
      <point x="70.5" y="165.79999999999998" type="line" smooth="yes"/>
      <point x="70.5" y="47.2"/>
      <point x="141.5" y="-10.9"/>
    </contour>
  </outline>
</glyph>
<glyph name="onehundred-tamil" format="2">
  <advance width="817.5"/>
  <unicode hex="0BF1"/>
  <note>
uni0BF1
</note>
  <outline>
    <contour>
      <point x="249.8" y="0.0" type="line"/>
      <point x="324.0" y="0.0" type="line"/>
      <point x="324.0" y="509.0" type="line"/>
      <point x="474.0" y="509.0" type="line"/>
      <point x="474.0" y="0.0" type="line"/>
      <point x="664.9" y="0.0" type="line"/>
      <point x="664.9" y="509.0" type="line"/>
      <point x="769.4" y="509.0" type="line"/>
      <point x="769.4" y="578.4" type="line"/>
      <point x="249.8" y="578.4" type="line"/>
    </contour>
    <contour>
      <point x="53.300000000000004" y="0.0" type="line"/>
      <point x="128.9" y="0.0" type="line"/>
      <point x="128.9" y="448.2" type="line" smooth="yes"/>
      <point x="128.9" y="498.0"/>
      <point x="157.6" y="519.9"/>
      <point x="188.70000000000002" y="519.9" type="curve" smooth="yes"/>
      <point x="221.1" y="519.9"/>
      <point x="249.8" y="497.9"/>
      <point x="249.8" y="451.9" type="curve"/>
      <point x="276.7" y="451.9" type="line"/>
      <point x="276.4" y="541.1"/>
      <point x="232.10000000000002" y="587.0"/>
      <point x="167.2" y="587.0" type="curve" smooth="yes"/>
      <point x="81.7" y="587.0"/>
      <point x="53.300000000000004" y="516.6"/>
      <point x="53.300000000000004" y="431.70000000000005" type="curve" smooth="yes"/>
    </contour>
  </outline>
</glyph>
<glyph name="onethousand-tamil" format="2">
  <advance width="1155.8"/>
  <unicode hex="0BF2"/>
  <note>
uni0BF2
</note>
  <outline>
    <contour>
      <point x="271.7" y="-4.0" type="curve" smooth="yes"/>
      <point x="428.8" y="-4.0"/>
      <point x="525.3" y="76.4"/>
      <point x="525.3" y="214.1" type="curve" smooth="yes"/>
      <point x="525.3" y="508.7" type="line"/>
      <point x="657.6999999999999" y="508.7" type="line"/>
      <point x="657.6999999999999" y="578.4" type="line"/>
      <point x="150.1" y="578.4" type="line"/>
      <point x="150.1" y="305.1" type="line"/>
      <point x="224.6" y="305.1" type="line"/>
      <point x="224.6" y="508.7" type="line"/>
      <point x="335.7" y="508.7" type="line"/>
      <point x="335.7" y="202.4" type="line" smooth="yes"/>
      <point x="335.7" y="117.29999999999998"/>
      <point x="292.70000000000005" y="79.5"/>
      <point x="224.0" y="79.5" type="curve" smooth="yes"/>
      <point x="171.4" y="79.5"/>
      <point x="127.69999999999999" y="114.2"/>
      <point x="127.69999999999999" y="177.2" type="curve" smooth="yes"/>
      <point x="127.69999999999999" y="232.2"/>
      <point x="157.0" y="272.7"/>
      <point x="223.9" y="272.7" type="curve" smooth="yes"/>
      <point x="1010.7" y="272.7" type="line"/>
      <point x="1010.7" y="342.4" type="line"/>
      <point x="222.79999999999998" y="342.4" type="line" smooth="yes"/>
      <point x="136.4" y="342.4"/>
      <point x="54.7" y="277.9"/>
      <point x="54.7" y="179.8" type="curve" smooth="yes"/>
      <point x="54.7" y="73.8"/>
      <point x="123.0" y="-4.0"/>
    </contour>
    <contour>
      <point x="489.79999999999995" y="-330.8" type="curve"/>
      <point x="489.79999999999995" y="-220.6"/>
      <point x="519.3" y="-161.5"/>
      <point x="637.3000000000001" y="-161.5" type="curve" smooth="yes"/>
      <point x="774.3000000000001" y="-161.5" type="line" smooth="yes"/>
      <point x="1014.3" y="-161.5"/>
      <point x="1096.1000000000001" y="-79.0"/>
      <point x="1096.1000000000001" y="35.8" type="curve" smooth="yes"/>
      <point x="1096.1000000000001" y="165.8"/>
      <point x="998.4" y="209.9"/>
      <point x="857.8" y="209.9" type="curve" smooth="yes"/>
      <point x="672.6999999999999" y="209.9" type="line" smooth="yes"/>
      <point x="610.9" y="209.9"/>
      <point x="557.7" y="166.1"/>
      <point x="557.7" y="96.6" type="curve" smooth="yes"/>
      <point x="557.7" y="26.0"/>
      <point x="601.9000000000001" y="-23.0"/>
      <point x="708.9" y="-23.0" type="curve" smooth="yes"/>
      <point x="820.0" y="-23.0"/>
      <point x="882.1" y="24.299999999999997"/>
      <point x="882.1" y="122.8" type="curve" smooth="yes"/>
      <point x="882.1" y="297.0" type="line"/>
      <point x="726.1999999999999" y="297.0" type="line"/>
      <point x="726.1999999999999" y="115.5" type="line" smooth="yes"/>
      <point x="726.1999999999999" y="65.5"/>
      <point x="706.5999999999999" y="43.9"/>
      <point x="671.0" y="43.9" type="curve" smooth="yes"/>
      <point x="642.9" y="43.9"/>
      <point x="623.9" y="64.9"/>
      <point x="623.9" y="95.89999999999999" type="curve" smooth="yes"/>
      <point x="623.9" y="124.0"/>
      <point x="641.4" y="148.0"/>
      <point x="674.0" y="148.0" type="curve" smooth="yes"/>
      <point x="862.1" y="148.0" type="line" smooth="yes"/>
      <point x="908.4" y="148.0"/>
      <point x="938.1999999999999" y="116.0"/>
      <point x="938.1999999999999" y="39.8" type="curve" smooth="yes"/>
      <point x="938.1999999999999" y="-66.7"/>
      <point x="879.2" y="-102.0"/>
      <point x="780.9" y="-102.0" type="curve" smooth="yes"/>
      <point x="574.5" y="-102.0" type="line" smooth="yes"/>
      <point x="455.40000000000003" y="-102.0"/>
      <point x="348.0" y="-123.1"/>
      <point x="348.0" y="-226.10000000000002" type="curve" smooth="yes"/>
      <point x="348.0" y="-300.90000000000003"/>
      <point x="404.8" y="-330.8"/>
    </contour>
  </outline>
</glyph>
<glyph name="day-tamil" format="2">
  <advance width="807.1"/>
  <unicode hex="0BF3"/>
  <note>
uni0BF3
</note>
  <outline>
    <contour>
      <point x="231.70000000000002" y="-5.0" type="curve" smooth="yes"/>
      <point x="330.8" y="-5.0"/>
      <point x="396.9" y="60.9"/>
      <point x="396.9" y="176.3" type="curve" smooth="yes"/>
      <point x="396.9" y="276.40000000000003"/>
      <point x="342.9" y="345.90000000000003"/>
      <point x="253.20000000000002" y="345.90000000000003" type="curve" smooth="yes"/>
      <point x="158.5" y="345.90000000000003"/>
      <point x="116.0" y="272.7"/>
      <point x="101.0" y="163.5" type="curve"/>
      <point x="128.5" y="127.6" type="line"/>
      <point x="138.2" y="204.3"/>
      <point x="158.5" y="234.7"/>
      <point x="191.9" y="234.7" type="curve" smooth="yes"/>
      <point x="221.0" y="234.7"/>
      <point x="238.60000000000002" y="205.20000000000002"/>
      <point x="238.60000000000002" y="158.5" type="curve" smooth="yes"/>
      <point x="238.60000000000002" y="105.7"/>
      <point x="220.90000000000003" y="81.3"/>
      <point x="192.0" y="81.3" type="curve" smooth="yes"/>
      <point x="155.29999999999998" y="81.3"/>
      <point x="119.4" y="143.4"/>
      <point x="119.4" y="255.9" type="curve" smooth="yes"/>
      <point x="119.4" y="401.79999999999995"/>
      <point x="197.2" y="504.3"/>
      <point x="310.5" y="504.3" type="curve" smooth="yes"/>
      <point x="424.29999999999995" y="504.3"/>
      <point x="490.20000000000005" y="415.2"/>
      <point x="490.20000000000005" y="261.4" type="curve" smooth="yes"/>
      <point x="490.20000000000005" y="174.5"/>
      <point x="472.2" y="108.4"/>
      <point x="443.90000000000003" y="49.199999999999996" type="curve"/>
      <point x="467.5" y="0.0" type="line"/>
      <point x="792.3" y="0.0" type="line"/>
      <point x="792.3" y="69.4" type="line"/>
      <point x="572.1" y="69.4" type="line"/>
      <point x="626.8" y="126.79999999999998"/>
      <point x="668.0" y="201.7"/>
      <point x="668.0" y="296.0" type="curve" smooth="yes"/>
      <point x="668.0" y="483.59999999999997"/>
      <point x="530.4" y="583.4"/>
      <point x="353.6" y="583.4" type="curve" smooth="yes"/>
      <point x="135.0" y="583.4"/>
      <point x="44.1" y="429.8"/>
      <point x="44.1" y="255.70000000000002" type="curve" smooth="yes"/>
      <point x="44.1" y="108.4"/>
      <point x="102.80000000000001" y="-5.0"/>
    </contour>
  </outline>
</glyph>
<glyph name="month-tamil" format="2">
  <advance width="1096.3"/>
  <unicode hex="0BF4"/>
  <note>
uni0BF4
</note>
  <anchor x="412.8" y="0.0" name="bottom"/>
  <anchor x="790.0999999999999" y="578.4" name="imatra"/>
  <anchor x="413.8" y="0.0" name="nukta"/>
  <anchor x="409.2" y="578.4" name="top"/>
  <anchor x="435.0" y="578.4" name="vedic"/>
  <outline>
    <contour>
      <point x="690.0" y="487.8" type="curve"/>
      <point x="716.6999999999999" y="509.8" type="line"/>
      <point x="668.1999999999999" y="558.3"/>
      <point x="632.1999999999999" y="606.8"/>
      <point x="632.1999999999999" y="677.4" type="curve" smooth="yes"/>
      <point x="632.1999999999999" y="774.2"/>
      <point x="683.6" y="823.1"/>
      <point x="757.7" y="823.1" type="curve" smooth="yes"/>
      <point x="822.1999999999999" y="823.1"/>
      <point x="863.1" y="772.3"/>
      <point x="863.1" y="717.6" type="curve" smooth="yes"/>
      <point x="863.1" y="678.9"/>
      <point x="846.7" y="658.4"/>
      <point x="816.0" y="658.4" type="curve" smooth="yes"/>
      <point x="778.8000000000001" y="658.4"/>
      <point x="755.1" y="704.7"/>
      <point x="755.1" y="766.9" type="curve" smooth="yes"/>
      <point x="755.1" y="861.0"/>
      <point x="804.7" y="929.0"/>
      <point x="888.1" y="929.0" type="curve" smooth="yes"/>
      <point x="963.0" y="929.0"/>
      <point x="1009.3" y="885.5"/>
      <point x="1009.3" y="798.0" type="curve" smooth="yes"/>
      <point x="1009.3" y="594.1" type="line"/>
      <point x="1125.9" y="594.1" type="line"/>
      <point x="1125.9" y="825.3" type="line" smooth="yes"/>
      <point x="1125.9" y="894.5"/>
      <point x="1157.6000000000001" y="931.7"/>
      <point x="1221.1000000000001" y="911.4" type="curve"/>
      <point x="1235.0" y="981.6" type="line"/>
      <point x="1142.7" y="1006.5"/>
      <point x="1080.8" y="952.2"/>
      <point x="1068.7" y="874.0" type="curve"/>
      <point x="1064.4" y="874.0" type="line"/>
      <point x="1041.4" y="950.5"/>
      <point x="977.5999999999999" y="993.6"/>
      <point x="893.5" y="993.6" type="curve" smooth="yes"/>
      <point x="772.9000000000001" y="993.6"/>
      <point x="691.1999999999999" y="894.0"/>
      <point x="691.1999999999999" y="763.9" type="curve" smooth="yes"/>
      <point x="691.1999999999999" y="662.1"/>
      <point x="737.6" y="586.5"/>
      <point x="831.8" y="586.5" type="curve" smooth="yes"/>
      <point x="909.4" y="586.5"/>
      <point x="956.3" y="637.3"/>
      <point x="956.3" y="714.5" type="curve" smooth="yes"/>
      <point x="956.3" y="811.6"/>
      <point x="887.8000000000001" y="889.7"/>
      <point x="759.4" y="889.7" type="curve" smooth="yes"/>
      <point x="643.6" y="889.7"/>
      <point x="566.8" y="806.6"/>
      <point x="566.8" y="691.0" type="curve" smooth="yes"/>
      <point x="566.8" y="600.8"/>
      <point x="616.7" y="544.3"/>
    </contour>
    <component base="ma-tamil"/>
  </outline>
</glyph>
<glyph name="year-tamil" format="2">
  <advance width="2178.9"/>
  <unicode hex="0BF5"/>
  <note>
uni0BF5
</note>
  <anchor x="796.5" y="0.0" name="bottom"/>
  <anchor x="1287.8" y="578.4" name="imatra"/>
  <anchor x="793.0999999999999" y="0.0" name="nukta"/>
  <anchor x="810.5" y="578.4" name="top"/>
  <anchor x="833.3000000000001" y="578.4" name="vedic"/>
  <outline>
    <contour>
      <point x="870.8" y="-293.3" type="curve" smooth="yes"/>
      <point x="1304.6" y="-293.3"/>
      <point x="1617.6" y="-155.1"/>
      <point x="1617.6" y="124.3" type="curve" smooth="yes"/>
      <point x="1617.6" y="277.1"/>
      <point x="1546.1" y="356.7"/>
      <point x="1442.2" y="356.7" type="curve" smooth="yes"/>
      <point x="1332.6000000000001" y="356.7"/>
      <point x="1283.8" y="268.4"/>
      <point x="1283.8" y="161.4" type="curve" smooth="yes"/>
      <point x="1283.8" y="138.9" type="line"/>
      <point x="1309.9" y="138.9" type="line"/>
      <point x="1309.9" y="161.4" type="line" smooth="yes"/>
      <point x="1309.9" y="208.6"/>
      <point x="1322.9" y="242.29999999999998"/>
      <point x="1371.5" y="242.29999999999998" type="curve" smooth="yes"/>
      <point x="1422.7" y="242.29999999999998"/>
      <point x="1447.3" y="206.9"/>
      <point x="1447.3" y="126.2" type="curve" smooth="yes"/>
      <point x="1447.3" y="-113.2"/>
      <point x="1222.9" y="-217.4"/>
      <point x="866.6" y="-217.4" type="curve" smooth="yes"/>
      <point x="413.8" y="-217.4"/>
      <point x="125.5" y="-45.8"/>
      <point x="125.5" y="277.40000000000003" type="curve" smooth="yes"/>
      <point x="125.5" y="599.3"/>
      <point x="404.9" y="777.2"/>
      <point x="945.2" y="777.2" type="curve" smooth="yes"/>
      <point x="1397.2" y="777.2"/>
      <point x="1697.4" y="618.0"/>
      <point x="1697.4" y="307.7" type="curve" smooth="yes"/>
      <point x="1697.4" y="185.2" type="line" smooth="yes"/>
      <point x="1697.4" y="68.4"/>
      <point x="1753.1999999999998" y="-5.0"/>
      <point x="1888.3" y="-5.0" type="curve" smooth="yes"/>
      <point x="2033.4" y="-5.0"/>
      <point x="2131.9" y="105.8"/>
      <point x="2131.9" y="307.0" type="curve" smooth="yes"/>
      <point x="2131.9" y="406.7"/>
      <point x="2098.7" y="490.1"/>
      <point x="2037.9999999999998" y="582.8" type="curve"/>
      <point x="1974.2" y="543.5" type="line"/>
      <point x="2027.6" y="460.5"/>
      <point x="2057.2000000000003" y="391.1"/>
      <point x="2057.2000000000003" y="297.1" type="curve" smooth="yes"/>
      <point x="2057.2000000000003" y="157.10000000000002"/>
      <point x="1997.5" y="84.5"/>
      <point x="1939.3" y="84.5" type="curve" smooth="yes"/>
      <point x="1902.1999999999998" y="84.5"/>
      <point x="1890.6000000000001" y="111.5"/>
      <point x="1890.6000000000001" y="174.2" type="curve" smooth="yes"/>
      <point x="1890.6000000000001" y="322.09999999999997" type="line" smooth="yes"/>
      <point x="1890.6000000000001" y="676.6999999999999"/>
      <point x="1487.6" y="853.5"/>
      <point x="949.4000000000001" y="853.5" type="curve" smooth="yes"/>
      <point x="338.20000000000005" y="853.5"/>
      <point x="47.7" y="630.0"/>
      <point x="47.7" y="273.20000000000005" type="curve" smooth="yes"/>
      <point x="47.7" y="-80.0"/>
      <point x="359.40000000000003" y="-293.3"/>
    </contour>
    <component base="lla-tamil" xOffset="200.0"/>
  </outline>
</glyph>
<glyph name="debit-tamil" format="2">
  <advance width="1175.7"/>
  <unicode hex="0BF6"/>
  <note>
uni0BF6
</note>
  <outline>
    <contour>
      <point x="353.09999999999997" y="-353.4" type="curve" smooth="yes"/>
      <point x="605.3000000000001" y="-353.4"/>
      <point x="777.3" y="-221.5"/>
      <point x="777.3" y="-8.5" type="curve" smooth="yes"/>
      <point x="777.3" y="578.4" type="line"/>
      <point x="590.1" y="578.4" type="line"/>
      <point x="590.1" y="-8.399999999999999" type="line" smooth="yes"/>
      <point x="590.1" y="-202.60000000000002"/>
      <point x="493.0" y="-284.7"/>
      <point x="327.70000000000005" y="-284.7" type="curve" smooth="yes"/>
      <point x="197.7" y="-284.7"/>
      <point x="110.9" y="-214.7"/>
      <point x="110.9" y="-153.9" type="curve" smooth="yes"/>
      <point x="110.9" y="-135.2"/>
      <point x="122.6" y="-124.2"/>
      <point x="144.7" y="-124.2" type="curve" smooth="yes"/>
      <point x="1113.9" y="-124.2" type="line"/>
      <point x="1113.9" y="578.4" type="line"/>
      <point x="924.5999999999999" y="578.4" type="line"/>
      <point x="924.5999999999999" y="-54.1" type="line"/>
      <point x="113.9" y="-54.1" type="line" smooth="yes"/>
      <point x="61.5" y="-54.1"/>
      <point x="26.3" y="-88.6"/>
      <point x="26.3" y="-135.9" type="curve" smooth="yes"/>
      <point x="26.3" y="-265.7"/>
      <point x="173.5" y="-353.4"/>
    </contour>
    <contour>
      <point x="61.800000000000004" y="12.7" type="line"/>
      <point x="686.4000000000001" y="12.7" type="line"/>
      <point x="686.4000000000001" y="84.2" type="line"/>
      <point x="251.70000000000002" y="84.2" type="line"/>
      <point x="251.70000000000002" y="578.4" type="line"/>
      <point x="61.800000000000004" y="578.4" type="line"/>
    </contour>
  </outline>
</glyph>
<glyph name="credit-tamil" format="2">
  <advance width="1494.1000000000001"/>
  <unicode hex="0BF7"/>
  <note>
uni0BF7
</note>
  <anchor x="466.09999999999997" y="0.0" name="bottom"/>
  <anchor x="466.09999999999997" y="0.0" name="nukta"/>
  <anchor x="469.3" y="578.4" name="top"/>
  <anchor x="469.09999999999997" y="578.4" name="vedic"/>
  <outline>
    <contour>
      <point x="995.2" y="-4.7" type="curve" smooth="yes"/>
      <point x="1078.6" y="-4.7"/>
      <point x="1148.6000000000001" y="47.1"/>
      <point x="1148.6000000000001" y="152.5" type="curve" smooth="yes"/>
      <point x="1148.6000000000001" y="269.5"/>
      <point x="1058.8999999999999" y="342.4"/>
      <point x="924.9" y="342.4" type="curve" smooth="yes"/>
      <point x="830.2" y="342.4"/>
      <point x="766.7" y="302.5"/>
      <point x="711.5" y="253.5" type="curve"/>
      <point x="711.5" y="178.4" type="line"/>
      <point x="787.8" y="242.60000000000002"/>
      <point x="843.1" y="272.7"/>
      <point x="897.3000000000001" y="272.7" type="curve" smooth="yes"/>
      <point x="961.7" y="272.7"/>
      <point x="1000.6" y="217.10000000000002"/>
      <point x="1000.6" y="148.9" type="curve" smooth="yes"/>
      <point x="1000.6" y="96.8"/>
      <point x="981.1999999999999" y="78.4"/>
      <point x="958.0" y="78.4" type="curve" smooth="yes"/>
      <point x="929.6999999999999" y="78.4"/>
      <point x="906.2" y="114.3"/>
      <point x="906.2" y="182.5" type="curve" smooth="yes"/>
      <point x="906.2" y="293.1"/>
      <point x="986.5" y="365.3"/>
      <point x="1085.2" y="365.3" type="curve" smooth="yes"/>
      <point x="1178.1" y="365.3"/>
      <point x="1258.3" y="309.5"/>
      <point x="1258.3" y="204.9" type="curve" smooth="yes"/>
      <point x="1258.3" y="137.4"/>
      <point x="1229.9" y="91.9"/>
      <point x="1182.2" y="46.6" type="curve"/>
      <point x="1205.5" y="0.0" type="line"/>
      <point x="1480.8" y="0.0" type="line"/>
      <point x="1480.8" y="69.4" type="line"/>
      <point x="1254.7" y="69.4" type="line"/>
      <point x="1254.3999999999999" y="39.6" type="line"/>
      <point x="1330.7" y="75.3"/>
      <point x="1392.8999999999999" y="132.29999999999998"/>
      <point x="1392.8999999999999" y="225.9" type="curve" smooth="yes"/>
      <point x="1392.8999999999999" y="366.9"/>
      <point x="1268.2" y="440.8"/>
      <point x="1121.6000000000001" y="440.8" type="curve" smooth="yes"/>
      <point x="941.4" y="440.8"/>
      <point x="839.4000000000001" y="328.1"/>
      <point x="839.4000000000001" y="183.0" type="curve" smooth="yes"/>
      <point x="839.4000000000001" y="68.9"/>
      <point x="889.3" y="-4.7"/>
    </contour>
    <component base="e-tamil"/>
  </outline>
</glyph>
